<?xml version="1.0" encoding="UTF-8"?>
<!DOCTYPE svg  PUBLIC '-//W3C//DTD SVG 1.1//EN'  'http://www.w3.org/Graphics/SVG/1.1/DTD/svg11.dtd'>
<svg version="1.1" xmlns="http://www.w3.org/2000/svg">
<defs>
<font id="TeXGyreAdventor-Italic" horiz-adv-x="554">
<font-face font-family="TeXGyreAdventor" font-style="italic" font-weight="400" ascent="808" bbox="-111 -251 1142 966" cap-height="739" descent="-192" panose-1="0 0 5 0 0 0 0 0 0 0" slope="-10.5" underline-position="-96" underline-thickness="58" unicode-range="U+0020-00FE" units-per-em="1000" x-height="547"/>
<missing-glyph/>
<glyph glyph-name="space" horiz-adv-x="277" unicode=" "/>
<glyph d="M155 0h-74l23 126h74zM192 197h-74l100 542h74z" glyph-name="exclam" horiz-adv-x="295" unicode="!"/>
<glyph d="M231 739l-42 -226h-50l42 226h50zM344 739l-42 -226h-50l42 226h50z" glyph-name="quotedbl" horiz-adv-x="309" unicode='"'/>
<glyph d="M599 453h-122l-57 -156h115l-11 -60h-126l-87 -237h-66l87 237h-129l-88 -237h-66l89 237h-117l11 60h128l59 156h-121l11 60h132l85 226h64l-84 -226h127l83 226h66l-83 -226h111zM411 453h-127l-58 -156h128z" glyph-name="numbersign" unicode="#"/>
<glyph d="M494 264q0 -100 -74 -169q-55 -52 -134 -66l-16 -85h-66l16 85q-80 12 -117 72q-21 35 -21 77q0 19 6 50h68q-2 -25 -2 -32q0 -67 54 -94q24 -12 53 -12q76 0 123 62q33 45 33 100q0 53 -39 79q-27 17 -73 32q-109 34 -131 99q-7 23 -7 51q0 97 75 163q47 40 108 52 l15 82h66l-15 -82q99 -22 121 -93q8 -27 8 -62q0 -6 -2 -26h-70q2 24 2 32q0 53 -49 76q-22 10 -47 10q-73 0 -114 -61q-26 -39 -26 -88q0 -40 47 -65q22 -11 57 -23q112 -39 138 -93q13 -28 13 -71z" glyph-name="dollar" unicode="$"/>
<glyph d="M696 739l-471 -739h-72l468 739h75zM755 195q0 -85 -70 -150q-63 -58 -140 -58q-81 0 -123 62q-24 37 -24 83q0 84 69 147q64 59 143 59q78 0 120 -60q25 -37 25 -83zM687 185q0 48 -43 73q-21 12 -45 12q-63 0 -105 -52q-28 -36 -28 -76q0 -51 43 -76q21 -11 45 -11 q64 0 105 52q28 36 28 78zM444 606q0 -85 -69 -150q-63 -59 -140 -59q-83 0 -124 63q-24 36 -24 82q0 81 67 145q64 62 145 62q78 0 120 -60q25 -37 25 -83zM376 595q0 49 -43 74q-21 12 -45 12q-65 0 -106 -53q-27 -35 -27 -76q0 -53 45 -77q20 -10 43 -10q64 0 105 52 q28 36 28 78z" glyph-name="percent" horiz-adv-x="775" unicode="%"/>
<glyph d="M713 38l-60 -51l-141 166q-108 -165 -256 -166q-114 0 -165 80q-28 46 -28 106q0 97 77 174q23 23 50 40l71 37q11 5 17 9q-52 80 -55 127q0 82 70 141q62 51 139 51q88 0 128 -62q21 -32 21 -73q0 -85 -64 -139q-41 -34 -116 -67l115 -138l146 208h82l-184 -261z M467 206l-146 174q-134 -61 -168 -126q-18 -34 -18 -77q0 -70 59 -104q32 -18 72 -18q88 0 170 106q17 22 31 45zM509 603q0 61 -56 77q-15 4 -32 4q-57 0 -95 -46q-26 -32 -26 -66t38 -84q8 -11 19 -24q111 46 136 82q16 23 16 57z" glyph-name="ampersand" horiz-adv-x="757" unicode="&amp;"/>
<glyph d="M231 739l-42 -226h-50l42 226h50z" glyph-name="quotesingle" horiz-adv-x="198" unicode="'"/>
<glyph d="M282 -125q-119 47 -174 179q-32 79 -32 167q0 143 89 287q96 156 241 218q18 7 36 13l-12 -63q-173 -104 -242 -274q-35 -85 -35 -170q0 -178 120 -276q11 -9 21 -16z" glyph-name="parenleft" horiz-adv-x="369" unicode="("/>
<glyph d="M347 392q0 -153 -98 -299q-104 -155 -262 -215q-4 -2 -7 -3l12 64q124 66 205 201q73 123 73 242q0 171 -120 274q-11 10 -22 18l12 65q106 -39 164 -159q43 -89 43 -188z" glyph-name="parenright" horiz-adv-x="369" unicode=")"/>
<glyph d="M438 547l-102 21l39 -100l-53 -19l-35 101l-70 -80l-44 36l75 79l-106 17l10 52l105 -22l-40 102l55 18l34 -100l70 82l41 -38l-73 -81l103 -16z" glyph-name="asterisk" horiz-adv-x="425" unicode="*"/>
<glyph d="M566 213h-203v-203h-74v203h-203v74h203v203h74v-203h203v-74z" glyph-name="plus" horiz-adv-x="606" unicode="+"/>
<glyph d="M246 126l-124 -193h-73l124 193h73z" glyph-name="comma" horiz-adv-x="277" unicode=","/>
<glyph d="M334 296l-12 -63h-272l12 63h272z" glyph-name="hyphen" horiz-adv-x="332" unicode="-"/>
<glyph d="M145 0h-74l23 126h74z" glyph-name="period" horiz-adv-x="277" unicode="."/>
<glyph d="M504 739l-451 -867h-67l449 867h69z" glyph-name="slash" horiz-adv-x="437" unicode="/"/>
<glyph d="M582 479l-39 -210q-54 -281 -296 -282q-128 0 -180 86q-26 44 -26 102q0 47 8 85l2 9l39 210q38 208 198 258q46 15 100 15q109 0 166 -71q37 -46 37 -106q0 -46 -9 -96zM472 281l33 181q9 53 9 88q0 86 -71 119q-31 15 -69 15q-174 0 -215 -220v-2l-33 -181 q-7 -34 -8 -92q0 -80 65 -116q34 -18 77 -18q134 0 186 133q16 40 26 93z" glyph-name="zero" unicode="0"/>
<glyph d="M461 739l-137 -739h-73l125 672h-126l12 67h199z" glyph-name="one" unicode="1"/>
<glyph d="M472 0h-469l12 67l306 250q126 103 157 159q22 38 22 84q0 79 -65 110q-30 14 -67 14q-107 0 -161 -93q-23 -40 -32 -91h-73q20 132 119 202q71 50 160 50q114 0 166 -77q30 -45 30 -103q0 -90 -62 -165q-41 -49 -120 -113l-280 -227h369z" glyph-name="two" unicode="2"/>
<glyph d="M518 270q0 -112 -83 -197q-86 -84 -195 -86q-107 0 -163 74q-36 47 -36 110q0 23 3 60h73l-1 -15q0 -145 104 -159q13 -2 27 -2q84 0 144 68q50 57 50 129q0 109 -108 130q-32 6 -73 6l12 66l39 -2q75 0 118 56q28 38 28 85q0 59 -49 82q-20 9 -44 9q-71 0 -112 -59 q-21 -32 -25 -70h-73q25 121 121 172q49 25 104 25q92 0 134 -68q21 -35 21 -80q-1 -113 -108 -181q91 -50 92 -153z" glyph-name="three" unicode="3"/>
<glyph d="M523 135h-68l-25 -135h-73l25 135h-375l12 67l461 537h87l-100 -537h68zM475 637l-370 -435h289z" glyph-name="four" unicode="4"/>
<glyph d="M547 297q0 -118 -88 -211q-83 -89 -192 -98q-11 -1 -21 -1q-98 0 -160 69q-49 56 -49 134v42h72q0 -138 94 -169q23 -8 50 -8q92 0 158 75q59 68 59 156q0 87 -65 127q-35 22 -79 22q-86 -1 -168 -82l-53 22l133 364h335l-12 -67h-276l-74 -204q75 35 136 35 q107 0 163 -80q37 -54 37 -126z" glyph-name="five" unicode="5"/>
<glyph d="M549 299q0 -124 -88 -217q-95 -92 -214 -95q-111 0 -171 78q-40 53 -40 124q0 80 31 139q30 54 103 139l233 272h85l-221 -257q51 21 91 21q100 0 154 -77q37 -54 37 -127zM472 286q0 91 -66 130q-33 19 -75 19q-90 0 -156 -73q-62 -69 -62 -158q0 -92 69 -130 q35 -19 79 -19q88 0 152 76q59 69 59 155z" glyph-name="six" unicode="6"/>
<glyph d="M585 672l-429 -672h-78l431 672h-350l12 67h426z" glyph-name="seven" unicode="7"/>
<glyph d="M526 267q0 -120 -85 -202q-81 -78 -192 -78q-120 0 -172 83q-29 45 -29 106q0 107 86 185q35 32 79 52q-52 38 -59 80q-3 15 -3 34q0 95 80 164q71 61 156 61q95 0 140 -67q23 -36 23 -82q0 -115 -86 -172q-16 -10 -33 -18q92 -55 95 -146zM451 250q0 77 -63 109 q-31 16 -69 16q-89 0 -147 -67q-47 -55 -47 -127q0 -71 59 -106q34 -20 75 -20q89 0 147 69q45 55 45 126zM473 587q0 67 -56 89q-20 8 -44 8q-71 0 -115 -57q-30 -39 -30 -86q0 -56 49 -83q25 -14 55 -14q67 0 111 58q30 41 30 85z" glyph-name="eight" unicode="8"/>
<glyph d="M595 550q0 -72 -32 -137q-21 -43 -76 -109q-12 -14 -27 -32l-233 -272h-85l222 257q-51 -21 -91 -21q-97 0 -152 74q-39 54 -39 125q0 127 88 221q94 92 212 96q115 0 174 -79q39 -53 39 -123zM518 532q0 91 -68 131q-35 21 -80 21q-92 0 -156 -80q-55 -69 -55 -149 q0 -94 68 -133q32 -18 72 -18q94 0 160 75q59 67 59 153z" glyph-name="nine" unicode="9"/>
<glyph d="M217 381h-74l23 126h74zM145 0h-74l23 126h74z" glyph-name="colon" horiz-adv-x="277" unicode=":"/>
<glyph d="M196 126l-124 -193h-73l125 193h72zM245 381h-74l23 126h74z" glyph-name="semicolon" horiz-adv-x="277" unicode=";"/>
<glyph d="M503 -95l-378 317v56l378 317v-96l-296 -249l296 -249v-96z" glyph-name="less" horiz-adv-x="606" unicode="&lt;"/>
<glyph d="M566 305h-480v74h480v-74zM566 121h-480v74h480v-74z" glyph-name="equal" horiz-adv-x="606" unicode="="/>
<glyph d="M503 222l-378 -317v96l296 249l-296 249v96l378 -317v-56z" glyph-name="greater" horiz-adv-x="606" unicode="&gt;"/>
<glyph d="M305 0h-74l23 126h74zM597 577q0 -77 -39 -129q-29 -37 -87 -83q-101 -80 -124 -142q-5 -15 -8 -30h-70q10 103 139 204q64 51 81 75q2 4 4 6q27 40 27 89q0 72 -61 103q-29 14 -65 14q-148 -2 -195 -176h-70q36 161 160 219q55 25 119 25q111 0 162 -76q27 -43 27 -99z " glyph-name="question" horiz-adv-x="591" unicode="?"/>
<glyph d="M853 489q0 -110 -83 -219q-75 -99 -163 -124q-24 -7 -45 -7q-58 0 -74 40q-3 8 -5 17q-62 -49 -118 -52h-11q-76 0 -103 61q-10 24 -10 52q0 98 85 203q78 97 168 125q26 8 50 8q75 0 97 -56q3 -6 5 -13l26 50h61l-145 -278q-33 -75 -34 -85q0 -15 22 -19q5 -1 9 -1 q54 0 119 72q79 86 93 185q3 18 3 34q0 110 -88 172q-67 46 -160 46q-137 0 -253 -100q-110 -96 -136 -228q-7 -33 -7 -65q0 -128 91 -205q76 -63 184 -63q137 1 252 99l34 -33q-131 -118 -304 -118q-142 0 -231 97q-79 88 -79 214q0 158 112 287q108 124 261 157 q47 10 92 10q135 0 217 -87q68 -73 68 -176zM598 482q0 50 -50 58q-6 1 -11 1h-5q-61 0 -132 -80q-71 -82 -85 -164q-2 -14 -2 -26q0 -52 42 -66q11 -3 22 -3q65 0 128 84q14 17 27 38q66 101 66 158z" glyph-name="at" horiz-adv-x="867" unicode="@"/>
<glyph d="M699 0h-81l-61 249h-344l-154 -249h-78l454 739h83zM541 316l-80 339l-207 -339h287z" glyph-name="A" horiz-adv-x="740" unicode="A"/>
<glyph d="M558 260q0 -101 -63 -174q-11 -12 -22 -22q-61 -53 -173 -62q-32 -2 -71 -2h-183l137 739h173q196 0 218 -112q3 -15 3 -32q0 -116 -76 -175q-20 -16 -44 -26q76 -37 93 -84q8 -22 8 -50zM481 242q-1 65 -50 92q-39 20 -157 20h-91l-51 -287h101q209 0 241 119q7 25 7 56 zM500 578q0 61 -48 80q-37 14 -117 14h-90l-47 -251h90q111 0 155 31l12 10q40 37 45 104v12z" glyph-name="B" horiz-adv-x="574" unicode="B"/>
<glyph d="M777 194q-101 -149 -264 -192q-55 -15 -111 -15q-160 0 -252 101q-74 82 -74 202q0 167 113 298q108 125 266 156q42 8 84 8q142 0 231 -84q54 -52 69 -121h-82q-69 134 -228 137q-136 0 -246 -97q-107 -95 -126 -228q-4 -25 -4 -49q0 -122 88 -195q72 -60 173 -60 q154 1 281 139h82z" glyph-name="C" horiz-adv-x="813" unicode="C"/>
<glyph d="M744 448q0 -176 -118 -303q-22 -23 -47 -43q-108 -86 -261 -99q-34 -3 -73 -3h-199l137 739h174q174 0 256 -49q7 -5 13 -9q117 -82 118 -233zM667 435q0 168 -153 216q-68 21 -166 21h-103l-113 -605h103q171 0 261 55q29 18 56 43q84 78 108 201q7 36 7 69z" glyph-name="D" horiz-adv-x="744" unicode="D"/>
<glyph d="M575 672h-330l-50 -265h319l-12 -67h-319l-51 -273h330l-12 -67h-404l137 739h404z" glyph-name="E" horiz-adv-x="536" unicode="E"/>
<glyph d="M546 672h-301l-50 -267h290l-12 -67h-290l-63 -338h-74l137 739h375z" glyph-name="F" horiz-adv-x="485" unicode="F"/>
<glyph d="M864 341q-36 -145 -161 -247q-132 -107 -287 -107q-161 0 -257 100q-82 86 -82 213q0 157 113 286q107 123 262 156q47 10 93 10q155 0 245 -89q51 -52 67 -121h-84q-31 88 -127 124q-49 18 -104 18q-147 0 -260 -100q-109 -95 -125 -231q-3 -21 -3 -41q0 -131 97 -204 q73 -53 174 -53q137 0 245 96q59 53 93 123h-414l12 67h503z" glyph-name="G" horiz-adv-x="872" unicode="G"/>
<glyph d="M577 0h-74l64 347h-383l-64 -347h-74l137 739h74l-60 -325h383l60 325h74z" glyph-name="H" horiz-adv-x="683" unicode="H"/>
<glyph d="M257 739l-137 -739h-74l137 739h74z" glyph-name="I" horiz-adv-x="226" unicode="I"/>
<glyph d="M513 739l-95 -508q-41 -219 -203 -242q-19 -3 -38 -3q-116 0 -153 86q-13 33 -13 74q0 19 2 29h73q8 -86 46 -109q22 -12 56 -12q108 0 146 136q6 20 10 41l95 508h74z" glyph-name="J" horiz-adv-x="482" unicode="J"/>
<glyph d="M555 0h-93l-187 320l-118 -118l-37 -202h-74l137 739h74l-79 -425l421 425h93l-359 -360z" glyph-name="K" horiz-adv-x="591" unicode="K"/>
<glyph d="M426 0h-380l137 739h74l-125 -672h306z" glyph-name="L" horiz-adv-x="462" unicode="L"/>
<glyph d="M813 0h-74l122 658l-400 -658h-64l-155 658l-122 -658h-74l137 739h115l152 -629l385 629h115z" glyph-name="M" horiz-adv-x="919" unicode="M"/>
<glyph d="M634 0h-74l-320 650l-120 -650h-74l137 739h100l300 -613l114 613h74z" glyph-name="N" horiz-adv-x="740" unicode="N"/>
<glyph d="M870 436q0 -150 -111 -278q-107 -122 -259 -159q-51 -12 -102 -12q-138 0 -231 92q-91 91 -91 223q0 152 112 280q107 122 259 158q51 12 101 12q134 0 227 -89q95 -92 95 -227zM793 422q0 127 -89 202q-72 60 -174 60q-129 0 -240 -95q-106 -91 -131 -214q-6 -30 -6 -59 q0 -116 83 -193q73 -68 174 -68q136 0 248 96q107 92 130 217q5 28 5 54z" glyph-name="O" horiz-adv-x="869" unicode="O"/>
<glyph d="M635 572q0 -109 -64 -186q-7 -8 -14 -15q-60 -60 -175 -70q-30 -2 -65 -2h-142l-55 -299h-74l137 739h205q181 0 227 -80q20 -35 20 -87zM558 558q-1 64 -47 92q-37 22 -161 22h-105l-57 -306h137q120 0 169 41q7 6 13 12q45 48 51 126v13z" glyph-name="P" horiz-adv-x="592" unicode="P"/>
<glyph d="M883 447q0 -149 -94 -270q-38 -49 -86 -84q44 -38 88 -38q10 0 16 1l-13 -69q-74 1 -114 31q-17 13 -36 33q-105 -62 -233 -64q-151 0 -248 96q-88 88 -88 216q0 162 119 291q110 120 265 152q47 10 92 10q166 0 258 -102q74 -83 74 -203zM593 100q-100 110 -221 131 q-37 6 -78 6q-69 0 -123 -21q17 -62 89 -111q74 -50 161 -50q88 0 169 43q2 1 3 2zM806 427q0 134 -96 205q-70 52 -170 52q-150 0 -261 -101q-115 -106 -126 -269q-1 -15 -1 -29l-1 -6q88 26 169 26q126 0 220 -61q52 -36 119 -102q123 109 143 228q4 28 4 57z" glyph-name="Q" horiz-adv-x="871" unicode="Q"/>
<glyph d="M643 553q0 -132 -95 -211q-70 -57 -168 -66l156 -276h-92l-187 335q137 0 193 21q4 2 7 3q65 27 94 104q15 38 15 78q0 87 -79 114q-50 17 -138 17h-104l-125 -672h-74l137 739h183q199 0 252 -83q25 -41 25 -103z" glyph-name="R" horiz-adv-x="607" unicode="R"/>
<glyph d="M488 246q0 -101 -80 -180q-82 -79 -189 -79q-106 0 -160 72q-33 46 -33 106q0 11 2 42h79q0 -133 95 -149q15 -3 32 -3q81 0 135 64q42 51 42 113q0 56 -49 86q-31 19 -90 38q-117 36 -143 90q-14 27 -14 74q0 90 72 161q75 71 174 71q103 0 149 -72q24 -39 24 -90 q0 -12 -3 -38h-77q-4 130 -106 132q-77 0 -125 -64q-31 -42 -31 -89q0 -34 19 -58q2 -3 3 -4q15 -17 73 -36q12 -5 28 -10q106 -35 137 -71q2 -3 4 -5q32 -42 32 -101z" glyph-name="S" horiz-adv-x="498" unicode="S"/>
<glyph d="M514 672h-169l-125 -672h-74l125 672h-169l12 67h412z" glyph-name="T" horiz-adv-x="426" unicode="T"/>
<glyph d="M601 278q-39 -212 -193 -271q-52 -20 -112 -20q-113 0 -171 75q-36 48 -36 111q0 44 11 105l85 461h74l-85 -461q-9 -48 -9 -90q0 -79 66 -115q34 -18 78 -18q155 0 206 174q7 24 12 49l85 461h74z" glyph-name="U" horiz-adv-x="655" unicode="U"/>
<glyph d="M799 739l-443 -739h-72l-167 739h81l140 -647l381 647h80z" glyph-name="V" horiz-adv-x="702" unicode="V"/>
<glyph d="M1057 739l-349 -739h-95l-52 606l-274 -606h-96l-74 739h76l63 -643l296 643h70l58 -643l301 643h76z" glyph-name="W" horiz-adv-x="960" unicode="W"/>
<glyph d="M571 0h-88l-149 316l-269 -316h-87l321 378l-170 361h87l141 -296l250 296h86l-304 -361z" glyph-name="X" horiz-adv-x="609" unicode="X"/>
<glyph d="M697 739l-349 -492l-46 -247h-74l46 247l-165 492h82l133 -414l292 414h81z" glyph-name="Y" horiz-adv-x="592" unicode="Y"/>
<glyph d="M444 0h-457l12 67l476 605h-352l12 67h435l-12 -67l-475 -605h373z" glyph-name="Z" horiz-adv-x="480" unicode="Z"/>
<glyph d="M274 -50l-14 -75q-157 50 -158 211q0 27 10 78l55 298q21 134 127 216q57 43 126 61l-14 -75q-98 -38 -138 -113q-22 -42 -34 -103l-50 -271q-10 -52 -10 -88q1 -95 100 -139z" glyph-name="bracketleft" horiz-adv-x="351" unicode="["/>
<glyph d="M434 0h-71l-172 739h72z" glyph-name="backslash" horiz-adv-x="605" unicode="\"/>
<glyph d="M238 153q-31 -167 -168 -243q-40 -23 -86 -35l14 75q111 40 151 142q13 33 21 74l50 272q10 52 10 88q-1 95 -100 138l14 75q102 -31 141 -117q17 -38 17 -81q0 -44 -9 -91z" glyph-name="bracketright" horiz-adv-x="351" unicode="]"/>
<glyph d="M591 180h-81l-114 477l-292 -477h-83l347 559h84z" glyph-name="asciicircum" horiz-adv-x="606" unicode="^"/>
<glyph d="M458 -67l-11 -58h-500l11 58h500z" glyph-name="underscore" horiz-adv-x="500" unicode="_"/>
<glyph d="M354 650l-45 -56l-172 114l46 58z" glyph-name="grave" horiz-adv-x="375" unicode="`"/>
<glyph d="M590 0h-74l18 96q-82 -83 -155 -101q-34 -8 -76 -8q-133 0 -200 88q-45 59 -45 141q0 133 96 234q94 99 225 109q13 1 25 1q127 0 183 -90q7 -10 12 -20l18 97h74zM571 319q0 91 -69 141q-46 32 -105 32q-106 0 -185 -80q-76 -77 -77 -177q0 -101 75 -150q47 -30 108 -30 q100 0 176 80q77 81 77 184z" glyph-name="a" horiz-adv-x="683" unicode="a"/>
<glyph d="M666 330q0 -133 -96 -233q-95 -99 -227 -109q-13 -1 -25 -1q-122 0 -181 86q-8 11 -13 21l-17 -94h-74l137 739h74l-53 -286q77 92 200 105q18 2 34 2q121 0 190 -82q51 -63 51 -148zM589 318q0 100 -76 147q-44 27 -102 27q-104 0 -184 -80q-78 -79 -79 -175 q0 -95 70 -147q48 -35 111 -35q105 0 183 81q77 79 77 182z" glyph-name="b" horiz-adv-x="682" unicode="b"/>
<glyph d="M609 161q-106 -145 -235 -168q-31 -6 -65 -6q-133 0 -202 87q-49 62 -49 148q0 125 95 225q93 98 221 111q17 2 34 2q133 0 201 -90q29 -39 40 -89h-83q-34 88 -126 107q-22 4 -44 4q-105 0 -184 -80q-77 -78 -77 -179q0 -95 73 -145q47 -33 110 -33q75 0 128 36 q33 23 80 70h83z" glyph-name="c" horiz-adv-x="647" unicode="c"/>
<glyph d="M592 0h-74l18 99q-82 -92 -177 -108q-26 -4 -54 -4q-122 0 -193 81q-54 63 -54 149q0 130 95 230q94 99 224 112q16 1 31 1q127 -1 195 -100l52 279h74zM576 318q0 89 -71 140q-49 34 -113 34q-101 0 -179 -78q-77 -79 -78 -178q0 -101 76 -151q47 -30 109 -30 q98 0 176 79q78 83 80 184z" glyph-name="d" horiz-adv-x="685" unicode="d"/>
<glyph d="M626 249h-495q-2 -24 -2 -28q0 -81 67 -131q50 -35 112 -35q89 0 164 65q31 28 50 60h77q-63 -116 -179 -167q-62 -26 -125 -26q-115 0 -183 81q-54 64 -54 152q0 128 94 229q91 97 216 110q16 1 30 1q122 0 189 -84q48 -61 48 -144q0 -33 -9 -83zM565 316 q-5 110 -87 154q-41 22 -93 22q-100 0 -177 -77q-42 -43 -62 -99h419z" glyph-name="e" horiz-adv-x="650" unicode="e"/>
<glyph d="M405 672h-15q-98 0 -130 -75q-9 -22 -14 -50h135l-12 -67h-135l-89 -480h-74l89 480h-85l12 67h85q31 155 166 185q30 7 62 7h17z" glyph-name="f" horiz-adv-x="314" unicode="f"/>
<glyph d="M681 547l-84 -449q-23 -124 -59 -176q-13 -20 -31 -39q-93 -97 -242 -98q-180 0 -225 155q-6 21 -10 43h72q38 -89 86 -113q33 -17 91 -17q167 0 223 159q11 29 17 62l7 37q-82 -123 -231 -124q-120 0 -188 84q-50 62 -50 148q0 127 94 228q91 98 213 111q17 2 32 2 q87 0 136 -41q29 -25 57 -69l18 97h74zM562 325q0 87 -69 135q-47 32 -108 32q-95 0 -171 -74q-79 -78 -80 -182q0 -103 70 -151q43 -30 103 -30q99 0 176 79q79 82 79 191z" glyph-name="g" horiz-adv-x="673" unicode="g"/>
<glyph d="M515 0h-74l54 294q7 44 7 72q0 72 -62 107q-34 19 -77 19q-114 0 -170 -103q-20 -39 -30 -89l-56 -300h-74l137 739h74l-49 -263q77 84 185 84q137 0 182 -97q17 -38 17 -87q0 -28 -10 -82z" glyph-name="h" horiz-adv-x="610" unicode="h"/>
<glyph d="M107 0h-74l101 547h74zM220 607h-74l23 126h74z" glyph-name="i" horiz-adv-x="200" unicode="i"/>
<glyph d="M118 38q-36 -219 -229 -230l13 71q77 5 109 58q20 35 33 101l94 509h74zM224 607h-74l23 126h74z" glyph-name="j" horiz-adv-x="203" unicode="j"/>
<glyph d="M467 0h-92l-141 219l-106 -106l-21 -113h-74l137 739h74l-97 -524l316 332h91l-264 -275z" glyph-name="k" horiz-adv-x="502" unicode="k"/>
<glyph d="M244 739l-137 -739h-74l137 739h74z" glyph-name="l" horiz-adv-x="200" unicode="l"/>
<glyph d="M843 0h-74l59 317q6 36 6 62q0 79 -67 104q-23 9 -51 9q-118 0 -165 -115q-11 -28 -17 -60l-59 -317h-74l59 319q6 32 6 53q0 90 -76 114q-21 6 -45 6q-97 0 -148 -88q-22 -38 -31 -85l-59 -319h-74l101 547h74l-11 -63q62 62 116 72q21 4 50 4q121 0 156 -95q2 -5 3 -10 q75 87 161 101q23 4 48 4q107 0 155 -71q25 -38 25 -87q0 -31 -8 -77z" glyph-name="m" horiz-adv-x="938" unicode="m"/>
<glyph d="M515 0h-74l53 287q8 45 8 74q0 85 -70 117q-31 14 -69 14q-136 0 -185 -134q-9 -27 -15 -57l-56 -301h-74l101 547h74l-13 -71q88 84 188 84q118 0 169 -81q27 -43 27 -100q0 -36 -11 -92z" glyph-name="n" horiz-adv-x="610" unicode="n"/>
<glyph d="M639 332q0 -134 -96 -236q-90 -96 -212 -108q-15 -1 -28 -1q-128 0 -197 84q-49 61 -49 144q0 136 99 237q94 97 223 107q14 1 26 1q124 0 190 -86q44 -60 44 -142zM562 325q0 88 -68 136q-44 31 -102 31q-108 0 -185 -82q-73 -78 -73 -182q0 -97 74 -145q45 -28 105 -28 q109 0 183 85q66 78 66 185z" glyph-name="o" horiz-adv-x="655" unicode="o"/>
<glyph d="M665 325q0 -124 -93 -224q-92 -98 -217 -112q-18 -2 -35 -2q-140 1 -196 107l-53 -286h-74l137 739h74l-17 -94q60 79 171 101q32 6 63 6q129 0 195 -89q45 -61 45 -146zM588 317q0 93 -71 142q-46 33 -108 33q-97 0 -175 -71q-86 -80 -87 -194q0 -87 68 -137 q48 -35 110 -35q100 0 179 73q83 79 84 189z" glyph-name="p" horiz-adv-x="682" unicode="p"/>
<glyph d="M690 547l-137 -739h-74l53 286q-95 -105 -237 -107q-119 0 -187 82q-51 62 -51 148q0 130 94 231q93 99 221 111q16 1 30 1q145 -1 197 -107l17 94h74zM575 318q0 89 -70 140q-48 34 -112 34q-105 0 -183 -81q-76 -79 -76 -182q0 -93 70 -142q46 -32 106 -32 q107 0 186 79t79 184z" glyph-name="q" horiz-adv-x="682" unicode="q"/>
<glyph d="M366 560l-14 -73q-158 -17 -186 -168l-59 -319h-74l101 547h74l-14 -78q46 70 125 85q22 4 47 6z" glyph-name="r" horiz-adv-x="301" unicode="r"/>
<glyph d="M362 189q0 -92 -73 -153q-58 -49 -130 -49q-85 0 -126 61q-20 32 -20 69q0 21 3 44h73q0 -86 48 -101q15 -5 35 -5q57 0 92 48q21 30 21 64q0 37 -25 55q-19 14 -63 33q-70 30 -87 48q-2 3 -4 5q-25 30 -26 72q0 79 67 134q55 46 121 46q73 0 108 -54q19 -29 19 -64 q0 -19 -1 -30h-75q-8 76 -65 80q-48 0 -79 -41q-18 -25 -18 -51q1 -38 38 -59q17 -9 93 -43l1 -1h1q71 -34 72 -108z" glyph-name="s" horiz-adv-x="388" unicode="s"/>
<glyph d="M386 480h-129l-89 -480h-74l89 480h-112l12 67h112l36 192h74l-36 -192h129z" glyph-name="t" horiz-adv-x="339" unicode="t"/>
<glyph d="M616 547l-102 -547h-74l16 85q-62 -81 -148 -95q-22 -3 -48 -3q-116 0 -166 76q-25 40 -25 92q0 47 9 97l55 295h74l-55 -295q-6 -26 -6 -67q0 -110 98 -127q18 -3 36 -3q138 0 191 144q11 31 18 67l53 281h74z" glyph-name="u" horiz-adv-x="608" unicode="u"/>
<glyph d="M617 547l-331 -547h-78l-129 547h75l107 -460l281 460h75z" glyph-name="v" unicode="v"/>
<glyph d="M895 547l-313 -547h-79l-52 363l-185 -363h-80l-108 547h74l89 -458l202 391h61l56 -391l263 458h72z" glyph-name="w" horiz-adv-x="831" unicode="w"/>
<glyph d="M442 0h-85l-106 219l-189 -219h-84l242 279l-141 268h84l109 -211l186 211h85l-240 -268z" glyph-name="x" horiz-adv-x="480" unicode="x"/>
<glyph d="M598 547l-453 -739h-78l127 210l-114 529h81l92 -436l266 436h79z" glyph-name="y" horiz-adv-x="536" unicode="y"/>
<glyph d="M385 0h-405l12 67l379 413h-292l12 67h376l-11 -63l-377 -417h318z" glyph-name="z" horiz-adv-x="425" unicode="z"/>
<glyph d="M378 739l-13 -67q-54 -4 -68 -20q-11 -13 -20 -51l-32 -170q-14 -69 -47 -94q-22 -17 -65 -31q53 -18 64 -47q6 -16 6 -38l-3 -38l-32 -170q-3 -15 -3 -31q0 -27 22 -34q12 -4 33 -6l10 -1l-13 -67q-72 2 -91 13q-1 1 -2 1q-37 23 -37 71q0 32 4 54l32 170l3 32 q0 34 -20 45q-13 6 -42 12l13 69q58 9 75 38q10 19 16 52l32 170q23 89 57 114q30 21 117 24h4z" glyph-name="braceleft" horiz-adv-x="351" unicode="{"/>
<glyph d="M396 -125h-74v864h74v-864z" glyph-name="bar" horiz-adv-x="672" unicode="|"/>
<glyph d="M296 341l-13 -69q-52 -10 -66 -26q-13 -15 -25 -63l-31 -170q-17 -92 -67 -119q-37 -20 -110 -20l12 67q53 4 66 18q12 13 23 54l31 170q12 75 65 104q20 11 46 19q-56 24 -65 47q-5 12 -5 32q0 23 5 46l32 170q1 6 1 31q0 26 -19 33q-11 4 -33 6l-11 1l12 67 q71 -2 90 -12q2 -1 3 -2q36 -31 38 -77q0 -16 -5 -47l-32 -170l-4 -41q0 -30 32 -41q12 -5 30 -8z" glyph-name="braceright" horiz-adv-x="351" unicode="}"/>
<glyph d="M589 343q-59 -86 -130 -107q-17 -5 -32 -5q-29 1 -87 26l-50 22q-47 20 -69 20q-37 0 -68 -30q-19 -19 -51 -59l-33 47q73 100 133 116q16 4 33 4q29 0 73 -19l60 -27q50 -23 75 -22q48 2 111 81z" glyph-name="asciitilde" horiz-adv-x="606" unicode="~"/>
<glyph glyph-name="uni00A0" horiz-adv-x="277" unicode=" "/>
<glyph d="M232 421h-74l23 126h74zM118 -192h-74l100 542h74z" glyph-name="exclamdown" horiz-adv-x="295" unicode="¡"/>
<glyph d="M565 463h-82q-1 2 -2.5 4.5t-2.5 4.5l-1 3q-36 72 -123 72q-84 0 -144 -67q-50 -57 -50 -127q0 -82 63 -118q32 -18 71 -18q83 1 153 73h80q-42 -79 -133 -119q-35 -15 -70 -20l-16 -89h-67l16 89q-97 9 -145 84q-29 46 -29 103q0 108 82 190q73 72 178 86l17 93h67 l-17 -93q111 -18 146 -115q6 -17 9 -36z" glyph-name="cent" unicode="¢"/>
<glyph d="M603 268q0 -153 -114 -223q-73 -45 -176 -45h-285l12 67h138q57 52 65 133q1 11 1 20q0 51 -54 110q-7 9 -15 17h-124l13 67h76q-12 41 -12 67q0 112 91 194q88 76 195 77q110 0 171 -73q40 -49 40 -110q0 -6 -2 -28h-70q0 87 -70 125q-36 18 -81 18q-89 0 -148 -71 q-49 -60 -49 -137q1 -25 15 -62h283l-13 -67h-216q45 -69 47 -128q0 -67 -53 -147q-2 -3 -3 -5h57q147 0 192 110q17 40 17 91h72z" glyph-name="sterling" unicode="£"/>
<glyph d="M560 352q0 -98 -57 -174q-11 -14 -22 -25l34 -42l-64 -53l-33 42q-82 -47 -148 -50h-15q-69 0 -124 39q-8 5 -15 11l-51 -42l-44 53l51 42q-23 40 -23 97q0 106 72 194q3 5 6 8l-35 43l64 54l35 -42q82 42 134 46q12 1 24 1q88 -1 142 -47l51 42l43 -54l-49 -43 q24 -55 24 -100zM488 340q0 91 -75 126q-33 15 -72 15q-96 0 -164 -74q-56 -62 -56 -137q0 -91 71 -129q35 -18 80 -18q93 0 158 72q58 64 58 145z" glyph-name="currency" unicode="¤"/>
<glyph d="M696 739l-195 -276h102l-13 -67h-138l-66 -92h180l-12 -67h-205l-44 -237h-74l44 237h-208l12 67h182l-32 92h-140l13 67h104l-97 276h76l145 -412l290 412h76z" glyph-name="yen" unicode="¥"/>
<glyph d="M396 393h-74v346h74v-346zM396 -125h-74v346h74v-346z" glyph-name="brokenbar" horiz-adv-x="672" unicode="¦"/>
<glyph d="M553 315q-1 -93 -104 -169q31 -39 31 -76q0 -101 -84 -164q-64 -47 -140 -47q-94 0 -143 70q-29 42 -29 93q0 16 3 42h68q-1 -10 -1 -25q0 -69 57 -98q27 -14 60 -14q66 0 111 52q30 34 30 73q-2 43 -78 85l-130 70q-76 41 -86 84q-2 10 -2 19q0 85 74 150q21 18 44 31 q-24 29 -24 70q0 82 70 141q60 50 136 50q79 0 124 -53q26 -31 26 -68q0 -5 -2 -25h-71q-4 77 -93 78q-62 0 -98 -47q-22 -29 -22 -62q1 -47 45 -70l143 -74q84 -45 85 -116zM481 300q-1 42 -45 65l-171 89q-52 -33 -71 -89q-6 -17 -6 -32q0 -28 33 -50q5 -3 8 -5l181 -96 q66 52 71 118z" glyph-name="section" horiz-adv-x="615" unicode="§"/>
<glyph d="M229 607h-74l23 126h74zM376 607h-74l23 126h74z" glyph-name="dieresis" horiz-adv-x="369" unicode="¨"/>
<glyph d="M751 341q0 -142 -98 -244t-238 -109h-18q-142 0 -245 99q-101 97 -108 238v16q0 142 98 245q97 102 237 109h18q142 0 245 -98q101 -98 109 -237v-19zM714 341q0 131 -92 224q-94 93 -225 93q-132 0 -224 -93q-92 -94 -92 -224q0 -131 92 -224q93 -92 224 -92t224 92 q93 93 93 224zM630 430h-60q-37 74 -134 74q-91 0 -158 -65q-58 -58 -57 -130q2 -73 67 -109q38 -22 86 -22q91 1 164 75h64q-64 -99 -180 -122q-28 -5 -55 -5q-111 0 -168 71q-34 44 -35 101q-2 105 81 182q83 76 196 76q100 0 156 -60q27 -30 33 -66z" glyph-name="copyright" horiz-adv-x="747" unicode="©"/>
<glyph d="M447 739l-54 -291h-48l8 45q-50 -52 -114 -52q-66 0 -102 55q-22 33 -22 73q0 73 64 128q56 48 124 48q54 -1 88 -51l8 45h48zM370 610q0 52 -41 76q-18 10 -38 10q-57 0 -96 -49q-27 -35 -27 -72q0 -47 40 -73q20 -12 42 -12q50 0 90 47q30 36 30 73zM379 319h-318l9 52 h318z" glyph-name="ordfeminine" horiz-adv-x="369" unicode="ª"/>
<glyph d="M206 132l-65 -33l-75 201l149 199l53 -32l-124 -167zM380 132l-65 -33l-75 201l149 199l53 -32l-124 -167z" glyph-name="guillemotleft" horiz-adv-x="425" unicode="«"/>
<glyph d="M566 379v-221h-74v147h-406v74h480z" glyph-name="logicalnot" horiz-adv-x="606" unicode="¬"/>
<glyph d="M334 296l-12 -63h-272l12 63h272z" glyph-name="uni00AD" horiz-adv-x="332" unicode="­"/>
<glyph d="M751 341q0 -142 -98 -244t-238 -109h-18q-142 0 -245 99q-101 97 -108 238v16q0 142 98 245q97 102 237 109h18q142 0 245 -98q101 -98 109 -237v-19zM714 341q0 131 -92 224q-94 93 -225 93q-132 0 -224 -93q-92 -94 -92 -224q0 -131 92 -224q93 -92 224 -92t224 92 q93 93 93 224zM579 441q2 -84 -68 -129q-35 -22 -80 -28l97 -151h-71l-124 197q97 0 130 13q42 15 55 63q3 14 3 28q0 46 -54 57q-26 6 -70 6h-57l-68 -364h-57l77 416h114q138 0 165 -64q7 -19 8 -44z" glyph-name="registered" horiz-adv-x="747" unicode="®"/>
<glyph d="M511 701l-12 -62h-337l12 62h337z" glyph-name="macron" horiz-adv-x="485" unicode="¯"/>
<glyph d="M432 531q0 -75 -60 -119q-42 -31 -93 -31q-76 0 -122 60q-30 41 -30 91q0 74 61 119q42 30 94 30q72 0 118 -58q32 -42 32 -92zM375 531q0 50 -43 78q-24 15 -51 15q-55 0 -83 -45q-14 -22 -14 -47q0 -51 44 -79q24 -15 51 -15q53 0 81 44q15 23 15 49z" glyph-name="degree" horiz-adv-x="400" unicode="°"/>
<glyph d="M566 287h-203v-146h-74v146h-203v74h203v203h74v-203h203v-74zM566 0h-480v74h480v-74z" glyph-name="plusminus" horiz-adv-x="606" unicode="±"/>
<glyph d="M343 297h-306l9 49l191 146q86 66 100 91q10 17 10 46q0 44 -46 60q-16 6 -35 6q-94 -2 -114 -107h-57q16 102 99 141q38 18 84 18q81 0 113 -57q14 -26 14 -56q0 -60 -58 -116q-23 -22 -57 -48l-161 -121h223z" glyph-name="two.superior" horiz-adv-x="332" unicode="²"/>
<glyph d="M373 456q0 -71 -63 -124q-54 -43 -118 -43q-81 0 -116 57q-15 26 -15 56q0 19 3 41h57l-1 -35q-1 -36 38 -57q20 -10 42 -10q56 0 93 45q22 27 22 58q-2 78 -111 79h-9l10 50h24q63 0 86 41q8 14 8 30q0 44 -44 50q-6 1 -12 1q-69 -2 -82 -75h-57q11 72 73 108 q35 19 74 19q75 0 98 -55q8 -18 8 -39q0 -59 -50 -95l-14 -8q55 -30 56 -94z" glyph-name="three.superior" horiz-adv-x="332" unicode="³"/>
<glyph d="M440 708l-214 -114l-24 56l214 116z" glyph-name="acute" horiz-adv-x="375" unicode="´"/>
<glyph d="M616 547l-102 -547h-74l16 85q-51 -80 -122 -94q-21 -4 -45 -4q-112 1 -165 107l-53 -286h-74l137 739h74l-52 -281q-7 -39 -7 -68q2 -142 149 -143q112 0 161 108q19 43 30 103l53 281h74z" glyph-name="uni00B5" horiz-adv-x="608" unicode="µ"/>
<glyph d="M437 -133h-74l149 805h-116l-149 -805h-74l90 488q-120 12 -150 101q-8 25 -8 54q0 107 81 172q72 57 181 57h231z" glyph-name="paragraph" horiz-adv-x="564" unicode="¶"/>
<glyph d="M225 250q0 -38 -34 -56q-14 -7 -29 -7q-39 0 -57 35q-6 14 -6 28q0 39 35 57q14 6 28 6q38 0 56 -34q7 -14 7 -29z" glyph-name="periodcentered" horiz-adv-x="277" unicode="·"/>
<glyph d="M232 -137q-11 -64 -67 -96q-31 -18 -66 -18q-66 0 -78 71l-2 14l54 6q13 -30 38 -33q36 0 52 35q6 14 6 29q1 34 -31 39q-5 1 -9 1q-29 -1 -51 -19l-28 19l55 94h39l-27 -53q1 0 34 5q57 0 77 -44q6 -14 6 -31q0 -8 -2 -19z" glyph-name="cedilla" horiz-adv-x="324" unicode="¸"/>
<glyph d="M259 297h-58l72 390h-76l9 52h134z" glyph-name="one.superior" horiz-adv-x="332" unicode="¹"/>
<glyph d="M420 619q0 -75 -65 -130q-55 -47 -121 -47q-68 0 -103 55q-20 32 -20 70q0 76 65 132q54 46 120 46q69 0 105 -56q19 -32 19 -70zM367 617q0 45 -39 68q-20 11 -41 11q-62 0 -100 -52q-23 -33 -23 -72q0 -51 43 -72q18 -9 39 -9q59 0 97 52q24 34 24 74zM367 319h-305 l9 52h305z" glyph-name="ordmasculine" horiz-adv-x="369" unicode="º"/>
<glyph d="M237 300l-149 -201l-53 33l124 168l-62 167l65 32zM411 300l-149 -201l-53 33l124 168l-62 167l65 32z" glyph-name="guillemotright" horiz-adv-x="425" unicode="»"/>
<glyph d="M786 79h-42l-15 -79h-58l15 79h-232l9 48l285 315h63l-58 -311h42zM738 358l-204 -227h161zM720 739l-479 -739h-54l479 739h54zM266 297h-58l72 390h-76l9 52h134z" glyph-name="onequarter" horiz-adv-x="831" unicode="¼"/>
<glyph d="M710 739l-479 -739h-54l479 739h54zM256 297h-58l72 390h-76l9 52h134zM782 0h-306l9 49l191 146q86 66 100 91q10 17 10 46q0 44 -46 60q-16 6 -35 6q-94 -2 -114 -107h-57q16 102 99 141q38 18 84 18q81 0 113 -57q14 -26 14 -56q0 -60 -58 -116q-23 -22 -57 -48 l-161 -121h223z" glyph-name="onehalf" horiz-adv-x="831" unicode="½"/>
<glyph d="M786 79h-42l-15 -79h-58l15 79h-232l9 48l285 315h63l-58 -311h42zM738 358l-204 -227h161zM730 739l-479 -739h-54l479 739h54zM373 456q0 -71 -63 -124q-54 -43 -118 -43q-81 0 -116 57q-15 26 -15 56q0 19 3 41h57l-1 -35q-1 -36 38 -57q20 -10 42 -10q56 0 93 45 q22 27 22 58q-2 78 -111 79h-9l10 50h24q63 0 86 41q8 14 8 30q0 44 -44 50q-6 1 -12 1q-69 -2 -82 -75h-57q11 72 73 108q35 19 74 19q75 0 98 -55q8 -18 8 -39q0 -59 -50 -95l-14 -8q55 -30 56 -94z" glyph-name="threequarters" horiz-adv-x="831" unicode="¾"/>
<glyph d="M378 421h-74l23 126h74zM503 39q-36 -161 -160 -219q-55 -25 -119 -25q-111 0 -162 76q-27 43 -27 99q0 77 39 129q29 37 87 83q101 80 124 142q5 15 8 30h70q-10 -103 -139 -204q-64 -51 -81 -75q-2 -4 -4 -6q-27 -40 -27 -89q0 -72 61 -103q29 -14 65 -14 q148 2 195 176h70z" glyph-name="questiondown" horiz-adv-x="591" unicode="¿"/>
<glyph d="M699 0h-81l-61 249h-344l-154 -249h-78l454 739h83zM541 316l-80 339l-207 -339h287zM570 832l-45 -56l-172 114l46 58z" glyph-name="Agrave" horiz-adv-x="740" unicode="À"/>
<glyph d="M699 0h-81l-61 249h-344l-154 -249h-78l454 739h83zM541 316l-80 339l-207 -339h287zM655 890l-214 -114l-24 56l214 116z" glyph-name="Aacute" horiz-adv-x="740" unicode="Á"/>
<glyph d="M699 0h-81l-61 249h-344l-154 -249h-78l454 739h83zM541 316l-80 339l-207 -339h287zM663 789h-89l-72 74l-102 -74h-91l168 126h66z" glyph-name="Acircumflex" horiz-adv-x="740" unicode="Â"/>
<glyph d="M699 0h-81l-61 249h-344l-154 -249h-78l454 739h83zM541 316l-80 339l-207 -339h287zM638 857q-40 -54 -92 -55q-28 1 -96 33q-7 4 -17 4q-12 0 -43 -22q-6 -5 -15 -11l-23 45q50 50 89 51q12 0 74 -27q23 -10 31 -10q36 1 71 38z" glyph-name="Atilde" horiz-adv-x="740" unicode="Ã"/>
<glyph d="M699 0h-81l-61 249h-344l-154 -249h-78l454 739h83zM541 316l-80 339l-207 -339h287zM448 789h-74l23 126h74zM595 789h-74l23 126h74z" glyph-name="Adieresis" horiz-adv-x="740" unicode="Ä"/>
<glyph d="M699 0h-81l-61 249h-344l-154 -249h-78l454 739h83zM541 316l-80 339l-207 -339h287zM602 879q0 -52 -50 -89q-34 -26 -72 -26q-53 0 -75 42q-9 17 -9 37q0 61 50 99q32 24 70 24q59 0 79 -50q7 -17 7 -37zM560 874q0 30 -29 43q-11 5 -22 5q-38 0 -60 -34 q-11 -17 -11 -34q0 -32 31 -43q9 -3 19 -3q35 0 59 32q13 18 13 34z" glyph-name="Aring" horiz-adv-x="740" unicode="Å"/>
<glyph d="M1031 672h-319l-50 -265h308l-12 -67h-308l-51 -273h319l-12 -67h-393l46 250h-271l-219 -250h-88l648 739h414zM572 317l60 327l-284 -327h224z" glyph-name="AE" horiz-adv-x="992" unicode="Æ"/>
<glyph d="M777 194q-100 -148 -262 -192q-54 -14 -110 -15l-18 -35q1 0 34 5q57 0 77 -44q6 -14 6 -31q0 -8 -2 -19q-11 -64 -67 -96q-31 -18 -66 -18q-66 0 -78 71l-2 14l54 6q13 -30 38 -33q36 0 52 35q6 14 6 29q1 34 -31 39q-5 1 -9 1q-29 -1 -51 -19l-28 19l45 78 q-150 12 -230 117q-59 78 -59 184q0 167 113 298q108 125 266 156q42 8 84 8q142 0 231 -84q54 -52 69 -121h-82q-69 134 -228 137q-136 0 -246 -97q-107 -95 -126 -228q-4 -25 -4 -49q0 -122 88 -195q72 -60 173 -60q154 1 281 139h82z" glyph-name="Ccedilla" horiz-adv-x="813" unicode="Ç"/>
<glyph d="M575 672h-330l-50 -265h319l-12 -67h-319l-51 -273h330l-12 -67h-404l137 739h404zM478 832l-45 -56l-172 114l46 58z" glyph-name="Egrave" horiz-adv-x="536" unicode="È"/>
<glyph d="M575 672h-330l-50 -265h319l-12 -67h-319l-51 -273h330l-12 -67h-404l137 739h404zM564 890l-214 -114l-24 56l214 116z" glyph-name="Eacute" horiz-adv-x="536" unicode="É"/>
<glyph d="M575 672h-330l-50 -265h319l-12 -67h-319l-51 -273h330l-12 -67h-404l137 739h404zM572 789h-89l-72 74l-102 -74h-91l168 126h66z" glyph-name="Ecircumflex" horiz-adv-x="536" unicode="Ê"/>
<glyph d="M575 672h-330l-50 -265h319l-12 -67h-319l-51 -273h330l-12 -67h-404l137 739h404zM356 789h-74l23 126h74zM503 789h-74l23 126h74z" glyph-name="Edieresis" horiz-adv-x="536" unicode="Ë"/>
<glyph d="M257 739l-137 -739h-74l137 739h74zM309 832l-45 -56l-172 114l46 58z" glyph-name="Igrave" horiz-adv-x="226" unicode="Ì"/>
<glyph d="M257 739l-137 -739h-74l137 739h74zM403 890l-214 -114l-24 56l214 116z" glyph-name="Iacute" horiz-adv-x="226" unicode="Í"/>
<glyph d="M257 739l-137 -739h-74l137 739h74zM407 789h-89l-72 74l-102 -74h-91l168 126h66z" glyph-name="Icircumflex" horiz-adv-x="226" unicode="Î"/>
<glyph d="M257 739l-137 -739h-74l137 739h74zM191 789h-74l23 126h74zM338 789h-74l23 126h74z" glyph-name="Idieresis" horiz-adv-x="226" unicode="Ï"/>
<glyph d="M790 451q0 -196 -138 -326q-14 -12 -27 -23q-108 -86 -261 -99q-34 -3 -73 -3h-199l64 347h-93l12 67h93l61 325h174q169 0 248 -45q11 -6 21 -13q118 -83 118 -230zM713 435q0 168 -153 216q-68 21 -166 21h-103l-49 -258h206l-12 -67h-206l-51 -280h103q171 0 262 56 q28 18 54 42q84 78 108 201q7 36 7 69z" glyph-name="Eth" horiz-adv-x="790" unicode="Ð"/>
<glyph d="M634 0h-74l-320 650l-120 -650h-74l137 739h100l300 -613l114 613h74zM638 857q-40 -54 -92 -55q-28 1 -96 33q-7 4 -17 4q-12 0 -43 -22q-6 -5 -15 -11l-23 45q50 50 89 51q12 0 74 -27q23 -10 31 -10q36 1 71 38z" glyph-name="Ntilde" horiz-adv-x="740" unicode="Ñ"/>
<glyph d="M870 436q0 -150 -111 -278q-107 -122 -259 -159q-51 -12 -102 -12q-138 0 -231 92q-91 91 -91 223q0 152 112 280q107 122 259 158q51 12 101 12q134 0 227 -89q95 -92 95 -227zM793 422q0 127 -89 202q-72 60 -174 60q-129 0 -240 -95q-106 -91 -131 -214q-6 -30 -6 -59 q0 -116 83 -193q73 -68 174 -68q136 0 248 96q107 92 130 217q5 28 5 54zM639 832l-45 -56l-172 114l46 58z" glyph-name="Ograve" horiz-adv-x="869" unicode="Ò"/>
<glyph d="M870 436q0 -150 -111 -278q-107 -122 -259 -159q-51 -12 -102 -12q-138 0 -231 92q-91 91 -91 223q0 152 112 280q107 122 259 158q51 12 101 12q134 0 227 -89q95 -92 95 -227zM793 422q0 127 -89 202q-72 60 -174 60q-129 0 -240 -95q-106 -91 -131 -214q-6 -30 -6 -59 q0 -116 83 -193q73 -68 174 -68q136 0 248 96q107 92 130 217q5 28 5 54zM724 890l-214 -114l-24 56l214 116z" glyph-name="Oacute" horiz-adv-x="869" unicode="Ó"/>
<glyph d="M870 436q0 -150 -111 -278q-107 -122 -259 -159q-51 -12 -102 -12q-138 0 -231 92q-91 91 -91 223q0 152 112 280q107 122 259 158q51 12 101 12q134 0 227 -89q95 -92 95 -227zM793 422q0 127 -89 202q-72 60 -174 60q-129 0 -240 -95q-106 -91 -131 -214q-6 -30 -6 -59 q0 -116 83 -193q73 -68 174 -68q136 0 248 96q107 92 130 217q5 28 5 54zM732 789h-89l-72 74l-102 -74h-91l168 126h66z" glyph-name="Ocircumflex" horiz-adv-x="869" unicode="Ô"/>
<glyph d="M870 436q0 -150 -111 -278q-107 -122 -259 -159q-51 -12 -102 -12q-138 0 -231 92q-91 91 -91 223q0 152 112 280q107 122 259 158q51 12 101 12q134 0 227 -89q95 -92 95 -227zM793 422q0 127 -89 202q-72 60 -174 60q-129 0 -240 -95q-106 -91 -131 -214q-6 -30 -6 -59 q0 -116 83 -193q73 -68 174 -68q136 0 248 96q107 92 130 217q5 28 5 54zM707 857q-40 -54 -92 -55q-28 1 -96 33q-7 4 -17 4q-12 0 -43 -22q-6 -5 -15 -11l-23 45q50 50 89 51q12 0 74 -27q23 -10 31 -10q36 1 71 38z" glyph-name="Otilde" horiz-adv-x="869" unicode="Õ"/>
<glyph d="M870 436q0 -150 -111 -278q-107 -122 -259 -159q-51 -12 -102 -12q-138 0 -231 92q-91 91 -91 223q0 152 112 280q107 122 259 158q51 12 101 12q134 0 227 -89q95 -92 95 -227zM793 422q0 127 -89 202q-72 60 -174 60q-129 0 -240 -95q-106 -91 -131 -214q-6 -30 -6 -59 q0 -116 83 -193q73 -68 174 -68q136 0 248 96q107 92 130 217q5 28 5 54zM517 789h-74l23 126h74zM664 789h-74l23 126h74z" glyph-name="Odieresis" horiz-adv-x="869" unicode="Ö"/>
<glyph d="M522 106l-52 -52l-144 144l-144 -144l-52 52l144 144l-144 144l52 52l144 -144l144 144l52 -52l-144 -144z" glyph-name="multiply" horiz-adv-x="606" unicode="×"/>
<glyph d="M867 442q0 -152 -111 -282q-106 -123 -254 -160q-51 -13 -101 -13q-98 0 -177 45q-9 5 -16 10l-118 -125l-48 41l117 124q-86 85 -86 212q0 159 113 290q106 122 255 157q47 11 93 11q116 0 199 -56l117 125l45 -43l-114 -122q86 -85 86 -214zM682 641q-63 43 -158 43 q-135 0 -246 -102q-101 -94 -123 -219q-5 -28 -5 -54q0 -75 28 -123q12 -21 33 -48zM790 426q0 74 -27 123q-11 18 -27 41l-7 10l-470 -503q70 -39 136 -42h15q131 0 242 93t133 223q5 28 5 55z" glyph-name="Oslash" horiz-adv-x="868" unicode="Ø"/>
<glyph d="M601 278q-39 -212 -193 -271q-52 -20 -112 -20q-113 0 -171 75q-36 48 -36 111q0 44 11 105l85 461h74l-85 -461q-9 -48 -9 -90q0 -79 66 -115q34 -18 78 -18q155 0 206 174q7 24 12 49l85 461h74zM529 832l-45 -56l-172 114l46 58z" glyph-name="Ugrave" horiz-adv-x="655" unicode="Ù"/>
<glyph d="M601 278q-39 -212 -193 -271q-52 -20 -112 -20q-113 0 -171 75q-36 48 -36 111q0 44 11 105l85 461h74l-85 -461q-9 -48 -9 -90q0 -79 66 -115q34 -18 78 -18q155 0 206 174q7 24 12 49l85 461h74zM614 890l-214 -114l-24 56l214 116z" glyph-name="Uacute" horiz-adv-x="655" unicode="Ú"/>
<glyph d="M601 278q-39 -212 -193 -271q-52 -20 -112 -20q-113 0 -171 75q-36 48 -36 111q0 44 11 105l85 461h74l-85 -461q-9 -48 -9 -90q0 -79 66 -115q34 -18 78 -18q155 0 206 174q7 24 12 49l85 461h74zM622 789h-89l-72 74l-102 -74h-91l168 126h66z" glyph-name="Ucircumflex" horiz-adv-x="655" unicode="Û"/>
<glyph d="M601 278q-39 -212 -193 -271q-52 -20 -112 -20q-113 0 -171 75q-36 48 -36 111q0 44 11 105l85 461h74l-85 -461q-9 -48 -9 -90q0 -79 66 -115q34 -18 78 -18q155 0 206 174q7 24 12 49l85 461h74zM407 789h-74l23 126h74zM554 789h-74l23 126h74z" glyph-name="Udieresis" horiz-adv-x="655" unicode="Ü"/>
<glyph d="M697 739l-349 -492l-46 -247h-74l46 247l-165 492h82l133 -414l292 414h81zM581 890l-214 -114l-24 56l214 116z" glyph-name="Yacute" horiz-adv-x="592" unicode="Ý"/>
<glyph d="M607 425q0 -109 -64 -186q-7 -8 -14 -15q-60 -60 -175 -70q-30 -2 -65 -2h-141l-28 -152h-74l137 739h74l-27 -147h130q181 0 227 -80q20 -35 20 -87zM530 411q-1 64 -47 92q-37 22 -161 22h-105l-57 -306h137q120 0 169 41q7 6 13 12q45 48 51 126v13z" glyph-name="Thorn" horiz-adv-x="592" unicode="Þ"/>
<glyph d="M535 245q0 -109 -79 -187q-72 -71 -168 -71q-121 0 -160 107q-3 8 -5 15l-20 -109h-74l89 481q45 234 200 266q26 5 55 5q97 0 145 -69q28 -42 28 -95q-1 -132 -115 -199q103 -37 104 -144zM458 230q0 80 -87 104q-32 9 -71 9q-22 0 -43 -2l13 67h15q95 0 149 68 q35 44 35 98q0 71 -56 99q-24 11 -53 11q-101 0 -144 -114q-15 -38 -24 -89l-51 -278h51q-4 -20 -4 -31q0 -72 54 -103q25 -14 56 -14q71 0 121 63q39 51 39 112z" glyph-name="germandbls" unicode="ß"/>
<glyph d="M590 0h-74l18 96q-82 -83 -155 -101q-34 -8 -76 -8q-133 0 -200 88q-45 59 -45 141q0 133 96 234q94 99 225 109q13 1 25 1q127 0 183 -90q7 -10 12 -20l18 97h74zM571 319q0 91 -69 141q-46 32 -105 32q-106 0 -185 -80q-76 -77 -77 -177q0 -101 75 -150q47 -30 108 -30 q100 0 176 80q77 81 77 184zM497 650l-45 -56l-172 114l46 58z" glyph-name="agrave" horiz-adv-x="683" unicode="à"/>
<glyph d="M590 0h-74l18 96q-82 -83 -155 -101q-34 -8 -76 -8q-133 0 -200 88q-45 59 -45 141q0 133 96 234q94 99 225 109q13 1 25 1q127 0 183 -90q7 -10 12 -20l18 97h74zM571 319q0 91 -69 141q-46 32 -105 32q-106 0 -185 -80q-76 -77 -77 -177q0 -101 75 -150q47 -30 108 -30 q100 0 176 80q77 81 77 184zM582 708l-214 -114l-24 56l214 116z" glyph-name="aacute" horiz-adv-x="683" unicode="á"/>
<glyph d="M590 0h-74l18 96q-82 -83 -155 -101q-34 -8 -76 -8q-133 0 -200 88q-45 59 -45 141q0 133 96 234q94 99 225 109q13 1 25 1q127 0 183 -90q7 -10 12 -20l18 97h74zM571 319q0 91 -69 141q-46 32 -105 32q-106 0 -185 -80q-76 -77 -77 -177q0 -101 75 -150q47 -30 108 -30 q100 0 176 80q77 81 77 184zM589 607h-89l-72 74l-102 -74h-91l168 126h66z" glyph-name="acircumflex" horiz-adv-x="683" unicode="â"/>
<glyph d="M590 0h-74l18 96q-82 -83 -155 -101q-34 -8 -76 -8q-133 0 -200 88q-45 59 -45 141q0 133 96 234q94 99 225 109q13 1 25 1q127 0 183 -90q7 -10 12 -20l18 97h74zM571 319q0 91 -69 141q-46 32 -105 32q-106 0 -185 -80q-76 -77 -77 -177q0 -101 75 -150q47 -30 108 -30 q100 0 176 80q77 81 77 184zM563 675q-40 -54 -92 -55q-28 1 -96 33q-7 4 -17 4q-12 0 -43 -22q-6 -5 -15 -11l-23 45q50 50 89 51q12 0 74 -27q23 -10 31 -10q36 1 71 38z" glyph-name="atilde" horiz-adv-x="683" unicode="ã"/>
<glyph d="M590 0h-74l18 96q-82 -83 -155 -101q-34 -8 -76 -8q-133 0 -200 88q-45 59 -45 141q0 133 96 234q94 99 225 109q13 1 25 1q127 0 183 -90q7 -10 12 -20l18 97h74zM571 319q0 91 -69 141q-46 32 -105 32q-106 0 -185 -80q-76 -77 -77 -177q0 -101 75 -150q47 -30 108 -30 q100 0 176 80q77 81 77 184zM374 607h-74l23 126h74zM521 607h-74l23 126h74z" glyph-name="adieresis" horiz-adv-x="683" unicode="ä"/>
<glyph d="M590 0h-74l18 96q-82 -83 -155 -101q-34 -8 -76 -8q-133 0 -200 88q-45 59 -45 141q0 133 96 234q94 99 225 109q13 1 25 1q127 0 183 -90q7 -10 12 -20l18 97h74zM571 319q0 91 -69 141q-46 32 -105 32q-106 0 -185 -80q-76 -77 -77 -177q0 -101 75 -150q47 -30 108 -30 q100 0 176 80q77 81 77 184zM528 694q0 -52 -50 -89q-34 -26 -72 -26q-53 0 -75 43q-8 17 -8 36q0 61 50 99q32 24 70 24q57 0 78 -48q7 -18 7 -39zM487 689q0 31 -30 44q-11 4 -22 4q-37 0 -59 -34q-11 -17 -11 -34q0 -33 31 -43q9 -3 18 -3q36 0 60 33q13 17 13 33z" glyph-name="aring" horiz-adv-x="683" unicode="å"/>
<glyph d="M1132 247h-495q-1 -11 -1 -22q0 -84 68 -134q50 -36 114 -36q91 0 163 64q30 27 48 59h77q-39 -86 -139 -144q-83 -47 -163 -47q-128 1 -200 105l-17 -92h-71l17 92q-103 -105 -233 -105q-131 0 -198 89q-44 60 -44 143q0 121 89 221q91 102 218 118q19 2 37 2 q144 0 198 -108l18 95h71l-18 -95q106 108 235 108q122 0 189 -84q47 -60 47 -143q0 -41 -10 -86zM1073 314q-2 109 -82 155q-42 23 -95 23q-101 0 -178 -74q-46 -46 -65 -104h420zM574 319q0 98 -75 145q-44 28 -103 28q-110 0 -188 -83q-73 -78 -73 -178q0 -95 71 -144 q46 -32 106 -32q105 0 184 81q78 79 78 183z" glyph-name="ae" horiz-adv-x="1157" unicode="æ"/>
<glyph d="M609 161q-106 -145 -235 -168q-29 -5 -59 -6l-18 -35q1 0 34 5q57 0 77 -44q6 -14 6 -31q0 -8 -2 -19q-11 -64 -67 -96q-31 -18 -66 -18q-66 0 -78 71l-2 14l54 6q13 -30 38 -33q36 0 52 35q6 14 6 29q1 34 -31 39q-5 1 -9 1q-29 -1 -51 -19l-28 19l45 78 q-123 12 -181 104q-36 56 -36 129q0 125 95 225q93 98 221 111q17 2 34 2q133 0 201 -90q29 -39 40 -89h-83q-34 88 -126 107q-22 4 -44 4q-105 0 -184 -80q-77 -78 -77 -179q0 -95 73 -145q47 -33 110 -33q75 0 128 36q33 23 80 70h83z" glyph-name="ccedilla" horiz-adv-x="647" unicode="ç"/>
<glyph d="M626 249h-495q-2 -24 -2 -28q0 -81 67 -131q50 -35 112 -35q89 0 164 65q31 28 50 60h77q-63 -116 -179 -167q-62 -26 -125 -26q-115 0 -183 81q-54 64 -54 152q0 128 94 229q91 97 216 110q16 1 30 1q122 0 189 -84q48 -61 48 -144q0 -33 -9 -83zM565 316 q-5 110 -87 154q-41 22 -93 22q-100 0 -177 -77q-42 -43 -62 -99h419zM491 650l-45 -56l-172 114l46 58z" glyph-name="egrave" horiz-adv-x="650" unicode="è"/>
<glyph d="M626 249h-495q-2 -24 -2 -28q0 -81 67 -131q50 -35 112 -35q89 0 164 65q31 28 50 60h77q-63 -116 -179 -167q-62 -26 -125 -26q-115 0 -183 81q-54 64 -54 152q0 128 94 229q91 97 216 110q16 1 30 1q122 0 189 -84q48 -61 48 -144q0 -33 -9 -83zM565 316 q-5 110 -87 154q-41 22 -93 22q-100 0 -177 -77q-42 -43 -62 -99h419zM576 708l-214 -114l-24 56l214 116z" glyph-name="eacute" horiz-adv-x="650" unicode="é"/>
<glyph d="M626 249h-495q-2 -24 -2 -28q0 -81 67 -131q50 -35 112 -35q89 0 164 65q31 28 50 60h77q-63 -116 -179 -167q-62 -26 -125 -26q-115 0 -183 81q-54 64 -54 152q0 128 94 229q91 97 216 110q16 1 30 1q122 0 189 -84q48 -61 48 -144q0 -33 -9 -83zM565 316 q-5 110 -87 154q-41 22 -93 22q-100 0 -177 -77q-42 -43 -62 -99h419zM583 607h-89l-72 74l-102 -74h-91l168 126h66z" glyph-name="ecircumflex" horiz-adv-x="650" unicode="ê"/>
<glyph d="M626 249h-495q-2 -24 -2 -28q0 -81 67 -131q50 -35 112 -35q89 0 164 65q31 28 50 60h77q-63 -116 -179 -167q-62 -26 -125 -26q-115 0 -183 81q-54 64 -54 152q0 128 94 229q91 97 216 110q16 1 30 1q122 0 189 -84q48 -61 48 -144q0 -33 -9 -83zM565 316 q-5 110 -87 154q-41 22 -93 22q-100 0 -177 -77q-42 -43 -62 -99h419zM368 607h-74l23 126h74zM515 607h-74l23 126h74z" glyph-name="edieresis" horiz-adv-x="650" unicode="ë"/>
<glyph d="M107 0h-74l101 547h74zM262 650l-45 -56l-172 114l46 58z" glyph-name="igrave" horiz-adv-x="200" unicode="ì"/>
<glyph d="M107 0h-74l101 547h74zM356 708l-214 -114l-24 56l214 116z" glyph-name="iacute" horiz-adv-x="200" unicode="í"/>
<glyph d="M107 0h-74l101 547h74zM359 607h-89l-72 74l-102 -74h-91l168 126h66z" glyph-name="icircumflex" horiz-adv-x="200" unicode="î"/>
<glyph d="M107 0h-74l101 547h74zM144 607h-74l23 126h74zM291 607h-74l23 126h74z" glyph-name="idieresis" horiz-adv-x="200" unicode="ï"/>
<glyph d="M643 346q0 -147 -97 -251q-95 -102 -231 -108h-13q-136 0 -202 91q-43 60 -43 142q0 128 93 227q90 97 215 109q14 1 27 1q45 0 91 -17l-74 92l-95 -40l-28 45l86 37l-46 45l55 37q14 -11 28 -25l30 -30l100 40l29 -45l-93 -37q167 -173 168 -313zM566 319q0 96 -71 144 q-43 29 -100 29q-110 0 -188 -82q-73 -77 -73 -181q0 -103 79 -149q44 -25 102 -25q108 0 182 83q69 77 69 181z" glyph-name="eth" horiz-adv-x="655" unicode="ð"/>
<glyph d="M515 0h-74l53 287q8 45 8 74q0 85 -70 117q-31 14 -69 14q-136 0 -185 -134q-9 -27 -15 -57l-56 -301h-74l101 547h74l-13 -71q88 84 188 84q118 0 169 -81q27 -43 27 -100q0 -36 -11 -92zM537 675q-40 -54 -92 -55q-28 1 -96 33q-7 4 -17 4q-12 0 -43 -22q-6 -5 -15 -11 l-23 45q50 50 89 51q12 0 74 -27q23 -10 31 -10q36 1 71 38z" glyph-name="ntilde" horiz-adv-x="610" unicode="ñ"/>
<glyph d="M639 332q0 -134 -96 -236q-90 -96 -212 -108q-15 -1 -28 -1q-128 0 -197 84q-49 61 -49 144q0 136 99 237q94 97 223 107q14 1 26 1q124 0 190 -86q44 -60 44 -142zM562 325q0 88 -68 136q-44 31 -102 31q-108 0 -185 -82q-73 -78 -73 -182q0 -97 74 -145q45 -28 105 -28 q109 0 183 85q66 78 66 185zM498 650l-45 -56l-172 114l46 58z" glyph-name="ograve" horiz-adv-x="655" unicode="ò"/>
<glyph d="M639 332q0 -134 -96 -236q-90 -96 -212 -108q-15 -1 -28 -1q-128 0 -197 84q-49 61 -49 144q0 136 99 237q94 97 223 107q14 1 26 1q124 0 190 -86q44 -60 44 -142zM562 325q0 88 -68 136q-44 31 -102 31q-108 0 -185 -82q-73 -78 -73 -182q0 -97 74 -145q45 -28 105 -28 q109 0 183 85q66 78 66 185zM583 708l-214 -114l-24 56l214 116z" glyph-name="oacute" horiz-adv-x="655" unicode="ó"/>
<glyph d="M639 332q0 -134 -96 -236q-90 -96 -212 -108q-15 -1 -28 -1q-128 0 -197 84q-49 61 -49 144q0 136 99 237q94 97 223 107q14 1 26 1q124 0 190 -86q44 -60 44 -142zM562 325q0 88 -68 136q-44 31 -102 31q-108 0 -185 -82q-73 -78 -73 -182q0 -97 74 -145q45 -28 105 -28 q109 0 183 85q66 78 66 185zM590 607h-89l-72 74l-102 -74h-91l168 126h66z" glyph-name="ocircumflex" horiz-adv-x="655" unicode="ô"/>
<glyph d="M639 332q0 -134 -96 -236q-90 -96 -212 -108q-15 -1 -28 -1q-128 0 -197 84q-49 61 -49 144q0 136 99 237q94 97 223 107q14 1 26 1q124 0 190 -86q44 -60 44 -142zM562 325q0 88 -68 136q-44 31 -102 31q-108 0 -185 -82q-73 -78 -73 -182q0 -97 74 -145q45 -28 105 -28 q109 0 183 85q66 78 66 185zM564 675q-40 -54 -92 -55q-28 1 -96 33q-7 4 -17 4q-12 0 -43 -22q-6 -5 -15 -11l-23 45q50 50 89 51q12 0 74 -27q23 -10 31 -10q36 1 71 38z" glyph-name="otilde" horiz-adv-x="655" unicode="õ"/>
<glyph d="M639 332q0 -134 -96 -236q-90 -96 -212 -108q-15 -1 -28 -1q-128 0 -197 84q-49 61 -49 144q0 136 99 237q94 97 223 107q14 1 26 1q124 0 190 -86q44 -60 44 -142zM562 325q0 88 -68 136q-44 31 -102 31q-108 0 -185 -82q-73 -78 -73 -182q0 -97 74 -145q45 -28 105 -28 q109 0 183 85q66 78 66 185zM375 607h-74l23 126h74zM522 607h-74l23 126h74z" glyph-name="odieresis" horiz-adv-x="655" unicode="ö"/>
<glyph d="M566 213h-480v74h480v-74zM389 435q0 -39 -35 -57q-14 -6 -28 -6q-39 0 -57 35q-6 14 -6 28q0 39 35 57q14 6 28 6q39 0 57 -35q6 -14 6 -28zM389 65q0 -39 -35 -57q-14 -6 -28 -6q-39 0 -57 35q-6 14 -6 28q0 39 35 57q14 6 28 6q39 0 57 -35q6 -14 6 -28z" glyph-name="divide" horiz-adv-x="606" unicode="÷"/>
<glyph d="M639 340q0 -139 -95 -242q-93 -101 -223 -110q-11 -1 -22 -1q-82 1 -145 41l-63 -66l-45 40l62 66q-45 66 -48 126q-1 10 -1 20q0 134 101 237q90 92 206 107q18 2 34 2q84 -1 141 -41l70 74l46 -42l-70 -73q52 -56 52 -138zM491 468q-46 24 -96 24q-99 0 -178 -80 q-79 -85 -81 -187q0 -55 23 -104zM562 336q-1 46 -25 90l-334 -347q54 -22 78 -24h18q120 0 196 90q67 79 67 191z" glyph-name="oslash" horiz-adv-x="653" unicode="ø"/>
<glyph d="M616 547l-102 -547h-74l16 85q-62 -81 -148 -95q-22 -3 -48 -3q-116 0 -166 76q-25 40 -25 92q0 47 9 97l55 295h74l-55 -295q-6 -26 -6 -67q0 -110 98 -127q18 -3 36 -3q138 0 191 144q11 31 18 67l53 281h74zM470 650l-45 -56l-172 114l46 58z" glyph-name="ugrave" horiz-adv-x="608" unicode="ù"/>
<glyph d="M616 547l-102 -547h-74l16 85q-62 -81 -148 -95q-22 -3 -48 -3q-116 0 -166 76q-25 40 -25 92q0 47 9 97l55 295h74l-55 -295q-6 -26 -6 -67q0 -110 98 -127q18 -3 36 -3q138 0 191 144q11 31 18 67l53 281h74zM555 708l-214 -114l-24 56l214 116z" glyph-name="uacute" horiz-adv-x="608" unicode="ú"/>
<glyph d="M616 547l-102 -547h-74l16 85q-62 -81 -148 -95q-22 -3 -48 -3q-116 0 -166 76q-25 40 -25 92q0 47 9 97l55 295h74l-55 -295q-6 -26 -6 -67q0 -110 98 -127q18 -3 36 -3q138 0 191 144q11 31 18 67l53 281h74zM562 607h-89l-72 74l-102 -74h-91l168 126h66z" glyph-name="ucircumflex" horiz-adv-x="608" unicode="û"/>
<glyph d="M616 547l-102 -547h-74l16 85q-62 -81 -148 -95q-22 -3 -48 -3q-116 0 -166 76q-25 40 -25 92q0 47 9 97l55 295h74l-55 -295q-6 -26 -6 -67q0 -110 98 -127q18 -3 36 -3q138 0 191 144q11 31 18 67l53 281h74zM347 607h-74l23 126h74zM494 607h-74l23 126h74z" glyph-name="udieresis" horiz-adv-x="608" unicode="ü"/>
<glyph d="M598 547l-453 -739h-78l127 210l-114 529h81l92 -436l266 436h79zM521 708l-214 -114l-24 56l214 116z" glyph-name="yacute" horiz-adv-x="536" unicode="ý"/>
<glyph d="M665 325q0 -124 -93 -224q-92 -98 -217 -112q-18 -2 -35 -2q-140 1 -196 107l-53 -286h-74l173 931h74l-53 -286q60 79 171 101q32 6 63 6q129 0 195 -89q45 -61 45 -146zM588 317q0 93 -71 143q-47 32 -109 32q-95 0 -173 -70q-87 -81 -88 -195q0 -87 68 -137 q48 -35 110 -35q100 0 179 73q83 79 84 189z" glyph-name="thorn" horiz-adv-x="682" unicode="þ"/>
</font>
</defs>
</svg>
