<?xml version="1.0" encoding="UTF-8"?>
<!DOCTYPE svg  PUBLIC '-//W3C//DTD SVG 1.1//EN'  'http://www.w3.org/Graphics/SVG/1.1/DTD/svg11.dtd'>
<svg version="1.1" xmlns="http://www.w3.org/2000/svg">
<defs>
<font id="TeXGyreAdventor-Bold" horiz-adv-x="560">
<font-face font-family="TeXGyreAdventor" font-weight="700" ascent="815" bbox="-78 -250 1051 1001" cap-height="739" descent="-185" panose-1="0 0 8 0 0 0 0 0 0 0" underline-position="-93" underline-thickness="90" unicode-range="U+0020-00FE" units-per-em="1000" x-height="554"/>
<missing-glyph/>
<glyph glyph-name="space" horiz-adv-x="280" unicode=" "/>
<glyph d="M205 188h-133v551h133v-551zM205 0h-133v128h133v-128z" glyph-name="exclam" horiz-adv-x="280" unicode="!"/>
<glyph d="M283 513h-76v226h76v-226zM150 513h-76v226h76v-226z" glyph-name="quotedbl" horiz-adv-x="360" unicode='"'/>
<glyph d="M526 422h-103l-12 -89h89v-100h-102l-32 -233h-90l32 233h-87l-31 -233h-91l32 233h-97v100h110l12 89h-96v99h110l29 218h90l-29 -218h87l29 218h90l-29 -218h89v-99zM333 422h-86l-13 -89h87z" glyph-name="numbersign" unicode="#"/>
<glyph d="M494 251q0 -122 -89 -180q-27 -16 -58 -25v-132h-127v132q-102 28 -142 111q-19 38 -19 79v13h134q4 -61 52 -80q15 -6 32 -6q51 0 74 43q10 19 10 40q-1 45 -39 70q-1 1 -2 1q-20 12 -101 43h-1l-1 1q-128 48 -129 180q0 108 75 158q26 17 57 24v133h127v-133 q64 -12 100 -82q22 -42 24 -90h-126q-14 61 -65 62q-39 0 -54 -37q-5 -13 -5 -27q0 -38 25 -58q24 -18 89 -42q107 -37 138 -93q21 -39 21 -105z" glyph-name="dollar" unicode="$"/>
<glyph d="M631 739l-306 -739h-102l305 739h103zM835 168q0 -86 -66 -140q-51 -41 -115 -41q-85 0 -140 66q-41 50 -41 114q0 88 68 142q50 39 114 39q83 0 138 -66q42 -51 42 -114zM728 168q0 42 -38 64q-17 10 -36 10q-42 0 -63 -37q-10 -18 -10 -37q0 -44 39 -65q16 -9 34 -9 q42 0 64 38q10 17 10 36zM383 572q0 -86 -66 -140q-51 -41 -115 -41q-85 0 -140 66q-41 50 -41 114q0 88 68 142q50 39 114 39q83 0 138 -66q42 -51 42 -114zM276 572q0 42 -38 64q-17 10 -36 10q-42 0 -63 -37q-10 -18 -10 -37q0 -44 39 -65q16 -9 34 -9q42 0 64 38 q10 17 10 36z" glyph-name="percent" horiz-adv-x="860" unicode="%"/>
<glyph d="M664 73l-95 -86l-105 111q-62 -82 -120 -101q-30 -10 -68 -10q-110 0 -181 79q-60 67 -60 157q0 109 94 181q20 15 44 29q-51 58 -59 101q-3 16 -3 35q0 90 69 144q51 39 118 39q96 0 151 -69q39 -49 39 -113q0 -78 -47 -127q-25 -26 -69 -54l67 -75l72 119h149 l-128 -219zM361 566q0 44 -38 57q-11 4 -23 4q-40 0 -56 -34q-6 -13 -6 -26q0 -34 40 -75q5 -6 11 -11q57 30 67 56q5 13 5 29zM372 198l-115 124q-82 -37 -88 -94q-1 -7 -1 -13q0 -57 49 -84q23 -12 51 -12q48 0 81 43q11 15 23 36z" glyph-name="ampersand" horiz-adv-x="680" unicode="&amp;"/>
<glyph d="M150 513h-76v226h76v-226z" glyph-name="quotesingle" horiz-adv-x="220" unicode="'"/>
<glyph d="M349 -137q-126 44 -205 180q-70 121 -70 257q0 183 110 316q69 83 165 123v-144q-131 -101 -140 -274v-21q0 -121 67 -219q33 -47 73 -73v-145z" glyph-name="parenleft" horiz-adv-x="380" unicode="("/>
<glyph d="M312 302q0 -183 -110 -316q-69 -83 -165 -123v144q131 101 140 274v21q0 121 -67 219q-33 47 -73 73v145q125 -44 204 -179q71 -122 71 -258z" glyph-name="parenright" horiz-adv-x="380" unicode=")"/>
<glyph d="M371 554l-97 5l53 -80l-57 -38l-47 88l-43 -88l-64 31l52 89l-98 -7v71l99 -5l-53 86l63 32l44 -86l46 87l59 -36l-54 -83l97 6v-72z" glyph-name="asterisk" horiz-adv-x="440" unicode="*"/>
<glyph d="M546 181h-177v-177h-138v177h-177v138h177v177h138v-177h177v-138z" glyph-name="plus" horiz-adv-x="600" unicode="+"/>
<glyph d="M205 -7q0 -89 -68 -120q-29 -13 -65 -13v67q53 10 58 45q1 6 1 11q0 11 -1 17h-58v128h133v-135z" glyph-name="comma" horiz-adv-x="280" unicode=","/>
<glyph d="M351 229h-277v118h277v-118z" glyph-name="hyphen" horiz-adv-x="420" unicode="-"/>
<glyph d="M205 0h-133v128h133v-128z" glyph-name="period" horiz-adv-x="280" unicode="."/>
<glyph d="M443 739l-323 -867h-94l323 867h94z" glyph-name="slash" horiz-adv-x="460" unicode="/"/>
<glyph d="M525 247q0 -158 -105 -224q-58 -36 -136 -36q-145 0 -212 102q-42 65 -42 158v251q0 145 99 213q62 41 149 41q136 0 203 -95q44 -63 44 -152v-258zM392 248v250q0 108 -80 128q-16 4 -33 4q-80 0 -107 -72q-9 -27 -9 -60v-247q0 -126 94 -140q12 -2 23 -2q111 2 112 139 z" glyph-name="zero" unicode="0"/>
<glyph d="M379 0h-133v614h-93v125h226v-739z" glyph-name="one" unicode="1"/>
<glyph d="M520 512q0 -85 -50 -152q-32 -43 -93 -98l-151 -137h291v-125h-478v117l263 249q81 85 85 148q0 67 -51 100q-26 16 -56 16q-70 0 -100 -67q-15 -35 -15 -79h-131q0 153 100 224q61 44 145 44q113 0 184 -82q57 -67 57 -158z" glyph-name="two" unicode="2"/>
<glyph d="M518 235q0 -119 -85 -191q-68 -57 -163 -57q-124 0 -197 87q-53 63 -58 150h134q10 -78 71 -105q23 -10 49 -10q66 0 99 56q17 30 17 67q0 77 -69 109q-33 15 -76 15h-22v128q94 2 110 47q4 13 4 29q0 48 -38 65q-13 5 -27 5q-53 0 -62 -65v-2h-135q10 123 103 169 q42 20 93 20q99 0 157 -73q42 -54 42 -126q-1 -82 -62 -127q114 -53 115 -191z" glyph-name="three" unicode="3"/>
<glyph d="M530 111h-78v-111h-133v111h-319v108l340 520h112v-509h78v-119zM319 230v285l-184 -285h184z" glyph-name="four" unicode="4"/>
<glyph d="M520 247q0 -121 -84 -197q-70 -63 -167 -63q-109 0 -185 75q-67 67 -72 159h133q17 -96 96 -110q12 -2 24 -2q71 0 105 62q17 33 17 74q0 73 -54 111q-30 21 -66 21q-54 0 -94 -45q-5 -6 -9 -11l-118 32l69 386h334v-125h-234l-24 -136q51 21 95 21q112 0 180 -86 q54 -70 54 -166z" glyph-name="five" unicode="5"/>
<glyph d="M533 252q0 -129 -87 -205q-69 -60 -166 -60q-122 0 -197 85q-62 71 -62 170q0 87 55 178q8 14 18 29l193 290h159l-177 -263q31 10 60 10q100 0 159 -82q45 -64 45 -152zM400 239q0 75 -55 111q-30 20 -67 20q-75 0 -108 -62q-16 -31 -16 -69q0 -75 57 -111 q31 -19 69 -19q72 0 104 61q16 31 16 69z" glyph-name="six" unicode="6"/>
<glyph d="M500 614l-270 -614h-150l280 614h-295v125h435v-125z" glyph-name="seven" unicode="7"/>
<glyph d="M523 232q0 -116 -83 -187q-68 -58 -162 -58q-113 0 -186 81q-61 69 -61 163q0 118 101 177q3 2 5 3q-53 57 -60 112q-1 13 -1 26q0 95 72 156q57 47 131 47q101 0 160 -74q42 -55 42 -127q-1 -90 -62 -140q87 -52 101 -135q3 -21 3 -44zM354 550q0 48 -39 71q-17 9 -35 9 q-47 0 -68 -42q-9 -19 -9 -39q0 -46 38 -70q18 -10 38 -10q43 0 65 40q10 20 10 41zM390 225q0 62 -50 97q-28 19 -61 19q-63 0 -96 -51q-19 -30 -19 -64q0 -64 51 -98q29 -19 64 -19q62 0 94 52q17 29 17 64z" glyph-name="eight" unicode="8"/>
<glyph d="M532 496q0 -88 -55 -178l-18 -28l-193 -290h-159l178 263q-33 -12 -60 -12q-95 0 -154 80q-49 66 -49 156q0 130 87 206q69 59 164 59q122 0 197 -85q62 -72 62 -171zM399 500q0 75 -57 111q-31 19 -69 19q-70 0 -102 -60q-16 -32 -16 -70q0 -76 56 -112q29 -19 65 -19 q73 0 106 61q17 31 17 70z" glyph-name="nine" unicode="9"/>
<glyph d="M205 0h-133v128h133v-128zM205 369h-133v133h133v-133z" glyph-name="colon" horiz-adv-x="280" unicode=":"/>
<glyph d="M205 -7q0 -87 -68 -120q-29 -13 -65 -13v67q53 10 58 45q1 6 1 11v17h-59v128h133v-135zM205 369h-133v133h133v-133z" glyph-name="semicolon" horiz-adv-x="280" unicode=";"/>
<glyph d="M492 -142l-427 338v108l427 338v-176l-273 -216l273 -216v-176z" glyph-name="less" horiz-adv-x="600" unicode="&lt;"/>
<glyph d="M546 273h-492v138h492v-138zM546 89h-492v138h492v-138z" glyph-name="equal" horiz-adv-x="600" unicode="="/>
<glyph d="M492 196l-427 -338v176l273 216l-273 216v176l427 -338v-108z" glyph-name="greater" horiz-adv-x="600" unicode="&gt;"/>
<glyph d="M485 523q0 -71 -51 -129q-20 -23 -51 -50q-46 -40 -56 -74q-8 -27 -9 -83h-133q0 106 33 161q26 42 89 94q44 38 45 85q0 57 -48 82q-22 11 -47 11q-75 0 -90 -90l-2 -10h-133q11 148 117 205q50 27 111 27q108 0 173 -79q52 -64 52 -150zM318 0h-133v128h133v-128z" glyph-name="question" unicode="?"/>
<glyph d="M745 397q0 -130 -82 -198q-55 -45 -129 -45q-80 0 -99 54q-38 -54 -113 -54q-98 0 -141 82q-24 47 -24 109q0 114 74 182q55 50 128 50q64 0 102 -39q8 -9 16 -19l7 54h96l-33 -295q-1 -6 -1 -15q2 -25 27 -26q44 0 75 63q24 51 24 113q0 141 -97 220q-76 61 -185 61 q-143 0 -234 -99q-82 -90 -82 -221q0 -135 92 -225q92 -89 235 -89q87 1 149 47l46 -60q-80 -59 -197 -60q-170 0 -282 110q-112 114 -114 280q0 163 107 274q106 110 265 115h13q172 0 271 -114q86 -100 86 -255zM455 374q0 69 -49 87q-13 4 -27 4q-54 0 -85 -49 q-17 -28 -17 -61q0 -70 49 -90q14 -5 29 -5q59 0 86 53q14 28 14 61z" glyph-name="at" horiz-adv-x="740" unicode="@"/>
<glyph d="M733 0h-151l-79 191h-263l-82 -191h-151l308 739h108zM448 322l-79 224l-79 -224h158z" glyph-name="A" horiz-adv-x="740" unicode="A"/>
<glyph d="M548 220q0 -148 -138 -198q-62 -22 -145 -22h-197v739h152q127 0 177 -23q12 -6 23 -13q79 -50 84 -150v-11q0 -81 -54 -121q-13 -10 -28 -18q98 -41 119 -120q7 -28 7 -63zM410 223q-10 94 -140 97h-65v-189h68q116 0 133 63q4 13 4 29zM367 530q-2 74 -106 75h-56v-151 h44q103 0 116 55q2 10 2 21z" glyph-name="B" horiz-adv-x="580" unicode="B"/>
<glyph d="M760 206q-54 -126 -179 -184q-76 -35 -162 -35q-155 0 -267 105q-110 102 -121 251q-1 15 -1 29q0 149 102 258q100 108 245 121q17 1 33 1q162 0 272 -111q48 -49 78 -114h-153q-65 84 -167 92q-14 1 -27 1q-115 0 -186 -84q-59 -70 -59 -165q0 -109 80 -184 q72 -68 168 -68q88 0 158 62q13 12 25 25h161z" glyph-name="C" horiz-adv-x="780" unicode="C"/>
<glyph d="M660 368q0 -169 -101 -270q-36 -35 -80 -57q-80 -40 -227 -41h-12h-172v739h169q174 0 262 -53q122 -73 152 -228q9 -44 9 -90zM522 368q0 117 -74 183q-19 16 -39 27q-61 30 -177 30h-27v-477h30q121 0 180 33q76 41 99 138q8 33 8 66z" glyph-name="D" horiz-adv-x="700" unicode="D"/>
<glyph d="M465 0h-397v739h397v-131h-260v-174h249v-131h-249v-172h260v-131z" glyph-name="E" horiz-adv-x="520" unicode="E"/>
<glyph d="M444 608h-239v-174h228v-131h-228v-303h-137v739h376v-131z" glyph-name="F" horiz-adv-x="480" unicode="F"/>
<glyph d="M818 359q0 -144 -101 -251q-103 -109 -255 -120q-16 -1 -30 -1q-166 0 -281 106q-112 103 -120 257q-1 11 -1 21q0 152 105 262q105 108 257 118q14 1 27 1q142 0 253 -86q78 -62 108 -144h-161q-71 97 -203 98q-119 0 -191 -87q-57 -70 -57 -164q0 -114 84 -187 q72 -63 172 -63q122 0 191 88q15 20 26 42h-306v128h483v-18z" glyph-name="G" horiz-adv-x="840" unicode="G"/>
<glyph d="M606 0h-137v310h-264v-310h-137v739h137v-298h264v298h137v-739z" glyph-name="H" horiz-adv-x="680" unicode="H"/>
<glyph d="M205 0h-137v739h137v-739z" glyph-name="I" horiz-adv-x="280" unicode="I"/>
<glyph d="M414 212q0 -139 -91 -196q-47 -29 -109 -29q-116 0 -171 85q-28 44 -34 103h137q15 -55 65 -56q65 2 66 97v523h137v-527z" glyph-name="J" horiz-adv-x="480" unicode="J"/>
<glyph d="M599 0h-165l-229 325v-325h-137v739h137v-319l229 319h165l-278 -363z" glyph-name="K" horiz-adv-x="620" unicode="K"/>
<glyph d="M431 0h-363v739h137v-608h226v-131z" glyph-name="L" horiz-adv-x="440" unicode="L"/>
<glyph d="M840 0h-137v554l-193 -554h-112l-193 554v-554h-137v739h188l199 -560l197 560h188v-739z" glyph-name="M" horiz-adv-x="900" unicode="M"/>
<glyph d="M667 0h-153l-309 537v-537h-137v739h156l306 -538v538h137v-739z" glyph-name="N" horiz-adv-x="740" unicode="N"/>
<glyph d="M800 370q0 -158 -105 -268q-104 -108 -259 -115h-17q-157 0 -269 104q-109 102 -119 252q-1 13 -1 26q0 158 107 267t265 116h18q152 0 261 -104q108 -103 118 -251q1 -14 1 -27zM662 368q0 116 -81 190q-70 62 -163 62q-116 0 -189 -84q-61 -70 -61 -167q0 -112 81 -186 q72 -64 169 -64q115 0 186 84q58 69 58 165z" glyph-name="O" horiz-adv-x="840" unicode="O"/>
<glyph d="M540 511q0 -108 -66 -173q-15 -14 -31 -24q-49 -30 -153 -33h-41h-44v-281h-137v739h183q125 0 180 -29q5 -3 9 -5q90 -55 99 -171q1 -12 1 -23zM402 509q0 69 -57 88q-33 11 -94 11h-46v-196h40q124 0 149 52q8 19 8 45z" glyph-name="P" unicode="P"/>
<glyph d="M828 -14q-8 -1 -26 -1q-70 0 -136 40q-15 9 -31 20q-79 -55 -194 -58h-11q-161 0 -276 104q-111 102 -123 250q-1 15 -1 29q0 156 107 265t267 117h20q167 0 278 -109q111 -114 113 -277q-1 -145 -89 -237q44 -22 68 -22q14 0 34 3v-124zM519 138q-116 93 -226 97h-11 q-30 0 -71 -8q83 -108 219 -108q48 0 89 19zM677 364q0 121 -86 195q-71 61 -169 61q-118 0 -193 -83q-62 -71 -62 -168q0 -18 2 -35q50 13 114 13q145 0 274 -92q33 -24 60 -51q60 62 60 160z" glyph-name="Q" horiz-adv-x="840" unicode="Q"/>
<glyph d="M568 0h-169l-194 283v-283h-137v739h213q120 0 177 -37q13 -8 25 -18q78 -67 78 -182q-2 -181 -193 -229zM423 498q0 71 -54 94q-37 16 -103 16h-61v-222h67q123 0 145 69q6 20 6 43z" glyph-name="R" horiz-adv-x="580" unicode="R"/>
<glyph d="M493 224q0 -110 -80 -180q-66 -57 -156 -57q-122 0 -191 86q-45 57 -52 138h143q11 -91 100 -92q65 0 90 48q10 20 10 42q-1 49 -34 75q-16 12 -37 21.5t-90 35.5h-1q-130 49 -151 162q-3 19 -3 39q0 97 75 160q61 50 140 50q111 0 173 -79q42 -55 46 -131h-142 q-6 70 -66 77q-6 1 -12 1q-52 0 -70 -43q-6 -15 -6 -32q1 -41 41 -67q11 -7 79 -32h1l2 -1q139 -52 174 -130q17 -38 17 -91z" glyph-name="S" horiz-adv-x="520" unicode="S"/>
<glyph d="M418 608h-137v-608h-137v608h-137v131h411v-131z" glyph-name="T" horiz-adv-x="420" unicode="T"/>
<glyph d="M567 271q0 -181 -116 -250q-58 -34 -134 -34q-140 0 -206 107q-43 71 -43 177v468h137v-468q0 -134 84 -150q14 -2 29 -2q91 0 108 96q4 25 4 56v468h137v-468z" glyph-name="U" horiz-adv-x="640" unicode="U"/>
<glyph d="M694 739l-286 -739h-112l-288 739h144l199 -562l199 562h144z" glyph-name="V" horiz-adv-x="700" unicode="V"/>
<glyph d="M898 739l-216 -739h-109l-119 489l-122 -489h-108l-217 739h140l130 -516l126 516h100l124 -516l131 516h140z" glyph-name="W" horiz-adv-x="900" unicode="W"/>
<glyph d="M676 0h-159l-177 255l-172 -255h-163l254 368l-254 371h163l172 -258l177 258h159l-256 -371z" glyph-name="X" horiz-adv-x="680" unicode="X"/>
<glyph d="M626 739l-243 -466v-273h-137v273l-243 466h148l164 -340l163 340h148z" glyph-name="Y" horiz-adv-x="620" unicode="Y"/>
<glyph d="M480 0h-462v116l280 492h-265v131h428v-123l-278 -485h297v-131z" glyph-name="Z" horiz-adv-x="500" unicode="Z"/>
<glyph d="M292 -137q-217 51 -218 324v259q0 173 115 248q43 27 103 45v-147q-63 -27 -76 -89q-7 -31 -7 -84v-255q0 -100 49 -136q15 -11 34 -18v-147z" glyph-name="bracketleft" horiz-adv-x="320" unicode="["/>
<glyph d="M503 0h-94l-325 739h94z" glyph-name="backslash" horiz-adv-x="640" unicode="\"/>
<glyph d="M255 156q0 -175 -120 -250q-42 -26 -98 -43v147q63 26 77 90q6 31 6 83v255q0 93 -43 130q-17 15 -40 24v147q217 -51 218 -324v-259z" glyph-name="bracketright" horiz-adv-x="320" unicode="]"/>
<glyph d="M543 363l-104 -50l-136 276l-136 -276l-104 50l179 376h122z" glyph-name="asciicircum" horiz-adv-x="600" unicode="^"/>
<glyph d="M500 -138h-500v90h500v-90z" glyph-name="underscore" horiz-adv-x="500" unicode="_"/>
<glyph d="M303 682l-51 -78l-227 120l54 92z" glyph-name="grave" horiz-adv-x="420" unicode="`"/>
<glyph d="M615 0h-122v72q-66 -75 -154 -84q-15 -1 -30 -1q-131 0 -211 93q-68 81 -68 195q0 138 92 222q78 70 190 70q109 0 173 -76q4 -6 8 -11v74h122v-554zM489 273q0 95 -68 143q-41 29 -95 29q-88 0 -133 -70q-29 -45 -29 -103q0 -93 70 -137q41 -26 94 -26q96 0 139 75 q22 40 22 89z" glyph-name="a" horiz-adv-x="660" unicode="a"/>
<glyph d="M638 281q0 -136 -88 -221q-75 -73 -182 -73q-97 0 -162 55q-15 13 -30 29v-71h-122v739h133v-236q64 64 148 70q12 1 24 1q126 0 207 -92q72 -83 72 -201zM504 280q0 91 -66 141q-43 31 -98 31q-86 0 -131 -68q-30 -45 -30 -103q0 -95 68 -143q42 -29 96 -29q90 0 134 71 q27 44 27 100z" glyph-name="b" horiz-adv-x="660" unicode="b"/>
<glyph d="M601 182q-50 -136 -174 -179q-48 -16 -101 -16q-126 0 -213 88q-83 85 -83 202q0 127 90 211q84 79 202 79q134 0 218 -93q41 -45 61 -105h-150q-41 75 -129 76q-86 0 -130 -69q-28 -43 -28 -98q0 -89 65 -138q42 -31 96 -31q77 0 124 69q1 3 2 4h150z" glyph-name="c" horiz-adv-x="640" unicode="c"/>
<glyph d="M613 0h-122v72q-71 -80 -168 -85h-15q-122 0 -203 90q-75 84 -75 201q0 130 87 217q79 79 190 79q104 0 167 -62q3 -4 6 -7v234h133v-739zM490 280q0 88 -65 138q-44 34 -99 34q-81 0 -129 -65q-33 -45 -33 -103q0 -87 63 -139q45 -36 102 -36q79 0 127 65q34 47 34 106z " glyph-name="d" horiz-adv-x="660" unicode="d"/>
<glyph d="M608 269q0 -28 -5 -51h-429q18 -74 92 -99q29 -10 61 -10q68 0 110 42q7 7 12 13h145q-33 -102 -138 -149q-60 -28 -126 -28q-132 0 -220 90q-80 82 -80 198q0 126 89 211q85 81 203 81q132 0 214 -94q72 -84 72 -204zM477 335q-23 98 -128 109q-13 1 -25 1 q-115 0 -150 -99q-2 -6 -4 -11h307z" glyph-name="e" horiz-adv-x="640" unicode="e"/>
<glyph d="M274 611h-13q-53 0 -65 -32q-4 -14 -5 -35h75v-111h-75v-433h-133v433h-48v111h48q21 194 183 195q18 0 33 -2v-126z" glyph-name="f" horiz-adv-x="280" unicode="f"/>
<glyph d="M611 105q-2 -325 -287 -326q-159 0 -244 106q-25 32 -41 70h151q48 -53 115 -58q12 -1 24 -1q147 0 155 175v2q-64 -75 -148 -84q-16 -2 -34 -2q-128 0 -206 95q-66 82 -66 199q0 133 89 216q77 70 184 70q120 -1 181 -83v70h127v-449zM478 275q0 98 -70 144 q-39 26 -90 26q-91 0 -132 -75q-22 -41 -22 -95q0 -103 74 -146q36 -20 82 -20q94 0 136 74q22 40 22 92z" glyph-name="g" horiz-adv-x="660" unicode="g"/>
<glyph d="M545 0h-133v283q0 123 -54 151q-22 11 -54 11q-87 0 -109 -84q-8 -33 -8 -80v-281h-133v739h133v-223q59 52 141 52q216 -2 217 -255v-313z" glyph-name="h" horiz-adv-x="600" unicode="h"/>
<glyph d="M187 0h-133v554h133v-554zM188 634h-133v133h133v-133z" glyph-name="i" horiz-adv-x="240" unicode="i"/>
<glyph d="M205 37q0 -161 -108 -207q-36 -15 -80 -15v129q39 7 47 24t8 72v514h133v-517zM206 634h-133v133h133v-133z" glyph-name="j" horiz-adv-x="260" unicode="j"/>
<glyph d="M555 0h-179l-189 259v-259h-133v739h133v-446l177 261h159l-198 -271z" glyph-name="k" horiz-adv-x="580" unicode="k"/>
<glyph d="M187 0h-133v739h133v-739z" glyph-name="l" horiz-adv-x="240" unicode="l"/>
<glyph d="M885 0h-133v304q0 122 -74 138q-14 3 -30 3q-76 0 -99 -67q-13 -39 -13 -105v-273h-133v304q0 113 -62 134q-20 7 -46 7q-70 0 -93 -56q-15 -40 -15 -116v-273h-133v554h122v-52q48 57 117 64q13 1 27 1q101 0 154 -72q5 -7 9 -14q68 84 178 86q223 -2 224 -247v-320z " glyph-name="m" horiz-adv-x="940" unicode="m"/>
<glyph d="M546 0h-133v271q0 135 -52 163q-21 11 -54 11q-65 -1 -98 -51q-21 -34 -22 -120v-13v-261h-133v554h123v-53q64 61 139 66h17q118 -1 173 -80q35 -51 39 -147q1 -20 1 -43v-297z" glyph-name="n" horiz-adv-x="600" unicode="n"/>
<glyph d="M619 273q0 -117 -88 -202q-87 -84 -207 -84q-123 0 -210 87q-84 85 -84 203q0 121 88 206q86 84 205 84q130 0 216 -91q80 -84 80 -203zM485 277q0 81 -61 132q-45 36 -100 36q-75 0 -124 -61q-36 -47 -36 -105q0 -85 63 -136q44 -34 98 -34q77 0 125 63q35 46 35 105z " glyph-name="o" horiz-adv-x="640" unicode="o"/>
<glyph d="M634 279q0 -136 -90 -220q-77 -72 -187 -72q-98 1 -170 65v-237h-133v739h122v-65q68 78 182 78q130 0 209 -93q67 -81 67 -195zM500 276q0 87 -64 137q-42 32 -95 32q-83 0 -130 -66q-32 -44 -32 -101q0 -88 65 -137q43 -32 99 -32q79 0 125 65q32 45 32 102z" glyph-name="p" horiz-adv-x="660" unicode="p"/>
<glyph d="M611 -185h-133v238q-67 -66 -167 -66q-124 0 -206 91q-75 83 -75 201q0 125 87 209q81 79 192 79q118 -1 180 -84v71h122v-739zM486 275q0 89 -64 138q-41 32 -94 32q-86 0 -133 -67q-31 -45 -31 -102q0 -89 66 -137q43 -30 97 -30q83 0 129 66q30 44 30 100z" glyph-name="q" horiz-adv-x="660" unicode="q"/>
<glyph d="M306 439q-118 -5 -119 -131v-308h-133v554h122v-54q36 53 78 63q18 4 42 4h10v-128z" glyph-name="r" horiz-adv-x="320" unicode="r"/>
<glyph d="M420 176q0 -90 -71 -146q-55 -43 -127 -43q-137 0 -184 113q-14 34 -19 76h134q17 -61 62 -66q6 -1 12 -1q41 0 55 32q5 11 5 22q0 27 -16 38q-19 13 -78 33q-116 39 -143 104q-11 26 -11 60q0 82 68 132q51 37 116 37q91 0 144 -64q35 -43 38 -102h-130q-11 43 -52 44 q-35 0 -48 -29q-3 -9 -3 -18q0 -21 12 -30q14 -8 82 -30q113 -35 140 -93q14 -29 14 -69z" glyph-name="s" horiz-adv-x="440" unicode="s"/>
<glyph d="M287 433h-80v-433h-133v433h-65v121h65v185h133v-185h80v-121z" glyph-name="t" horiz-adv-x="300" unicode="t"/>
<glyph d="M547 0h-123v53q-58 -57 -126 -64q-16 -2 -33 -2q-210 2 -211 270v297h133v-271q0 -138 55 -165q20 -9 50 -9q69 1 101 51q21 36 21 133v261h133v-554z" glyph-name="u" horiz-adv-x="600" unicode="u"/>
<glyph d="M553 554l-223 -554h-106l-223 554h148l128 -367l126 367h150z" glyph-name="v" unicode="v"/>
<glyph d="M785 554l-200 -554h-83l-105 359l-107 -359h-82l-198 554h143l99 -338l93 338h106l91 -338l101 338h142z" glyph-name="w" horiz-adv-x="800" unicode="w"/>
<glyph d="M553 0h-160l-116 190l-116 -190h-160l196 286l-170 268h150l100 -167l98 167h150l-169 -268z" glyph-name="x" unicode="x"/>
<glyph d="M568 554l-320 -739h-143l104 237l-203 502h152l123 -359l134 359h153z" glyph-name="y" horiz-adv-x="580" unicode="y"/>
<glyph d="M442 0h-422v119l244 316h-216v119h375v-119l-244 -316h263v-119z" glyph-name="z" horiz-adv-x="460" unicode="z"/>
<glyph d="M302 -128q-16 -1 -41 -1q-108 0 -133 71q-10 28 -10 68v157q0 85 -74 97q-4 1 -7 1v81q76 10 81 87v11v157q0 105 73 130q29 9 70 9q26 0 41 -1v-80q-54 -5 -67 -22q-12 -19 -12 -80v-123q0 -80 -42 -108q-19 -13 -48 -21q66 -16 82 -66q8 -25 8 -62v-123q0 -68 16 -84 q15 -14 63 -18v-80z" glyph-name="braceleft" horiz-adv-x="340" unicode="{"/>
<glyph d="M369 -137h-138v876h138v-876z" glyph-name="bar" horiz-adv-x="600" unicode="|"/>
<glyph d="M303 265q-76 -10 -81 -87v-11v-157q0 -105 -73 -130q-29 -9 -70 -9q-26 0 -41 1v80q54 5 67 22q12 19 12 80v123q0 80 42 108q19 13 48 21q-66 16 -82 66q-8 25 -8 62v123q0 68 -16 84q-15 14 -63 18v80q16 1 41 1q108 0 133 -71q10 -28 10 -68v-157q0 -85 74 -97 q4 -1 7 -1v-81z" glyph-name="braceright" horiz-adv-x="340" unicode="}"/>
<glyph d="M555 347q-56 -92 -106 -111q-19 -6 -39 -6q-34 0 -91 24l-54 22q-48 19 -64 19q-27 -1 -47 -22q-11 -11 -38 -56q-2 -2 -2 -3l-63 75q51 83 83 105q28 18 65 18q39 0 77 -16l67 -27q58 -22 71 -22q37 2 77 74z" glyph-name="asciitilde" horiz-adv-x="600" unicode="~"/>
<glyph glyph-name="uni00A0" horiz-adv-x="280" unicode=" "/>
<glyph d="M208 -185h-133v551h133v-551zM208 426h-133v128h133v-128z" glyph-name="exclamdown" horiz-adv-x="280" unicode="¡"/>
<glyph d="M511 310q-53 -131 -168 -162v-109h-125v109q-99 22 -148 111q-31 56 -31 122q0 109 78 178q43 37 101 52v104h125v-104q97 -24 145 -108q16 -29 23 -60h-142q-37 43 -93 46q-59 0 -88 -50q-16 -28 -16 -60q0 -64 52 -94q25 -15 56 -15q50 1 85 40h146z" glyph-name="cent" unicode="¢"/>
<glyph d="M563 222q0 -96 -68 -161l-7 -7q-54 -46 -138 -52q-23 -2 -49 -2h-260v125h139q20 34 20 73q0 57 -55 109l-3 3h-142v125h58q-17 39 -17 81q0 107 79 176q68 60 160 60q116 0 183 -82q44 -55 51 -129h-135q-21 81 -87 88q-6 1 -11 1q-58 0 -89 -53q-18 -30 -18 -66 q1 -43 27 -76h207v-125h-107q32 -63 32 -110q0 -38 -13 -75q84 0 105 61q5 16 5 34q0 23 -10 54h132q11 -30 11 -52z" glyph-name="sterling" unicode="£"/>
<glyph d="M534 572l-42 -43q35 -60 37 -116v-14q0 -65 -33 -120q-3 -4 -5 -8l42 -43l-77 -80l-44 42q-62 -37 -131 -37q-68 1 -131 37l-44 -42l-79 81l42 43q-33 62 -35 106q-1 10 -1 22q0 55 24 105q5 11 12 24l-42 45l80 80l45 -44q60 36 128 36q68 -1 132 -36l45 43zM407 399 q0 64 -52 103q-33 24 -71 24q-69 0 -108 -54q-23 -33 -23 -72q0 -64 53 -102q34 -25 75 -25q66 0 103 53q23 33 23 73z" glyph-name="currency" unicode="¤"/>
<glyph d="M589 739l-143 -271h92v-88h-140l-57 -105h197v-88h-197v-187h-133v187h-196v88h196l-56 105h-140v88h94l-141 271h149l160 -341l161 341h154z" glyph-name="yen" unicode="¥"/>
<glyph d="M369 389h-138v350h138v-350zM369 -137h-138v350h138v-350z" glyph-name="brokenbar" horiz-adv-x="600" unicode="¦"/>
<glyph d="M529 292q0 -84 -72 -140q-2 -1 -3 -2q50 -52 50 -119q0 -97 -80 -150q-57 -38 -135 -38q-132 0 -192 95q-31 50 -37 117h134q2 -89 96 -90q57 0 79 37q8 14 8 28q0 28 -33 50q-15 10 -40 23l-163 84q-100 53 -101 160q0 85 71 141q4 3 7 5q-28 43 -28 93q0 89 79 135 q52 31 122 31q167 0 201 -161q3 -14 5 -28h-126q-12 63 -76 67h-10q-56 0 -66 -36q-2 -6 -2 -12q2 -41 61 -70l164 -81q65 -32 82 -102q5 -19 5 -37zM405 278q0 26 -31 45q-12 7 -29 16l-149 74q-39 -31 -39 -59q0 -31 56 -61l4 -2l151 -76q36 26 37 63z" glyph-name="section" unicode="§"/>
<glyph d="M207 634h-133v133h133v-133zM417 634h-133v133h133v-133z" glyph-name="dieresis" horiz-adv-x="500" unicode="¨"/>
<glyph d="M720 337q0 -141 -98 -243q-98 -101 -237 -107h-15q-141 0 -243 98q-101 98 -107 237v15q0 141 98 243q98 101 237 107h15q141 0 243 -98q101 -98 107 -237v-15zM660 337q0 123 -88 208q-85 82 -202 82q-123 0 -208 -88q-82 -85 -82 -202q0 -123 88 -208q85 -82 202 -82 q123 0 208 88q82 85 82 202zM587 407h-105q-39 47 -105 47q-72 0 -108 -53q-20 -29 -20 -63q0 -60 54 -96q35 -22 75 -22q54 1 100 45h108q-29 -80 -113 -116q-44 -18 -93 -18q-105 0 -173 73q-55 59 -55 135q0 90 74 151q64 53 149 53q112 0 177 -78q22 -27 35 -58z" glyph-name="copyright" horiz-adv-x="740" unicode="©"/>
<glyph d="M338 441h-66v41q-39 -50 -102 -51q-72 0 -114 63q-28 43 -28 98q0 80 59 127q39 31 88 31q58 -1 97 -50v39h66v-298zM266 591q0 51 -41 75q-19 10 -40 10q-47 0 -70 -43q-11 -21 -11 -44q0 -48 40 -72q20 -12 41 -12q46 0 70 42q11 21 11 44zM342 310h-311v70h311v-70z " glyph-name="ordfeminine" horiz-adv-x="360" unicode="ª"/>
<glyph d="M388 108l-139 131v100l139 130v-123l-67 -57l67 -58v-123zM175 108l-139 131v100l139 130v-123l-67 -57l67 -58v-123z" glyph-name="guillemotleft" horiz-adv-x="460" unicode="«"/>
<glyph d="M546 158h-138v115h-354v138h492v-253z" glyph-name="logicalnot" horiz-adv-x="600" unicode="¬"/>
<glyph d="M351 229h-277v118h277v-118z" glyph-name="uni00AD" horiz-adv-x="420" unicode="­"/>
<glyph d="M720 337q0 -141 -98 -243q-98 -101 -237 -107h-15q-141 0 -243 98q-101 98 -107 237v15q0 141 98 243q98 101 237 107h15q141 0 243 -98q101 -98 107 -237v-15zM660 337q0 123 -88 208q-85 82 -202 82q-123 0 -208 -88q-82 -85 -82 -202q0 -123 88 -208q85 -82 202 -82 q123 0 208 88q82 85 82 202zM526 138h-121l-95 126v-126h-96v399h129q79 0 117 -28q1 -2 2 -2q47 -38 48 -102q-2 -94 -100 -123zM423 403q0 42 -43 52q-19 4 -45 4h-34v-113h37q76 0 84 44q1 7 1 13z" glyph-name="registered" horiz-adv-x="740" unicode="®"/>
<glyph d="M351 650h-277v100h277v-100z" glyph-name="macron" horiz-adv-x="420" unicode="¯"/>
<glyph d="M350 533q0 -78 -60 -123q-40 -30 -90 -30q-76 0 -120 61q-30 41 -30 93q0 77 61 122q41 30 93 30q74 0 118 -61q28 -41 28 -92zM293 533q0 54 -44 82q-22 14 -47 14q-55 0 -82 -46q-14 -24 -14 -50q0 -53 44 -81q24 -15 50 -15q53 0 80 46q13 23 13 50z" glyph-name="degree" horiz-adv-x="400" unicode="°"/>
<glyph d="M546 319h-177v-57h-138v57h-177v138h177v177h138v-177h177v-138zM546 0h-492v138h492v-138z" glyph-name="plusminus" horiz-adv-x="600" unicode="±"/>
<glyph d="M326 601q-1 -79 -89 -150l-94 -75h181v-80h-311v74l170 148q51 44 55 79v6q0 42 -38 59q-15 6 -30 6q-59 0 -71 -63q-2 -11 -2 -23h-87q0 111 83 149q34 16 76 16q84 0 129 -61q28 -38 28 -85z" glyph-name="two.superior" horiz-adv-x="336" unicode="²"/>
<glyph d="M331 439q0 -81 -66 -124q-42 -27 -95 -27q-93 0 -140 67q-23 36 -26 80h88q8 -55 58 -66q10 -2 20 -2q47 0 67 38q7 15 7 31q0 50 -55 65q-19 5 -40 5h-21v82q72 1 81 28q2 7 2 14q0 28 -28 36q-8 2 -15 2q-33 0 -41 -34q-1 -3 -1 -6h-89q9 92 89 113q20 5 41 5 q75 0 112 -55q20 -30 20 -66q-1 -48 -34 -74q65 -33 66 -112z" glyph-name="three.superior" horiz-adv-x="336" unicode="³"/>
<glyph d="M395 724l-227 -120l-51 78l224 134z" glyph-name="acute" horiz-adv-x="420" unicode="´"/>
<glyph d="M523 0h-122v59q-41 -76 -131 -77q-40 0 -83 19v-186h-133v739h133v-272q0 -138 65 -164q17 -6 37 -6q92 0 100 135q1 16 1 35v272h133v-554z" glyph-name="uni00B5" horiz-adv-x="576" unicode="µ"/>
<glyph d="M527 -128h-101v760h-84v-760h-101v458q-113 2 -169 83q-35 51 -35 120q0 171 183 200q41 6 89 6h218v-867z" glyph-name="paragraph" horiz-adv-x="600" unicode="¶"/>
<glyph d="M204 250q0 -39 -35 -57q-14 -7 -29 -7q-39 0 -57 35q-7 14 -7 29q0 39 35 57q14 7 29 7q39 0 57 -35q7 -14 7 -29z" glyph-name="periodcentered" horiz-adv-x="280" unicode="·"/>
<glyph d="M270 -152q0 -65 -52 -89q-20 -9 -44 -9q-59 0 -87 49q-10 16 -13 35h61q14 -28 38 -29q25 0 35 26q4 10 4 19q0 30 -25 41q-7 3 -14 3q-20 -2 -38 -27l-52 26l46 112h52l-31 -63q19 7 29 7q47 0 75 -45q16 -26 16 -56z" glyph-name="cedilla" horiz-adv-x="340" unicode="¸"/>
<glyph d="M241 296h-88v363h-59v80h147v-443z" glyph-name="one.superior" horiz-adv-x="336" unicode="¹"/>
<glyph d="M338 596q0 -78 -61 -123q-41 -31 -93 -31q-74 0 -120 61q-33 43 -33 96q0 72 59 118q43 33 95 33q77 0 122 -61q31 -41 31 -93zM265 597q0 46 -40 71q-19 12 -40 12q-45 0 -69 -39q-12 -20 -12 -42q0 -52 42 -74q18 -9 38 -9q50 0 72 42q9 19 9 39zM338 311h-307v70h307 v-70z" glyph-name="ordmasculine" horiz-adv-x="360" unicode="º"/>
<glyph d="M212 239l-139 -131v123l67 58l-67 57v123l139 -130v-100zM425 239l-139 -131v123l67 58l-67 57v123l139 -130v-100z" glyph-name="guillemotright" horiz-adv-x="460" unicode="»"/>
<glyph d="M621 739l-306 -739h-95l306 739h95zM836 66h-48v-66h-88v66h-194v67l208 310h74v-301h48v-76zM700 142v154l-102 -154h102zM241 296h-88v363h-59v80h147v-443z" glyph-name="onequarter" horiz-adv-x="840" unicode="¼"/>
<glyph d="M600 739l-306 -739h-95l306 739h95zM241 296h-88v363h-59v80h147v-443zM830 305q-1 -79 -89 -150l-94 -75h181v-80h-311v74l170 148q51 44 55 79v6q0 42 -38 59q-15 6 -30 6q-59 0 -71 -63q-2 -11 -2 -23h-87q0 112 84 150q34 15 75 15q84 0 129 -61q28 -38 28 -85z" glyph-name="onehalf" horiz-adv-x="840" unicode="½"/>
<glyph d="M651 739l-306 -739h-95l306 739h95zM836 66h-48v-66h-88v66h-194v67l208 310h74v-301h48v-76zM700 142v154l-102 -154h102zM331 439q0 -81 -66 -124q-42 -27 -95 -27q-93 0 -140 67q-23 36 -26 80h88q8 -55 58 -66q10 -2 20 -2q47 0 67 38q7 15 7 31q0 50 -55 65 q-19 5 -40 5h-21v82q72 1 81 28q2 7 2 14q0 28 -28 36q-8 2 -15 2q-33 0 -41 -34q-1 -3 -1 -6h-89q9 92 89 113q20 5 41 5q75 0 112 -55q20 -30 20 -66q-1 -48 -34 -74q65 -33 66 -112z" glyph-name="threequarters" horiz-adv-x="840" unicode="¾"/>
<glyph d="M528 34q-11 -148 -117 -205q-50 -27 -111 -27q-108 0 -173 79q-52 64 -52 150q0 71 51 129q20 23 51 50q46 40 56 74q8 27 9 83h133q0 -106 -33 -161q-26 -42 -89 -94q-44 -38 -45 -85q0 -57 48 -82q22 -11 47 -11q75 0 90 90l2 10h133zM375 426h-133v128h133v-128z" glyph-name="questiondown" unicode="¿"/>
<glyph d="M733 0h-151l-79 191h-263l-82 -191h-151l308 739h108zM448 322l-79 224l-79 -224h158zM462 857l-51 -78l-227 120l54 92z" glyph-name="Agrave" horiz-adv-x="740" unicode="À"/>
<glyph d="M733 0h-151l-79 191h-263l-82 -191h-151l308 739h108zM448 322l-79 224l-79 -224h158zM554 899l-227 -120l-51 78l224 134z" glyph-name="Aacute" horiz-adv-x="740" unicode="Á"/>
<glyph d="M733 0h-151l-79 191h-263l-82 -191h-151l308 739h108zM448 322l-79 224l-79 -224h158zM569 806h-145l-53 64l-54 -64h-147l147 138h107z" glyph-name="Acircumflex" horiz-adv-x="740" unicode="Â"/>
<glyph d="M733 0h-151l-79 191h-263l-82 -191h-151l308 739h108zM448 322l-79 224l-79 -224h158zM534 862q-46 -55 -94 -55q-8 0 -86 20q-20 5 -27 5q-25 0 -53 -15q-7 -4 -17 -10l-54 80q43 43 89 46q7 1 14 1q8 0 70 -18q25 -7 37 -7q38 1 67 34z" glyph-name="Atilde" horiz-adv-x="740" unicode="Ã"/>
<glyph d="M733 0h-151l-79 191h-263l-82 -191h-151l308 739h108zM448 322l-79 224l-79 -224h158zM326 809h-133v133h133v-133zM536 809h-133v133h133v-133z" glyph-name="Adieresis" horiz-adv-x="740" unicode="Ä"/>
<glyph d="M733 0h-151l-79 191h-263l-82 -191h-151l308 739h108zM448 322l-79 224l-79 -224h158zM482 888q0 -61 -50 -94q-29 -19 -63 -19q-61 0 -94 50q-19 29 -19 63q0 61 51 94q29 19 63 19q60 0 93 -50q19 -29 19 -63zM409 888q0 28 -26 37q-7 3 -14 3q-28 0 -37 -26 q-3 -7 -3 -14q0 -28 26 -37q7 -3 14 -3q28 0 37 26q3 7 3 14z" glyph-name="Aring" horiz-adv-x="740" unicode="Å"/>
<glyph d="M843 0h-355v191h-194l-112 -191h-165l487 739h339v-131h-218v-174h207v-131h-207v-172h218v-131zM488 322v191l-115 -191h115z" glyph-name="AE" horiz-adv-x="900" unicode="Æ"/>
<glyph d="M760 206q-54 -126 -179 -184q-71 -32 -149 -35l-22 -45q19 7 29 7q47 0 75 -45q16 -26 16 -56q0 -65 -52 -89q-20 -9 -44 -9q-59 0 -87 49q-10 16 -13 35h61q14 -28 38 -29q25 0 35 26q4 10 4 19q0 30 -25 41q-7 3 -14 3q-20 -2 -38 -27l-52 26l39 96q-150 14 -251 123 q-101 111 -101 260t102 258q100 108 245 121q17 1 33 1q162 0 272 -111q48 -49 78 -114h-153q-65 84 -167 92q-14 1 -27 1q-115 0 -186 -84q-59 -70 -59 -165q0 -109 80 -184q72 -68 168 -68q88 0 158 62q13 12 25 25h161z" glyph-name="Ccedilla" horiz-adv-x="780" unicode="Ç"/>
<glyph d="M465 0h-397v739h397v-131h-260v-174h249v-131h-249v-172h260v-131zM360 857l-51 -78l-227 120l54 92z" glyph-name="Egrave" horiz-adv-x="520" unicode="È"/>
<glyph d="M465 0h-397v739h397v-131h-260v-174h249v-131h-249v-172h260v-131zM452 899l-227 -120l-51 78l224 134z" glyph-name="Eacute" horiz-adv-x="520" unicode="É"/>
<glyph d="M465 0h-397v739h397v-131h-260v-174h249v-131h-249v-172h260v-131zM467 806h-145l-53 64l-54 -64h-147l147 138h107z" glyph-name="Ecircumflex" horiz-adv-x="520" unicode="Ê"/>
<glyph d="M465 0h-397v739h397v-131h-260v-174h249v-131h-249v-172h260v-131zM224 809h-133v133h133v-133zM434 809h-133v133h133v-133z" glyph-name="Edieresis" horiz-adv-x="520" unicode="Ë"/>
<glyph d="M205 0h-137v739h137v-739zM256 857l-51 -78l-227 120l54 92z" glyph-name="Igrave" horiz-adv-x="280" unicode="Ì"/>
<glyph d="M205 0h-137v739h137v-739zM295 899l-227 -120l-51 78l224 134z" glyph-name="Iacute" horiz-adv-x="280" unicode="Í"/>
<glyph d="M205 0h-137v739h137v-739zM337 806h-145l-53 64l-54 -64h-147l147 138h107z" glyph-name="Icircumflex" horiz-adv-x="280" unicode="Î"/>
<glyph d="M205 0h-137v739h137v-739zM94 809h-133v133h133v-133zM304 809h-133v133h133v-133z" glyph-name="Idieresis" horiz-adv-x="280" unicode="Ï"/>
<glyph d="M702 367q0 -169 -103 -270q-35 -35 -78 -56q-79 -39 -221 -41h-18h-172v315h-96v107h96v317h169q174 0 262 -53q123 -74 153 -231q8 -43 8 -88zM564 368q0 114 -72 181q-19 18 -41 29q-65 29 -177 30h-27v-186h154v-107h-154v-184h30q121 0 180 33q77 42 100 140 q7 32 7 64z" glyph-name="Eth" horiz-adv-x="742" unicode="Ð"/>
<glyph d="M667 0h-153l-309 537v-537h-137v739h156l306 -538v538h137v-739zM533 862q-46 -55 -94 -55q-8 0 -86 20q-20 5 -27 5q-25 0 -53 -15q-7 -4 -17 -10l-54 80q43 43 89 46q7 1 14 1q8 0 70 -18q25 -7 37 -7q38 1 67 34z" glyph-name="Ntilde" horiz-adv-x="740" unicode="Ñ"/>
<glyph d="M800 370q0 -158 -105 -268q-104 -108 -259 -115h-17q-157 0 -269 104q-109 102 -119 252q-1 13 -1 26q0 158 107 267t265 116h18q152 0 261 -104q108 -103 118 -251q1 -14 1 -27zM662 368q0 116 -81 190q-70 62 -163 62q-116 0 -189 -84q-61 -70 -61 -167q0 -112 81 -186 q72 -64 169 -64q115 0 186 84q58 69 58 165zM513 857l-51 -78l-227 120l54 92z" glyph-name="Ograve" horiz-adv-x="840" unicode="Ò"/>
<glyph d="M800 370q0 -158 -105 -268q-104 -108 -259 -115h-17q-157 0 -269 104q-109 102 -119 252q-1 13 -1 26q0 158 107 267t265 116h18q152 0 261 -104q108 -103 118 -251q1 -14 1 -27zM662 368q0 116 -81 190q-70 62 -163 62q-116 0 -189 -84q-61 -70 -61 -167q0 -112 81 -186 q72 -64 169 -64q115 0 186 84q58 69 58 165zM605 899l-227 -120l-51 78l224 134z" glyph-name="Oacute" horiz-adv-x="840" unicode="Ó"/>
<glyph d="M800 370q0 -158 -105 -268q-104 -108 -259 -115h-17q-157 0 -269 104q-109 102 -119 252q-1 13 -1 26q0 158 107 267t265 116h18q152 0 261 -104q108 -103 118 -251q1 -14 1 -27zM662 368q0 116 -81 190q-70 62 -163 62q-116 0 -189 -84q-61 -70 -61 -167q0 -112 81 -186 q72 -64 169 -64q115 0 186 84q58 69 58 165zM620 806h-145l-53 64l-54 -64h-147l147 138h107z" glyph-name="Ocircumflex" horiz-adv-x="840" unicode="Ô"/>
<glyph d="M800 370q0 -158 -105 -268q-104 -108 -259 -115h-17q-157 0 -269 104q-109 102 -119 252q-1 13 -1 26q0 158 107 267t265 116h18q152 0 261 -104q108 -103 118 -251q1 -14 1 -27zM662 368q0 116 -81 190q-70 62 -163 62q-116 0 -189 -84q-61 -70 -61 -167q0 -112 81 -186 q72 -64 169 -64q115 0 186 84q58 69 58 165zM585 862q-46 -55 -94 -55q-8 0 -86 20q-20 5 -27 5q-25 0 -53 -15q-7 -4 -17 -10l-54 80q43 43 89 46q7 1 14 1q8 0 70 -18q25 -7 37 -7q38 1 67 34z" glyph-name="Otilde" horiz-adv-x="840" unicode="Õ"/>
<glyph d="M800 370q0 -158 -105 -268q-104 -108 -259 -115h-17q-157 0 -269 104q-109 102 -119 252q-1 13 -1 26q0 158 107 267t265 116h18q152 0 261 -104q108 -103 118 -251q1 -14 1 -27zM662 368q0 116 -81 190q-70 62 -163 62q-116 0 -189 -84q-61 -70 -61 -167q0 -112 81 -186 q72 -64 169 -64q115 0 186 84q58 69 58 165zM377 809h-133v133h133v-133zM587 809h-133v133h133v-133z" glyph-name="Odieresis" horiz-adv-x="840" unicode="Ö"/>
<glyph d="M523 125l-98 -98l-125 125l-125 -125l-98 98l125 125l-125 125l98 98l125 -125l125 125l98 -98l-125 -125z" glyph-name="multiply" horiz-adv-x="600" unicode="×"/>
<glyph d="M803 370q0 -158 -106 -268q-104 -108 -258 -115h-18q-89 0 -168 36l-60 -88l-96 65l59 87q-105 94 -123 235q-3 24 -3 48q0 152 104 262q103 108 253 119q15 1 29 1q85 0 165 -35l62 92l95 -66l-61 -90q126 -116 126 -283zM665 368q-1 98 -64 172l-272 -405 q46 -16 91 -16q115 0 187 84q58 70 58 165zM505 605q-44 15 -89 15q-111 0 -184 -81q-64 -72 -64 -169q1 -95 65 -169z" glyph-name="Oslash" horiz-adv-x="840" unicode="Ø"/>
<glyph d="M567 271q0 -181 -116 -250q-58 -34 -134 -34q-140 0 -206 107q-43 71 -43 177v468h137v-468q0 -134 84 -150q14 -2 29 -2q91 0 108 96q4 25 4 56v468h137v-468zM411 857l-51 -78l-227 120l54 92z" glyph-name="Ugrave" horiz-adv-x="640" unicode="Ù"/>
<glyph d="M567 271q0 -181 -116 -250q-58 -34 -134 -34q-140 0 -206 107q-43 71 -43 177v468h137v-468q0 -134 84 -150q14 -2 29 -2q91 0 108 96q4 25 4 56v468h137v-468zM503 899l-227 -120l-51 78l224 134z" glyph-name="Uacute" horiz-adv-x="640" unicode="Ú"/>
<glyph d="M567 271q0 -181 -116 -250q-58 -34 -134 -34q-140 0 -206 107q-43 71 -43 177v468h137v-468q0 -134 84 -150q14 -2 29 -2q91 0 108 96q4 25 4 56v468h137v-468zM518 806h-145l-53 64l-54 -64h-147l147 138h107z" glyph-name="Ucircumflex" horiz-adv-x="640" unicode="Û"/>
<glyph d="M567 271q0 -181 -116 -250q-58 -34 -134 -34q-140 0 -206 107q-43 71 -43 177v468h137v-468q0 -134 84 -150q14 -2 29 -2q91 0 108 96q4 25 4 56v468h137v-468zM275 809h-133v133h133v-133zM485 809h-133v133h133v-133z" glyph-name="Udieresis" horiz-adv-x="640" unicode="Ü"/>
<glyph d="M626 739l-243 -466v-273h-137v273l-243 466h148l164 -340l163 340h148zM500 899l-227 -120l-51 78l224 134z" glyph-name="Yacute" horiz-adv-x="620" unicode="Ý"/>
<glyph d="M540 380q0 -110 -67 -175q-15 -13 -30 -23q-49 -30 -158 -33h-36h-44v-149h-137v739h137v-131h46q125 0 180 -29q5 -3 9 -5q90 -55 99 -171q1 -12 1 -23zM402 377q0 69 -55 89q-33 11 -96 11h-46v-197h40q125 0 149 54q8 18 8 43z" glyph-name="Thorn" unicode="Þ"/>
<glyph d="M584 216q0 -116 -85 -181q-63 -48 -149 -48q-121 1 -177 92v-79h-122v487q0 165 100 231q52 34 121 34q105 0 169 -74q49 -57 49 -132q-1 -96 -75 -138q138 -32 164 -145q5 -23 5 -47zM450 205q0 70 -60 94q-44 16 -124 16h-11v118h11q53 0 78 49q12 25 12 54 q0 66 -50 87q-16 7 -35 7q-86 -2 -87 -127v-314h82q10 -50 55 -71q19 -9 38 -9q54 0 79 47q12 23 12 49z" glyph-name="germandbls" horiz-adv-x="600" unicode="ß"/>
<glyph d="M615 0h-122v72q-66 -75 -154 -84q-15 -1 -30 -1q-131 0 -211 93q-68 81 -68 195q0 138 92 222q78 70 190 70q109 0 173 -76q4 -6 8 -11v74h122v-554zM489 273q0 95 -68 143q-41 29 -95 29q-88 0 -133 -70q-29 -45 -29 -103q0 -93 70 -137q41 -26 94 -26q96 0 139 75 q22 40 22 89zM423 682l-51 -78l-227 120l54 92z" glyph-name="agrave" horiz-adv-x="660" unicode="à"/>
<glyph d="M615 0h-122v72q-66 -75 -154 -84q-15 -1 -30 -1q-131 0 -211 93q-68 81 -68 195q0 138 92 222q78 70 190 70q109 0 173 -76q4 -6 8 -11v74h122v-554zM489 273q0 95 -68 143q-41 29 -95 29q-88 0 -133 -70q-29 -45 -29 -103q0 -93 70 -137q41 -26 94 -26q96 0 139 75 q22 40 22 89zM515 724l-227 -120l-51 78l224 134z" glyph-name="aacute" horiz-adv-x="660" unicode="á"/>
<glyph d="M615 0h-122v72q-66 -75 -154 -84q-15 -1 -30 -1q-131 0 -211 93q-68 81 -68 195q0 138 92 222q78 70 190 70q109 0 173 -76q4 -6 8 -11v74h122v-554zM489 273q0 95 -68 143q-41 29 -95 29q-88 0 -133 -70q-29 -45 -29 -103q0 -93 70 -137q41 -26 94 -26q96 0 139 75 q22 40 22 89zM530 631h-145l-53 64l-54 -64h-147l147 138h107z" glyph-name="acircumflex" horiz-adv-x="660" unicode="â"/>
<glyph d="M615 0h-122v72q-66 -75 -154 -84q-15 -1 -30 -1q-131 0 -211 93q-68 81 -68 195q0 138 92 222q78 70 190 70q109 0 173 -76q4 -6 8 -11v74h122v-554zM489 273q0 95 -68 143q-41 29 -95 29q-88 0 -133 -70q-29 -45 -29 -103q0 -93 70 -137q41 -26 94 -26q96 0 139 75 q22 40 22 89zM495 687q-46 -55 -94 -55q-8 0 -86 20q-20 5 -27 5q-25 0 -53 -15q-7 -4 -17 -10l-54 80q43 43 89 46q7 1 14 1q8 0 70 -18q25 -7 37 -7q38 1 67 34z" glyph-name="atilde" horiz-adv-x="660" unicode="ã"/>
<glyph d="M615 0h-122v72q-66 -75 -154 -84q-15 -1 -30 -1q-131 0 -211 93q-68 81 -68 195q0 138 92 222q78 70 190 70q109 0 173 -76q4 -6 8 -11v74h122v-554zM489 273q0 95 -68 143q-41 29 -95 29q-88 0 -133 -70q-29 -45 -29 -103q0 -93 70 -137q41 -26 94 -26q96 0 139 75 q22 40 22 89zM287 634h-133v133h133v-133zM497 634h-133v133h133v-133z" glyph-name="adieresis" horiz-adv-x="660" unicode="ä"/>
<glyph d="M615 0h-122v72q-66 -75 -154 -84q-15 -1 -30 -1q-131 0 -211 93q-68 81 -68 195q0 138 92 222q78 70 190 70q109 0 173 -76q4 -6 8 -11v74h122v-554zM489 273q0 95 -68 143q-41 29 -95 29q-88 0 -133 -70q-29 -45 -29 -103q0 -93 70 -137q41 -26 94 -26q96 0 139 75 q22 40 22 89zM443 710q0 -61 -50 -94q-29 -19 -63 -19q-61 0 -94 50q-19 29 -19 63q0 61 51 94q29 19 63 19q60 0 93 -50q19 -29 19 -63zM370 710q0 28 -26 37q-7 3 -14 3q-28 0 -37 -26q-3 -7 -3 -14q0 -28 26 -37q7 -3 14 -3q28 0 37 26q3 7 3 14z" glyph-name="aring" horiz-adv-x="660" unicode="å"/>
<glyph d="M1051 288q0 -31 -9 -69h-428q27 -82 108 -104q24 -6 48 -6q71 1 117 55h145q-29 -88 -119 -140q-66 -37 -137 -37q-104 0 -166 69q-2 3 -3 4v-60h-122v60q-52 -61 -122 -70q-20 -3 -43 -3q-133 0 -217 92q-73 81 -73 196q0 129 89 214q83 78 199 78q100 0 164 -65l3 -3 v55h122v-55q70 67 167 68q121 0 202 -87q75 -81 75 -192zM481 276q0 87 -63 137q-42 32 -95 32q-79 0 -126 -63q-33 -45 -33 -102q0 -93 67 -141q41 -30 94 -30q80 0 126 66q30 44 30 101zM911 337q-30 107 -150 108q-115 -1 -154 -108h304z" glyph-name="ae" horiz-adv-x="1080" unicode="æ"/>
<glyph d="M601 182q-50 -135 -173 -179q-41 -14 -86 -16l-22 -45q19 7 29 7q47 0 75 -45q16 -26 16 -56q0 -65 -52 -89q-20 -9 -44 -9q-59 0 -87 49q-10 16 -13 35h61q14 -28 38 -29q25 0 35 26q4 10 4 19q0 30 -25 41q-7 3 -14 3q-20 -2 -38 -27l-52 26l39 96q-121 13 -197 106 q-65 80 -65 182q0 127 90 211q84 79 202 79q134 0 218 -93q41 -45 61 -105h-150q-41 75 -129 76q-86 0 -130 -69q-28 -43 -28 -98q0 -89 65 -138q42 -31 96 -31q77 0 124 69q1 3 2 4h150z" glyph-name="ccedilla" horiz-adv-x="640" unicode="ç"/>
<glyph d="M608 269q0 -28 -5 -51h-429q18 -74 92 -99q29 -10 61 -10q68 0 110 42q7 7 12 13h145q-33 -102 -138 -149q-60 -28 -126 -28q-132 0 -220 90q-80 82 -80 198q0 126 89 211q85 81 203 81q132 0 214 -94q72 -84 72 -204zM477 335q-23 98 -128 109q-13 1 -25 1 q-115 0 -150 -99q-2 -6 -4 -11h307zM415 682l-51 -78l-227 120l54 92z" glyph-name="egrave" horiz-adv-x="640" unicode="è"/>
<glyph d="M608 269q0 -28 -5 -51h-429q18 -74 92 -99q29 -10 61 -10q68 0 110 42q7 7 12 13h145q-33 -102 -138 -149q-60 -28 -126 -28q-132 0 -220 90q-80 82 -80 198q0 126 89 211q85 81 203 81q132 0 214 -94q72 -84 72 -204zM477 335q-23 98 -128 109q-13 1 -25 1 q-115 0 -150 -99q-2 -6 -4 -11h307zM507 724l-227 -120l-51 78l224 134z" glyph-name="eacute" horiz-adv-x="640" unicode="é"/>
<glyph d="M608 269q0 -28 -5 -51h-429q18 -74 92 -99q29 -10 61 -10q68 0 110 42q7 7 12 13h145q-33 -102 -138 -149q-60 -28 -126 -28q-132 0 -220 90q-80 82 -80 198q0 126 89 211q85 81 203 81q132 0 214 -94q72 -84 72 -204zM477 335q-23 98 -128 109q-13 1 -25 1 q-115 0 -150 -99q-2 -6 -4 -11h307zM522 631h-145l-53 64l-54 -64h-147l147 138h107z" glyph-name="ecircumflex" horiz-adv-x="640" unicode="ê"/>
<glyph d="M608 269q0 -28 -5 -51h-429q18 -74 92 -99q29 -10 61 -10q68 0 110 42q7 7 12 13h145q-33 -102 -138 -149q-60 -28 -126 -28q-132 0 -220 90q-80 82 -80 198q0 126 89 211q85 81 203 81q132 0 214 -94q72 -84 72 -204zM477 335q-23 98 -128 109q-13 1 -25 1 q-115 0 -150 -99q-2 -6 -4 -11h307zM279 634h-133v133h133v-133zM489 634h-133v133h133v-133z" glyph-name="edieresis" horiz-adv-x="640" unicode="ë"/>
<glyph d="M187 0h-133v554h133v-554zM238 682l-51 -78l-227 120l54 92z" glyph-name="igrave" horiz-adv-x="240" unicode="ì"/>
<glyph d="M187 0h-133v554h133v-554zM281 724l-227 -120l-51 78l224 134z" glyph-name="iacute" horiz-adv-x="240" unicode="í"/>
<glyph d="M187 0h-133v554h133v-554zM321 631h-145l-53 64l-54 -64h-147l147 138h107z" glyph-name="icircumflex" horiz-adv-x="240" unicode="î"/>
<glyph d="M187 0h-133v554h133v-554zM78 634h-133v133h133v-133zM288 634h-133v133h133v-133z" glyph-name="idieresis" horiz-adv-x="240" unicode="ï"/>
<glyph d="M619 284q0 -129 -90 -216q-85 -81 -204 -81q-123 0 -210 87q-85 86 -85 204q0 113 80 196q80 82 188 82q27 0 67 -9l-28 28q-29 29 -49 46l-87 -40l-40 46l78 37l-70 57l103 35q4 -3 11 -7q4 -3 5 -4l30 -23q3 -1 19 -13l87 40l41 -49l-78 -35q169 -146 212 -264 q20 -56 20 -117zM485 277q0 81 -61 132q-45 36 -100 36q-75 0 -124 -61q-36 -47 -36 -105q0 -85 63 -136q44 -34 98 -34q77 0 125 63q35 46 35 105z" glyph-name="eth" horiz-adv-x="640" unicode="ð"/>
<glyph d="M546 0h-133v271q0 135 -52 163q-21 11 -54 11q-65 -1 -98 -51q-21 -34 -22 -120v-13v-261h-133v554h123v-53q64 61 139 66h17q118 -1 173 -80q35 -51 39 -147q1 -20 1 -43v-297zM465 687q-46 -55 -94 -55q-8 0 -86 20q-20 5 -27 5q-25 0 -53 -15q-7 -4 -17 -10l-54 80 q43 43 89 46q7 1 14 1q8 0 70 -18q25 -7 37 -7q38 1 67 34z" glyph-name="ntilde" horiz-adv-x="600" unicode="ñ"/>
<glyph d="M619 273q0 -117 -88 -202q-87 -84 -207 -84q-123 0 -210 87q-84 85 -84 203q0 121 88 206q86 84 205 84q130 0 216 -91q80 -84 80 -203zM485 277q0 81 -61 132q-45 36 -100 36q-75 0 -124 -61q-36 -47 -36 -105q0 -85 63 -136q44 -34 98 -34q77 0 125 63q35 46 35 105z M416 682l-51 -78l-227 120l54 92z" glyph-name="ograve" horiz-adv-x="640" unicode="ò"/>
<glyph d="M619 273q0 -117 -88 -202q-87 -84 -207 -84q-123 0 -210 87q-84 85 -84 203q0 121 88 206q86 84 205 84q130 0 216 -91q80 -84 80 -203zM485 277q0 81 -61 132q-45 36 -100 36q-75 0 -124 -61q-36 -47 -36 -105q0 -85 63 -136q44 -34 98 -34q77 0 125 63q35 46 35 105z M508 724l-227 -120l-51 78l224 134z" glyph-name="oacute" horiz-adv-x="640" unicode="ó"/>
<glyph d="M619 273q0 -117 -88 -202q-87 -84 -207 -84q-123 0 -210 87q-84 85 -84 203q0 121 88 206q86 84 205 84q130 0 216 -91q80 -84 80 -203zM485 277q0 81 -61 132q-45 36 -100 36q-75 0 -124 -61q-36 -47 -36 -105q0 -85 63 -136q44 -34 98 -34q77 0 125 63q35 46 35 105z M523 631h-145l-53 64l-54 -64h-147l147 138h107z" glyph-name="ocircumflex" horiz-adv-x="640" unicode="ô"/>
<glyph d="M619 273q0 -117 -88 -202q-87 -84 -207 -84q-123 0 -210 87q-84 85 -84 203q0 121 88 206q86 84 205 84q130 0 216 -91q80 -84 80 -203zM485 277q0 81 -61 132q-45 36 -100 36q-75 0 -124 -61q-36 -47 -36 -105q0 -85 63 -136q44 -34 98 -34q77 0 125 63q35 46 35 105z M488 687q-46 -55 -94 -55q-8 0 -86 20q-20 5 -27 5q-25 0 -53 -15q-7 -4 -17 -10l-54 80q43 43 89 46q7 1 14 1q8 0 70 -18q25 -7 37 -7q38 1 67 34z" glyph-name="otilde" horiz-adv-x="640" unicode="õ"/>
<glyph d="M619 273q0 -117 -88 -202q-87 -84 -207 -84q-123 0 -210 87q-84 85 -84 203q0 121 88 206q86 84 205 84q130 0 216 -91q80 -84 80 -203zM485 277q0 81 -61 132q-45 36 -100 36q-75 0 -124 -61q-36 -47 -36 -105q0 -85 63 -136q44 -34 98 -34q77 0 125 63q35 46 35 105z M280 634h-133v133h133v-133zM490 634h-133v133h133v-133z" glyph-name="odieresis" horiz-adv-x="640" unicode="ö"/>
<glyph d="M546 181h-492v138h492v-138zM364 435q0 -39 -35 -57q-14 -7 -29 -7q-39 0 -57 35q-7 14 -7 29q0 39 35 57q14 7 29 7q39 0 57 -35q7 -14 7 -29zM364 65q0 -39 -35 -57q-14 -7 -29 -7q-39 0 -57 35q-7 14 -7 29q0 39 35 57q14 7 29 7q39 0 57 -35q7 -14 7 -29z" glyph-name="divide" horiz-adv-x="600" unicode="÷"/>
<glyph d="M620 277q0 -122 -88 -207q-87 -83 -206 -83q-66 0 -126 28l-56 -82l-85 57l57 84q-82 77 -86 193v10q0 122 89 207q87 83 207 83q57 0 109 -21l52 77l86 -58l-50 -73q97 -90 97 -215zM363 440q-20 5 -38 5q-76 0 -125 -62q-36 -47 -36 -105q0 -50 27 -93zM486 276 q-1 59 -36 107l-179 -264q28 -10 54 -10q78 0 126 63q35 47 35 104z" glyph-name="oslash" horiz-adv-x="660" unicode="ø"/>
<glyph d="M547 0h-123v53q-58 -57 -126 -64q-16 -2 -33 -2q-210 2 -211 270v297h133v-271q0 -138 55 -165q20 -9 50 -9q69 1 101 51q21 36 21 133v261h133v-554zM394 682l-51 -78l-227 120l54 92z" glyph-name="ugrave" horiz-adv-x="600" unicode="ù"/>
<glyph d="M547 0h-123v53q-58 -57 -126 -64q-16 -2 -33 -2q-210 2 -211 270v297h133v-271q0 -138 55 -165q20 -9 50 -9q69 1 101 51q21 36 21 133v261h133v-554zM486 724l-227 -120l-51 78l224 134z" glyph-name="uacute" horiz-adv-x="600" unicode="ú"/>
<glyph d="M547 0h-123v53q-58 -57 -126 -64q-16 -2 -33 -2q-210 2 -211 270v297h133v-271q0 -138 55 -165q20 -9 50 -9q69 1 101 51q21 36 21 133v261h133v-554zM501 631h-145l-53 64l-54 -64h-147l147 138h107z" glyph-name="ucircumflex" horiz-adv-x="600" unicode="û"/>
<glyph d="M547 0h-123v53q-58 -57 -126 -64q-16 -2 -33 -2q-210 2 -211 270v297h133v-271q0 -138 55 -165q20 -9 50 -9q69 1 101 51q21 36 21 133v261h133v-554zM258 634h-133v133h133v-133zM468 634h-133v133h133v-133z" glyph-name="udieresis" horiz-adv-x="600" unicode="ü"/>
<glyph d="M568 554l-320 -739h-143l104 237l-203 502h152l123 -359l134 359h153zM472 724l-227 -120l-51 78l224 134z" glyph-name="yacute" horiz-adv-x="580" unicode="ý"/>
<glyph d="M634 277q0 -140 -92 -223q-76 -67 -183 -67q-106 1 -172 72v-244h-133v924h133v-244q67 72 172 72q130 0 208 -94q67 -81 67 -196zM500 277q0 86 -63 136q-43 32 -96 32q-83 0 -130 -65q-32 -44 -32 -101q0 -90 66 -139q42 -31 96 -31q81 0 127 66q32 45 32 102z" glyph-name="thorn" horiz-adv-x="660" unicode="þ"/>
</font>
</defs>
</svg>
