<?xml version="1.0" encoding="UTF-8"?>
<!DOCTYPE svg  PUBLIC '-//W3C//DTD SVG 1.1//EN'  'http://www.w3.org/Graphics/SVG/1.1/DTD/svg11.dtd'>
<svg version="1.1" xmlns="http://www.w3.org/2000/svg">
<defs>
<font id="TeXGyreAdventor-BoldItalic" horiz-adv-x="560">
<font-face font-family="TeXGyreAdventor" font-style="italic" font-weight="700" ascent="815" bbox="-56 -250 1078 1001" cap-height="739" descent="-185" panose-1="0 0 8 0 0 0 0 0 0 0" slope="-10.5" underline-position="-93" underline-thickness="90" unicode-range="U+0020-00FE" units-per-em="1000" x-height="554"/>
<missing-glyph/>
<glyph glyph-name="space" horiz-adv-x="280" unicode=" "/>
<glyph d="M210 188h-133l102 551h133zM199 128l-24 -128h-133l24 128h133z" glyph-name="exclam" horiz-adv-x="280" unicode="!"/>
<glyph d="M257 739l-42 -226h-76l42 226h76zM390 739l-42 -226h-76l42 226h76z" glyph-name="quotedbl" horiz-adv-x="360" unicode='"'/>
<glyph d="M575 422h-103l-28 -89h88l-19 -100h-102l-75 -233h-91l76 233h-84l-75 -233h-91l75 233h-99l19 100h111l29 89h-95l18 100h109l70 217h91l-70 -217h84l70 217h89l-69 -217h90zM381 422h-84l-29 -89h85z" glyph-name="numbersign" unicode="#"/>
<glyph d="M515 308q0 -139 -100 -216q-40 -30 -90 -46l-24 -132h-127l24 132q-95 26 -120 108q-8 26 -8 53q0 20 5 42h134q-2 -18 -2 -21q0 -39 36 -57q16 -8 32 -8q55 0 86 46q17 26 17 56q0 28 -24 48q-3 2 -4 3q-17 13 -68 34q-9 3 -28 11q-99 41 -100 137q0 96 64 165 q45 46 106 60l24 133h127l-24 -133q60 -16 84 -81q10 -26 10 -53q0 -15 -3 -38h-126q0 53 -39 61q-6 1 -12 1q-43 0 -65 -40q-9 -18 -9 -38q1 -30 18 -46q17 -15 80 -41q15 -6 38 -15q87 -36 88 -125z" glyph-name="dollar" unicode="$"/>
<glyph d="M738 739l-443 -739h-102l442 739h103zM838 201q0 -88 -72 -154q-66 -60 -149 -60q-77 0 -120 60q-27 39 -27 86q0 90 71 156q66 59 147 59t124 -61q26 -38 26 -86zM730 183q0 36 -34 52q-14 7 -29 7q-46 0 -74 -40q-15 -23 -15 -48q0 -40 36 -55q12 -5 25 -5q46 0 75 41 q16 23 16 48zM462 605q0 -87 -71 -153q-67 -61 -149 -61q-80 0 -123 63q-25 38 -25 86q0 86 71 152q66 60 147 60t124 -61q26 -38 26 -86zM354 585q0 40 -36 56q-13 5 -27 5q-42 0 -72 -38q-17 -23 -17 -46q0 -48 42 -61q10 -3 21 -3q43 0 72 39q17 24 17 48z" glyph-name="percent" horiz-adv-x="860" unicode="%"/>
<glyph d="M648 72l-111 -85l-84 111q-79 -85 -143 -103q-30 -8 -65 -8q-109 0 -166 75q-38 50 -38 117q0 149 160 241q12 7 24 13q-37 51 -40 85q-1 8 -1 16q0 89 73 157q67 61 150 61q90 0 135 -61q26 -35 26 -80q0 -89 -53 -147q-36 -37 -100 -75l54 -76l93 120h149l-169 -220z M438 584q0 29 -30 40q-11 3 -21 3q-42 0 -64 -38q-11 -18 -11 -37q1 -30 37 -71l8 4q80 33 81 99zM379 198l-92 124q-101 -44 -111 -107q-1 -9 -1 -17q0 -56 50 -74q17 -5 35 -5q65 1 119 79z" glyph-name="ampersand" horiz-adv-x="680" unicode="&amp;"/>
<glyph d="M257 739l-42 -226h-76l42 226h76z" glyph-name="quotesingle" horiz-adv-x="220" unicode="'"/>
<glyph d="M456 739l-27 -144q-158 -112 -192 -284q-8 -41 -8 -82q0 -107 54 -182q17 -25 37 -39l-27 -145q-91 31 -149 137q-52 96 -52 212q0 148 93 298q40 64 89 113q63 63 146 101q17 7 36 15z" glyph-name="parenleft" horiz-adv-x="380" unicode="("/>
<glyph d="M347 395q0 -184 -117 -340q-99 -131 -247 -192l27 144q142 100 185 258q15 55 15 111q0 97 -51 173q-19 29 -41 45l27 145q97 -34 155 -146q47 -91 47 -198z" glyph-name="parenright" horiz-adv-x="380" unicode=")"/>
<glyph d="M460 591l-13 -70l-96 22l38 -91l-65 -27l-30 96l-60 -79l-58 42l70 80l-100 11l13 71l98 -23l-37 96l69 20l28 -93l60 77l54 -47l-69 -73z" glyph-name="asterisk" horiz-adv-x="440" unicode="*"/>
<glyph d="M569 181h-177v-177h-138v177h-177v138h177v177h138v-177h177v-138z" glyph-name="plus" horiz-adv-x="600" unicode="+"/>
<glyph d="M175 -7q-15 -78 -79 -115q-33 -18 -68 -18h-11l12 67q70 11 72 73h-58l24 128h133z" glyph-name="comma" horiz-adv-x="280" unicode=","/>
<glyph d="M391 347l-22 -118h-277l22 118h277z" glyph-name="hyphen" horiz-adv-x="420" unicode="-"/>
<glyph d="M200 128l-24 -128h-134l24 128h134z" glyph-name="period" horiz-adv-x="280" unicode="."/>
<glyph d="M550 739l-483 -867h-95l484 867h94z" glyph-name="slash" horiz-adv-x="460" unicode="/"/>
<glyph d="M587 505l-48 -258q-30 -161 -150 -226q-62 -34 -138 -34q-140 0 -190 97q-23 44 -23 101q0 31 6 62l47 251q27 146 138 213q69 41 154 41q126 0 181 -82q29 -44 29 -103q0 -31 -6 -62zM453 498q4 19 4 42q0 71 -63 86q-15 4 -31 4q-81 0 -120 -75q-13 -26 -19 -57 l-46 -247q-4 -19 -4 -44q7 -94 97 -98q107 0 134 134q1 2 1 4z" glyph-name="zero" unicode="0"/>
<glyph d="M486 739l-137 -739h-133l114 614h-93l23 125h226z" glyph-name="one" unicode="1"/>
<glyph d="M487 0h-475l22 117l306 249q103 83 111 156q1 9 1 16q0 62 -47 84q-17 8 -37 8q-106 -2 -143 -146h-131q21 95 51 138q8 11 17 22q79 95 200 107q14 1 27 1q112 0 166 -78q34 -48 34 -113q0 -99 -58 -174q-44 -54 -135 -125l-177 -137h291z" glyph-name="two" unicode="2"/>
<glyph d="M535 286q0 -123 -89 -212q-89 -87 -212 -87q-112 0 -172 77q-39 52 -39 120q0 15 3 40h134v-7q0 -77 57 -100q18 -8 40 -8q68 0 112 62q29 40 29 84q0 65 -60 90q-28 11 -62 11h-23l24 128q113 3 125 71q2 10 2 20q0 47 -39 54q-6 1 -11 1q-57 -2 -75 -67h-135 q30 117 128 165q48 24 103 24q99 0 143 -73q23 -38 23 -88q-1 -110 -89 -165q72 -40 81 -112q2 -14 2 -28z" glyph-name="three" unicode="3"/>
<glyph d="M543 229l-22 -118h-78l-21 -111h-133l21 111h-320l20 107l437 521h112l-94 -510h78zM332 229l53 286l-237 -286h184z" glyph-name="four" unicode="4"/>
<glyph d="M540 298q0 -117 -85 -210q-86 -94 -205 -101h-16q-101 0 -165 72q-49 55 -49 124q0 13 3 38h133q0 -96 76 -110q12 -2 24 -2q69 0 114 64q33 47 33 102q0 66 -52 92q-21 10 -46 10q-52 0 -101 -46q-6 -5 -11 -10l-112 32l141 386h334l-23 -125h-234l-50 -136 q61 21 101 21q111 0 162 -86q28 -49 28 -115z" glyph-name="five" unicode="5"/>
<glyph d="M554 302q0 -115 -82 -208q-86 -98 -207 -106q-10 -1 -19 -1q-107 0 -169 74q-45 54 -45 123q0 126 104 253q6 7 10 12l247 290h159l-226 -263q32 10 63 10q102 0 144 -85q21 -44 21 -99zM417 267q0 67 -53 92q-21 10 -47 10q-74 0 -118 -63q-30 -43 -30 -97q0 -71 59 -93 q20 -7 43 -7q68 0 113 60q33 44 33 98z" glyph-name="six" unicode="6"/>
<glyph d="M584 614l-380 -614h-149l388 614h-293l23 125h434z" glyph-name="seven" unicode="7"/>
<glyph d="M537 274q0 -110 -85 -196t-198 -91h-10q-118 0 -173 85q-32 50 -32 118q0 98 70 170q31 32 71 51q-37 57 -38 102q0 94 76 167q76 72 170 72q91 0 137 -66q27 -40 27 -91q0 -107 -71 -169q-10 -9 -19 -15q59 -38 71 -92q4 -20 4 -45zM424 565q0 55 -46 64q-8 1 -15 1 q-45 0 -75 -43q-18 -26 -18 -55q0 -40 34 -57q14 -6 28 -6q46 0 75 42q17 26 17 54zM400 247q0 59 -47 84q-20 10 -44 10q-60 0 -103 -54q-30 -39 -30 -84q0 -63 51 -86q19 -8 41 -8q60 0 102 54q30 39 30 84z" glyph-name="eight" unicode="8"/>
<glyph d="M598 554q0 -126 -107 -256q-4 -4 -7 -8l-247 -290h-159l227 263q-35 -12 -63 -12q-95 0 -139 79q-25 46 -25 107q0 116 83 210q86 96 204 104q10 1 19 1q112 0 173 -76q41 -52 41 -122zM461 530q0 65 -53 90q-22 10 -48 10q-73 0 -117 -67q-28 -44 -28 -94q0 -62 49 -89 q23 -12 49 -12q74 0 118 63q30 44 30 99z" glyph-name="nine" unicode="9"/>
<glyph d="M268 502l-24 -128h-134l24 128h134zM200 128l-24 -128h-134l24 128h134z" glyph-name="colon" horiz-adv-x="280" unicode=":"/>
<glyph d="M175 -7q-15 -78 -79 -115q-33 -18 -68 -18h-11l12 67q70 11 72 73h-58l24 128h133zM268 502l-24 -128h-134l24 128h134z" glyph-name="semicolon" horiz-adv-x="280" unicode=";"/>
<glyph d="M515 -142l-427 338v108l427 338v-176l-273 -216l273 -216v-176z" glyph-name="less" horiz-adv-x="600" unicode="&lt;"/>
<glyph d="M569 273h-492v138h492v-138zM569 89h-492v138h492v-138z" glyph-name="equal" horiz-adv-x="600" unicode="="/>
<glyph d="M515 196l-427 -338v176l273 216l-273 216v176l427 -338v-108z" glyph-name="greater" horiz-adv-x="600" unicode="&gt;"/>
<glyph d="M556 568q-1 -74 -40 -131q-26 -36 -100 -93q-56 -44 -73 -81q-11 -26 -20 -76h-133q20 108 60 160q32 42 107 95q60 46 62 104q0 50 -45 68q-16 6 -34 6q-78 0 -107 -98q-1 -1 -1 -2h-133q32 132 135 194q63 38 137 38q103 0 154 -76q31 -46 31 -108zM289 0h-133l23 128 h133z" glyph-name="question" unicode="?"/>
<glyph d="M801 483q0 -153 -88 -248q-74 -81 -178 -81q-81 1 -90 54q-48 -54 -125 -54q-88 0 -120 71q-13 30 -13 67q0 119 79 205q75 79 172 80q71 0 102 -51q2 -4 4 -7l17 54h97l-89 -295q-3 -14 -4 -25q2 -15 24 -16q49 0 94 69q50 77 50 170q0 121 -95 180q-61 37 -146 37 q-149 0 -262 -103q-110 -99 -126 -242q-2 -21 -2 -41q0 -123 94 -192q76 -55 184 -55q84 1 162 47l35 -60q-86 -52 -166 -58q-20 -2 -43 -2q-167 0 -261 106q-73 83 -73 201q0 169 113 303q107 127 264 160q45 9 89 9q165 0 246 -104q55 -72 55 -179zM498 398q-8 62 -60 67 q-59 0 -99 -54q-28 -38 -28 -83q0 -59 51 -67q7 -1 14 -1q56 0 94 54q28 39 28 84z" glyph-name="at" horiz-adv-x="740" unicode="@"/>
<glyph d="M703 0h-151l-44 191h-263l-117 -191h-151l445 739h108zM478 323l-38 223l-120 -223h158z" glyph-name="A" horiz-adv-x="740" unicode="A"/>
<glyph d="M563 264q0 -126 -100 -200q-88 -64 -228 -64h-197l137 739h153q123 0 166 -20q13 -6 25 -15q58 -44 58 -124q0 -121 -101 -173q-5 -2 -9 -4q74 -32 90 -88q6 -23 6 -51zM423 241q0 61 -68 75q-24 4 -56 4h-65l-35 -188h68q147 0 155 97q1 7 1 12zM437 549q-2 57 -94 58 h-56l-28 -153h44q128 10 134 95z" glyph-name="B" horiz-adv-x="580" unicode="B"/>
<glyph d="M828 527h-154q-46 80 -137 91q-19 2 -39 2q-110 0 -198 -81q-92 -84 -98 -199v-13q0 -107 77 -166q55 -42 128 -42q83 0 159 55q20 14 41 32h161q-75 -125 -213 -184q-84 -35 -170 -35q-150 0 -243 100q-80 89 -80 216q0 150 109 278q103 122 249 159q50 12 98 12 q164 0 252 -109q40 -50 58 -116z" glyph-name="C" horiz-adv-x="780" unicode="C"/>
<glyph d="M704 452q0 -150 -88 -276q-45 -62 -101 -102q-93 -65 -244 -73q-29 -1 -61 -1h-172l137 739h169q277 0 340 -163q20 -53 20 -124zM564 421q0 118 -84 159q-58 28 -165 28h-27l-89 -477h30q148 0 221 55q16 12 29 26q85 89 85 209z" glyph-name="D" horiz-adv-x="700" unicode="D"/>
<glyph d="M548 607h-260l-33 -172h249l-24 -132h-249l-32 -171h260l-24 -132h-397l137 739h397z" glyph-name="E" horiz-adv-x="520" unicode="E"/>
<glyph d="M527 607h-239l-33 -172h228l-24 -132h-228l-56 -303h-137l137 739h376z" glyph-name="F" horiz-adv-x="480" unicode="F"/>
<glyph d="M858 377q-14 -138 -130 -250t-266 -135q-32 -5 -62 -5q-161 0 -257 100q-82 87 -82 213q0 154 111 283q107 122 259 158q49 11 98 11q136 0 232 -84q72 -63 87 -146h-161q-60 98 -180 98q-125 0 -216 -90q-87 -93 -90 -206q0 -108 80 -165q57 -40 137 -40q119 0 204 85 q20 21 36 45h-306l24 128h482z" glyph-name="G" horiz-adv-x="840" unicode="G"/>
<glyph d="M576 0h-137l57 310h-264l-57 -310h-137l137 739h137l-55 -297h264l55 297h137z" glyph-name="H" horiz-adv-x="680" unicode="H"/>
<glyph d="M312 739l-137 -739h-137l137 739h137z" glyph-name="I" horiz-adv-x="280" unicode="I"/>
<glyph d="M521 739l-98 -527q-28 -147 -136 -201q-49 -24 -105 -24q-98 0 -146 65q-28 39 -28 88q0 8 2 35h137l1 -7q9 -48 55 -49q66 0 84 95v2l97 523h137z" glyph-name="J" horiz-adv-x="480" unicode="J"/>
<glyph d="M569 0h-164l-170 325l-60 -325h-137l137 739h137l-59 -319l289 319h164l-344 -363z" glyph-name="K" horiz-adv-x="620" unicode="K"/>
<glyph d="M402 0h-364l137 739h137l-113 -607h227z" glyph-name="L" horiz-adv-x="440" unicode="L"/>
<glyph d="M810 0h-137l103 554l-296 -554h-112l-90 554l-103 -554h-137l137 739h188l95 -560l301 560h188z" glyph-name="M" horiz-adv-x="900" unicode="M"/>
<glyph d="M637 0h-153l-209 537l-100 -537h-137l137 739h156l206 -538l100 538h137z" glyph-name="N" horiz-adv-x="740" unicode="N"/>
<glyph d="M845 439q0 -156 -111 -285q-105 -123 -257 -157q-46 -10 -91 -10q-151 0 -243 98q-82 88 -82 215q0 158 116 287q107 120 258 154q48 11 94 11q147 0 237 -99q79 -87 79 -214zM705 419q0 103 -76 161q-54 40 -127 40q-112 0 -202 -84t-98 -195q-1 -9 -1 -18 q0 -105 79 -163q55 -41 130 -41q113 0 201 85q89 86 94 205v10z" glyph-name="O" horiz-adv-x="840" unicode="O"/>
<glyph d="M609 562q0 -97 -60 -179q-14 -17 -28 -31q-53 -50 -117 -62q-46 -9 -133 -9h-44l-52 -281h-137l137 739h183q131 0 178 -32q3 -1 4 -2q68 -50 69 -143zM469 529q0 49 -32 64q-30 14 -103 14h-46l-37 -195h40q160 0 176 93q2 12 2 24z" glyph-name="P" unicode="P"/>
<glyph d="M818 110l-23 -124q-11 -1 -24 -1q-66 0 -114 29q-20 12 -44 31q-106 -58 -218 -58q-151 0 -247 97q-87 88 -87 215q0 158 113 287q108 122 263 156q48 10 94 10q162 0 254 -102q74 -83 74 -205q0 -187 -131 -308q-5 -4 -9 -8q34 -22 69 -22q12 0 30 3zM514 138 q-98 96 -219 97q-31 0 -73 -8q63 -107 196 -108q48 0 96 19zM719 418q0 109 -82 165q-55 37 -131 37q-123 0 -213 -87q-83 -81 -93 -199q50 13 123 13q173 -1 301 -143q78 64 92 175q3 20 3 39z" glyph-name="Q" horiz-adv-x="840" unicode="Q"/>
<glyph d="M538 0h-169l-142 283l-52 -283h-137l137 739h213q238 -1 239 -186q0 -148 -118 -228q-52 -35 -120 -52zM487 521q0 57 -46 74q-32 12 -92 12h-61l-41 -221h67q150 0 170 104q3 15 3 31z" glyph-name="R" horiz-adv-x="580" unicode="R"/>
<glyph d="M508 265q0 -106 -83 -190q-91 -84 -199 -88q-115 0 -172 76q-35 46 -35 108q0 9 2 40h143q-1 -9 -1 -21q0 -54 54 -67q15 -4 31 -4q65 0 100 49q20 27 20 59q-1 38 -22 57q-20 16 -71 38q-17 7 -47 19q-115 46 -121 152v13q0 97 78 172q78 74 177 74q98 0 152 -65 q35 -43 35 -98q0 -22 -4 -47h-141q0 63 -37 74q-12 4 -29 4q-50 0 -77 -43q-14 -23 -14 -48q1 -29 30 -51q15 -11 74 -32l1 -1h1q118 -44 145 -116q10 -29 10 -64z" glyph-name="S" horiz-adv-x="520" unicode="S"/>
<glyph d="M501 607h-139l-113 -607h-137l113 607h-136l24 132h412z" glyph-name="T" horiz-adv-x="420" unicode="T"/>
<glyph d="M588 271q-32 -174 -156 -246q-67 -38 -147 -38q-106 0 -165 72q-41 51 -41 117q0 44 10 95l86 468h137l-86 -468q-9 -48 -9 -70q0 -45 43 -69q23 -13 49 -13q108 0 139 137q2 8 3 15l86 468h137z" glyph-name="U" horiz-adv-x="640" unicode="U"/>
<glyph d="M801 739l-423 -739h-112l-151 739h144l95 -562l303 562h144z" glyph-name="V" horiz-adv-x="700" unicode="V"/>
<glyph d="M1005 739l-353 -739h-109l-28 489l-213 -489h-108l-80 739h140l34 -516l222 516h100l28 -516l227 516h140z" glyph-name="W" horiz-adv-x="900" unicode="W"/>
<glyph d="M646 0h-159l-130 255l-219 -255h-163l322 368l-185 371h163l124 -258l225 258h159l-325 -371z" glyph-name="X" horiz-adv-x="680" unicode="X"/>
<glyph d="M733 739l-329 -466l-51 -273h-137l51 273l-157 466h148l100 -340l227 340h148z" glyph-name="Y" horiz-adv-x="620" unicode="Y"/>
<glyph d="M450 0h-462l21 117l372 490h-265l24 132h428l-23 -124l-368 -483h297z" glyph-name="Z" horiz-adv-x="500" unicode="Z"/>
<glyph d="M237 -137q-109 26 -149 120q-18 42 -18 90q0 53 11 114l48 259q33 191 194 266q36 17 76 27l-27 -147q-60 -23 -85 -75q-16 -35 -28 -98l-48 -255q-5 -31 -5 -56q0 -58 33 -83q11 -8 25 -15z" glyph-name="bracketleft" horiz-adv-x="320" unicode="["/>
<glyph d="M473 0h-96l-186 739h96z" glyph-name="backslash" horiz-adv-x="640" unicode="\"/>
<glyph d="M257 156q-38 -207 -214 -275q-29 -11 -60 -18l27 147q62 20 88 73q16 35 29 100l48 255q5 31 5 56q0 57 -30 80q-13 9 -32 18l27 147q109 -21 152 -115q19 -44 19 -95q0 -53 -11 -114z" glyph-name="bracketright" horiz-adv-x="320" unicode="]"/>
<glyph d="M580 358l-115 -33l-83 270l-184 -271l-98 55l245 371h121z" glyph-name="asciicircum" horiz-adv-x="600" unicode="^"/>
<glyph d="M445 -138h-501l16 90h501z" glyph-name="underscore" horiz-adv-x="500" unicode="_"/>
<glyph d="M401 691l-73 -88l-200 116l84 99z" glyph-name="grave" horiz-adv-x="420" unicode="`"/>
<glyph d="M586 0h-122l13 72q-95 -82 -200 -85q-128 0 -191 89q-41 57 -41 137q0 139 96 243q94 101 227 110q11 1 22 1q116 -1 163 -87l13 74h122zM514 313q0 87 -69 119q-29 13 -65 13q-86 0 -146 -70q-52 -60 -52 -135q0 -84 68 -117q30 -14 67 -14q95 0 153 73q44 56 44 131z " glyph-name="a" horiz-adv-x="660" unicode="a"/>
<glyph d="M665 343q0 -140 -96 -246q-87 -97 -203 -109q-14 -1 -27 -1q-85 0 -133 36q-23 19 -47 48l-13 -71h-122l137 739h133l-44 -236q73 59 144 68q22 3 46 3q113 0 177 -82q48 -63 48 -149zM528 314q0 89 -66 123q-30 15 -67 15q-90 0 -149 -73q-49 -60 -49 -138t62 -114 q32 -18 73 -18q88 0 148 71q48 59 48 134z" glyph-name="b" horiz-adv-x="660" unicode="b"/>
<glyph d="M640 369h-150q-25 75 -113 76q-87 0 -145 -69q-48 -58 -48 -131q0 -85 64 -120q30 -16 67 -16q80 0 134 65q3 5 6 8h150q-87 -154 -237 -187q-37 -8 -74 -8q-119 0 -191 82q-56 65 -56 154q0 127 95 229q93 99 220 113q18 2 35 2q137 0 203 -96q30 -44 40 -102z" glyph-name="c" horiz-adv-x="640" unicode="c"/>
<glyph d="M583 0h-122l14 72q-92 -85 -199 -85q-125 0 -188 90q-42 60 -42 143q0 133 93 237q90 101 214 115q17 2 33 2q96 0 147 -56q6 -7 11 -13l43 234h133zM516 314q0 86 -64 121q-31 17 -69 17q-88 0 -149 -70q-51 -59 -51 -134q0 -82 62 -119q34 -20 76 -20q81 0 141 69 q54 61 54 136z" glyph-name="d" horiz-adv-x="660" unicode="d"/>
<glyph d="M615 218h-429q0 -63 59 -93q32 -16 71 -16q80 1 135 55h145q-63 -115 -186 -158q-55 -19 -113 -19q-129 0 -199 85q-52 63 -52 151q0 127 95 228q92 99 219 114q20 2 38 2q122 0 189 -83q48 -60 48 -142q0 -76 -20 -124zM511 336q-8 108 -134 109q-86 0 -142 -60 q-20 -23 -31 -49h307z" glyph-name="e" horiz-adv-x="640" unicode="e"/>
<glyph d="M383 737l-24 -126h-18q-71 -2 -80 -67h78l-21 -111h-78l-80 -433h-133l80 433h-48l21 111h48q41 155 160 188q27 7 56 7q18 0 39 -2z" glyph-name="f" horiz-adv-x="280" unicode="f"/>
<glyph d="M601 105q-59 -317 -334 -326h-15q-203 1 -252 176h151q38 -53 107 -58q11 -1 22 -1q116 0 165 110q13 30 23 67q-77 -74 -161 -84q-17 -2 -36 -2q-127 0 -188 92q-37 58 -37 138q0 138 94 241q92 100 220 108q11 1 21 1q98 0 149 -63l14 -20l13 70h127zM504 315 q0 81 -63 114q-30 16 -68 16q-96 0 -151 -78q-39 -57 -39 -134q0 -87 71 -114q26 -10 57 -10q94 0 151 77q42 57 42 129z" glyph-name="g" horiz-adv-x="660" unicode="g"/>
<glyph d="M515 0h-133l52 283q9 48 9 81q0 67 -62 80q-12 2 -25 2q-86 0 -122 -79q-16 -35 -25 -86l-52 -281h-133l137 739h133l-41 -223q63 52 149 52q110 0 157 -73q24 -38 24 -87q0 -44 -10 -95z" glyph-name="h" horiz-adv-x="600" unicode="h"/>
<glyph d="M260 554l-103 -554h-133l103 554h133zM300 766l-25 -132h-133l25 132h133z" glyph-name="i" horiz-adv-x="240" unicode="i"/>
<glyph d="M278 554l-96 -517q-25 -151 -136 -202q-43 -19 -93 -20l24 129q41 7 54 29q10 19 19 67l95 514h133zM318 766l-25 -132h-133l25 132h133z" glyph-name="j" horiz-adv-x="260" unicode="j"/>
<glyph d="M525 0h-179l-141 259l-48 -259h-133l137 739h133l-83 -446l225 261h159l-248 -271z" glyph-name="k" horiz-adv-x="580" unicode="k"/>
<glyph d="M294 739l-137 -739h-133l137 739h133z" glyph-name="l" horiz-adv-x="240" unicode="l"/>
<glyph d="M855 0h-133l56 304q7 44 7 67q0 48 -45 67q-18 7 -38 7q-72 0 -106 -54q-25 -41 -39 -118l-51 -273h-133l56 304q7 40 7 55q-2 85 -88 86q-70 0 -101 -52q-24 -40 -39 -120l-51 -273h-133l103 554h122l-10 -52q60 60 141 65h17q105 0 142 -79q2 -4 3 -7q78 86 195 86 q130 0 170 -90q15 -34 15 -75q0 -36 -8 -82z" glyph-name="m" horiz-adv-x="940" unicode="m"/>
<glyph d="M516 0h-133l50 271q9 50 9 92q-2 81 -84 82q-76 0 -113 -62q-26 -44 -40 -122l-48 -261h-133l103 554h123l-10 -53q73 58 138 65q14 1 27 1q138 0 170 -104q8 -28 8 -60q0 -41 -12 -106z" glyph-name="n" horiz-adv-x="600" unicode="n"/>
<glyph d="M645 327q0 -125 -96 -225q-94 -98 -223 -113q-20 -2 -38 -2q-114 0 -185 80q-57 65 -57 154q0 129 96 230q94 100 224 114q18 2 35 2q120 0 190 -84q54 -66 54 -156zM508 309q0 76 -57 114q-33 22 -73 22q-81 0 -142 -67q-53 -61 -53 -134q0 -75 58 -113q33 -22 74 -22 q79 0 139 67q54 60 54 133z" glyph-name="o" horiz-adv-x="640" unicode="o"/>
<glyph d="M661 344q0 -144 -95 -248q-93 -102 -225 -109h-16q-99 1 -158 65l-44 -237h-133l137 739h122l-12 -65q65 67 169 77q13 1 26 1q122 0 185 -83q44 -58 44 -140zM524 309q0 77 -57 115q-32 21 -74 21q-85 0 -145 -69q-51 -60 -51 -135q0 -74 60 -111q34 -21 76 -21 q78 0 138 67q53 61 53 133z" glyph-name="p" horiz-adv-x="660" unicode="p"/>
<glyph d="M684 554l-137 -739h-133l44 238q-76 -66 -182 -66q-120 0 -184 87q-45 62 -45 149q0 128 93 230q90 99 214 112q17 2 32 2q110 0 156 -73q3 -6 6 -11l14 71h122zM510 307q0 86 -63 121q-30 17 -67 17q-87 0 -147 -70q-49 -58 -49 -132q0 -88 68 -121q29 -13 64 -13 q83 0 143 68q51 58 51 130z" glyph-name="q" horiz-adv-x="660" unicode="q"/>
<glyph d="M382 567l-24 -128q-88 -1 -126 -74q-14 -26 -18 -57l-57 -308h-133l103 554h122l-10 -54q46 56 98 64q20 4 45 3z" glyph-name="r" horiz-adv-x="320" unicode="r"/>
<glyph d="M425 209q0 -91 -76 -158q-71 -64 -161 -64q-98 0 -144 66q-25 37 -25 84q0 10 2 39h134q3 -66 62 -67q42 0 62 34q9 15 9 30q0 24 -27 39q-18 9 -55 22q-91 32 -113 74q-13 25 -13 62q0 85 73 145q65 52 147 52q75 0 122 -53q30 -35 30 -75q0 -16 -3 -38h-130 q-3 43 -44 44q-35 0 -52 -31q-6 -12 -6 -24q0 -18 12 -25q16 -10 70 -27q93 -30 115 -74q11 -23 11 -55z" glyph-name="s" horiz-adv-x="440" unicode="s"/>
<glyph d="M360 554l-23 -121h-80l-80 -433h-133l80 433h-65l23 121h65l34 185h133l-34 -185h80z" glyph-name="t" horiz-adv-x="300" unicode="t"/>
<glyph d="M620 554l-103 -554h-123l10 53q-74 -61 -157 -66h-17q-107 0 -151 79q-21 38 -21 86q0 41 12 105l55 297h133l-50 -271q-11 -57 -10 -96q0 -62 56 -75q13 -3 26 -3q76 0 111 48q31 44 48 136l48 261h133z" glyph-name="u" horiz-adv-x="600" unicode="u"/>
<glyph d="M626 554l-326 -554h-106l-120 554h148l60 -367l194 367h150z" glyph-name="v" unicode="v"/>
<glyph d="M858 554l-303 -554h-83l-38 359l-174 -359h-82l-95 554h143l36 -338l156 338h106l28 -338l164 338h142z" glyph-name="w" horiz-adv-x="800" unicode="w"/>
<glyph d="M524 0h-160l-81 190l-152 -190h-160l250 286l-120 268h150l69 -167l129 167h150l-219 -268z" glyph-name="x" unicode="x"/>
<glyph d="M641 554l-455 -739h-143l146 237l-110 502h152l56 -359l201 359h153z" glyph-name="y" horiz-adv-x="580" unicode="y"/>
<glyph d="M435 118l-22 -118h-423l22 118l305 318h-217l22 118h376l-22 -118l-304 -318h263z" glyph-name="z" horiz-adv-x="460" unicode="z"/>
<glyph d="M409 739l-15 -80q-57 -7 -72 -28q-5 -8 -9 -20l-13 -54l-23 -123q-18 -109 -104 -126q-1 -1 -10 -3q59 -13 68 -55q3 -13 3 -27q0 -28 -4 -46l-23 -123q-7 -38 -7 -42l-3 -18l3 -15q7 -22 63 -27l-15 -80q-15 -1 -32 -1q-110 0 -124 68q-3 13 -3 27q0 21 5 44l29 157 q4 28 4 34q-2 50 -63 64l15 81q65 15 84 58q7 17 11 40l29 157q19 105 100 129q32 10 75 10q18 0 31 -1z" glyph-name="braceleft" horiz-adv-x="340" unicode="{"/>
<glyph d="M392 -137h-138v876h138v-876z" glyph-name="bar" horiz-adv-x="600" unicode="|"/>
<glyph d="M315 265q-72 -11 -92 -79q-2 -10 -4 -19l-29 -157q-19 -103 -94 -128q-33 -11 -80 -11q-19 0 -32 1l15 80l7 1q46 6 57 16q13 12 28 78q1 4 2 7l23 123q17 93 79 118q12 5 26 8q2 1 9 3q-57 14 -68 55q-3 13 -3 30q0 25 4 43l23 123q9 49 10 56q0 27 -21 36q-14 5 -45 10 l15 80q16 1 33 1q114 0 125 -76q1 -9 1 -19t-5 -44l-29 -157q-3 -16 -3 -33q0 -51 54 -63q5 -1 9 -2z" glyph-name="braceright" horiz-adv-x="340" unicode="}"/>
<glyph d="M589 347q-79 -100 -138 -114q-14 -3 -27 -3q-34 1 -88 24l-50 22q-46 20 -60 20q-27 -1 -51 -22l-1 -1q-9 -7 -48 -56l-1 -1l-1 -2l-49 75q67 87 109 108q28 15 63 15q33 0 72 -16l63 -27q51 -22 60 -22h6q37 2 91 74z" glyph-name="asciitilde" horiz-adv-x="600" unicode="~"/>
<glyph glyph-name="uni00A0" horiz-adv-x="280" unicode=" "/>
<glyph d="M144 -185h-133l102 551h133zM281 554l-24 -128h-133l24 128h133z" glyph-name="exclamdown" horiz-adv-x="280" unicode="¡"/>
<glyph d="M539 310q-63 -105 -148 -144q-24 -11 -50 -18l-21 -109h-125l21 109q-93 21 -126 109q-14 36 -14 76q0 114 84 199q60 59 141 79l20 104h125l-20 -104q84 -20 120 -95q16 -34 17 -73h-142q-13 30 -55 42q-14 4 -26 4q-63 0 -102 -53q-25 -36 -25 -78q0 -60 51 -81 q18 -7 39 -7q34 0 73 28q8 5 17 12h146z" glyph-name="cent" unicode="¢"/>
<glyph d="M576 243q0 -61 -53 -132q-16 -22 -33 -38q-63 -59 -151 -69q-30 -4 -68 -4h-261l23 125h140q34 47 34 99q-1 46 -38 86h-142l24 125h58q-6 20 -6 39q0 107 84 191q91 84 201 87q101 0 158 -69q40 -48 40 -111q0 -5 -2 -31h-135q0 62 -48 83q-15 6 -31 6q-60 0 -101 -55 q-29 -40 -29 -86q0 -30 12 -54h207l-24 -125h-107q15 -42 15 -76q0 -45 -27 -104q-1 -3 -2 -5h10q113 0 117 147v2h132q3 -21 3 -31z" glyph-name="sterling" unicode="£"/>
<glyph d="M610 572l-50 -43q17 -45 17 -83q0 -72 -33 -128q-13 -21 -32 -46l34 -43l-92 -81l-37 42q-67 -36 -142 -37q-62 1 -120 37l-51 -42l-65 81l51 43q-18 39 -18 74q1 102 66 183l-35 45l95 80l37 -44q65 36 134 36q71 -1 126 -36l53 44zM454 422q0 58 -48 88q-26 15 -55 15 q-66 0 -114 -51q-42 -44 -42 -103q0 -49 46 -80q27 -18 58 -18q70 0 119 57q36 43 36 92z" glyph-name="currency" unicode="¤"/>
<glyph d="M696 739l-191 -272h95l-16 -87h-144l-76 -106h192l-16 -87h-192l-35 -187h-133l35 187h-194l16 87h194l-36 106h-144l16 87h97l-90 272h149l97 -341l222 341h154z" glyph-name="yen" unicode="¥"/>
<glyph d="M392 389h-138v350h138v-350zM392 -137h-138v350h138v-350z" glyph-name="brokenbar" horiz-adv-x="600" unicode="¦"/>
<glyph d="M560 321q0 -74 -61 -134q-20 -18 -44 -37q31 -35 31 -87q0 -91 -77 -157q-75 -63 -178 -63q-112 0 -164 74q-29 41 -29 92q0 20 3 46h133q-4 -16 -4 -31q0 -34 43 -51q21 -8 45 -8q59 0 87 39q13 18 13 38q0 21 -24 37q-12 9 -38 24l-148 84q-65 37 -74 96q-2 13 -2 27 q1 115 110 183q-14 29 -14 62q0 93 81 150q66 47 156 47q121 0 159 -87q14 -33 14 -73q0 -18 -1 -29h-126q-4 51 -37 62q-16 5 -40 5q-64 0 -76 -43q-2 -8 -2 -16q2 -33 49 -59l149 -81q65 -36 66 -110zM432 286q0 20 -23 36q-11 7 -29 17l-135 74q-49 -34 -53 -59l1 -12 q4 -26 50 -51l138 -76q50 37 51 71z" glyph-name="section" unicode="§"/>
<glyph d="M318 766l-25 -132h-133l25 132h133zM528 766l-25 -132h-133l25 132h133z" glyph-name="dieresis" horiz-adv-x="500" unicode="¨"/>
<glyph d="M743 337q0 -141 -98 -243q-98 -101 -237 -107h-15q-141 0 -243 98q-101 98 -107 237v15q0 141 98 243q98 101 237 107h15q141 0 243 -98q101 -98 107 -237v-15zM683 337q0 123 -88 208q-85 82 -202 82q-123 0 -208 -88q-82 -85 -82 -202q0 -123 88 -208q85 -82 202 -82 q123 0 208 88q82 85 82 202zM618 407h-104q-36 45 -95 47q-70 0 -118 -52q-36 -39 -36 -86q1 -57 53 -84q25 -12 55 -12q52 0 106 42l3 3h110q-41 -80 -133 -116q-48 -18 -97 -18q-104 0 -159 71q-33 44 -35 101q-1 91 77 165q81 75 184 75q113 0 164 -78q17 -26 25 -58z " glyph-name="copyright" horiz-adv-x="740" unicode="©"/>
<glyph d="M450 741l-56 -298h-66l8 41q-49 -49 -112 -51q-68 0 -100 59q-16 31 -16 68q0 84 67 144q53 48 116 48q55 -1 85 -50l8 39h66zM352 613q0 41 -36 59q-15 7 -31 7q-46 0 -78 -45q-20 -28 -20 -58q0 -46 37 -64q14 -6 28 -6q51 0 82 47q18 28 18 60zM388 382l-13 -70h-315 l13 70h315z" glyph-name="ordfeminine" horiz-adv-x="360" unicode="ª"/>
<glyph d="M193 231l-23 -123l-115 131l19 100l163 130l-23 -123l-78 -57zM406 231l-23 -123l-115 131l19 100l163 130l-23 -123l-78 -57z" glyph-name="guillemotleft" horiz-adv-x="460" unicode="«"/>
<glyph d="M569 158h-138v115h-354v138h492v-253z" glyph-name="logicalnot" horiz-adv-x="600" unicode="¬"/>
<glyph d="M391 347l-22 -118h-277l22 118h277z" glyph-name="uni00AD" horiz-adv-x="420" unicode="­"/>
<glyph d="M743 337q0 -141 -98 -243q-98 -101 -237 -107h-15q-141 0 -243 98q-101 98 -107 237v15q0 141 98 243q98 101 237 107h15q141 0 243 -98q101 -98 107 -237v-15zM683 337q0 123 -88 208q-85 82 -202 82q-123 0 -208 -88q-82 -85 -82 -202q0 -123 88 -208q85 -82 202 -82 q123 0 208 88q82 85 82 202zM566 431q3 -89 -79 -132q-21 -11 -45 -18l88 -143h-118l-72 128l-24 -128h-96l74 399h127q142 -1 145 -106zM469 414q0 26 -31 32q-15 2 -37 2h-27l-17 -92h26q87 1 86 58z" glyph-name="registered" horiz-adv-x="740" unicode="®"/>
<glyph d="M441 651h-279l17 99h280z" glyph-name="macron" horiz-adv-x="420" unicode="¯"/>
<glyph d="M432 536q0 -75 -60 -119q-42 -31 -93 -31q-76 0 -122 60q-30 41 -30 91q0 74 61 119q42 30 94 30q72 0 118 -58q32 -42 32 -92zM375 536q0 50 -43 78q-24 15 -51 15q-55 0 -83 -45q-14 -22 -14 -47q0 -51 44 -79q24 -15 51 -15q53 0 81 44q15 23 15 49z" glyph-name="degree" horiz-adv-x="400" unicode="°"/>
<glyph d="M569 319h-177v-57h-138v57h-177v138h177v177h138v-177h177v-138zM569 0h-492v138h492v-138z" glyph-name="plusminus" horiz-adv-x="600" unicode="±"/>
<glyph d="M349 296h-309l15 75l193 147q69 54 70 97q0 44 -42 50q-6 1 -11 1q-63 0 -85 -83q-1 -1 -1 -2h-89q26 129 134 158q27 7 56 7q77 0 113 -55q17 -28 17 -61q0 -90 -107 -169q-7 -5 -13 -10l-104 -73h178z" glyph-name="two.superior" horiz-adv-x="336" unicode="²"/>
<glyph d="M383 465q0 -78 -68 -132q-56 -45 -127 -45q-78 0 -116 56q-20 30 -20 67q0 5 2 25h91v-8q0 -45 39 -57q9 -3 19 -3q47 0 74 39q14 20 14 42q0 42 -48 52q-21 4 -50 4l16 84q83 1 84 48q-4 27 -34 29q-35 -2 -43 -39h-92q20 82 92 109q27 10 56 10q70 0 100 -51 q13 -23 13 -50q-1 -57 -56 -94q53 -30 54 -86z" glyph-name="three.superior" horiz-adv-x="336" unicode="³"/>
<glyph d="M498 719l-243 -116l-40 88l236 127z" glyph-name="acute" horiz-adv-x="420" unicode="´"/>
<glyph d="M620 554l-103 -554h-123l10 53q-54 -62 -116 -66h-10q-69 1 -111 65l-44 -237h-133l137 739h133l-52 -278q-4 -20 -4 -37q0 -79 52 -114q24 -16 53 -16q54 0 89 47q2 3 3 4q17 26 28 82q4 19 10 51l48 261h133z" glyph-name="uni00B5" horiz-adv-x="576" unicode="µ"/>
<glyph d="M634 739l-161 -867h-102l141 760h-83l-141 -760h-101l85 458q-144 8 -165 120q-4 19 -4 39q0 91 62 163q11 13 22 23q64 56 181 63q23 1 48 1h218z" glyph-name="paragraph" horiz-adv-x="600" unicode="¶"/>
<glyph d="M227 250q0 -39 -35 -57q-14 -7 -29 -7q-39 0 -57 35q-7 14 -7 29q0 39 35 57q14 7 29 7q39 0 57 -35q7 -14 7 -29z" glyph-name="periodcentered" horiz-adv-x="280" unicode="·"/>
<glyph d="M211 -152q-12 -65 -69 -89q-22 -9 -45 -9q-60 0 -78 50q-6 16 -6 34h61q9 -28 32 -29q26 0 42 28q7 13 7 25q0 28 -23 35q-5 1 -9 1q-20 -1 -43 -27l-47 26l66 112h52l-42 -63q20 7 30 7q47 0 66 -44q8 -17 8 -37q0 -7 -2 -20z" glyph-name="cedilla" horiz-adv-x="340" unicode="¸"/>
<glyph d="M266 296h-87l67 361h-67l15 82h154z" glyph-name="one.superior" horiz-adv-x="336" unicode="¹"/>
<glyph d="M421 625q0 -78 -65 -134q-54 -47 -120 -47q-67 0 -105 53q-23 33 -23 72q0 79 65 136q55 47 122 47q79 0 111 -62q15 -29 15 -65zM347 612q0 46 -38 64q-13 6 -28 6q-50 0 -81 -45q-18 -26 -18 -55q0 -44 39 -60q14 -5 29 -5q50 0 80 43q17 25 17 52zM367 313h-307l13 70 h307z" glyph-name="ordmasculine" horiz-adv-x="360" unicode="º"/>
<glyph d="M250 339l-19 -100l-163 -131l23 123l79 58l-58 57l23 123zM463 339l-19 -100l-163 -131l23 123l79 58l-58 57l23 123z" glyph-name="guillemotright" horiz-adv-x="460" unicode="»"/>
<glyph d="M815 65h-48l-12 -65h-91l12 65h-198l13 68l270 310h76l-56 -301h48zM690 142l28 152l-130 -152h102zM717 739l-443 -739h-95l443 739h95zM266 296h-87l67 361h-67l15 82h154z" glyph-name="onequarter" horiz-adv-x="840" unicode="¼"/>
<glyph d="M713 739l-443 -739h-95l443 739h95zM798 0h-309l15 75l193 147q69 54 70 97q0 44 -42 50q-6 1 -11 1q-63 0 -85 -83q-1 -1 -1 -2h-89q26 129 134 158q27 7 56 7q77 0 113 -55q17 -28 17 -61q0 -90 -107 -169q-7 -5 -13 -10l-104 -73h178zM271 296h-87l67 361h-67l15 82 h154z" glyph-name="onehalf" horiz-adv-x="840" unicode="½"/>
<glyph d="M815 65h-48l-12 -65h-91l12 65h-198l13 68l270 310h76l-56 -301h48zM690 142l28 152l-130 -152h102zM749 739l-443 -739h-95l443 739h95zM383 465q0 -78 -68 -132q-56 -45 -127 -45q-78 0 -116 56q-20 30 -20 67q0 5 2 25h91v-8q0 -45 39 -57q9 -3 19 -3q47 0 74 39 q14 20 14 42q0 42 -48 52q-21 4 -50 4l16 84q83 1 84 48q-4 27 -34 29q-35 -2 -43 -39h-92q20 82 92 109q27 10 56 10q70 0 100 -51q13 -23 13 -50q-1 -57 -56 -94q53 -30 54 -86z" glyph-name="threequarters" horiz-adv-x="840" unicode="¾"/>
<glyph d="M504 34q-32 -132 -135 -194q-63 -38 -137 -38q-103 0 -154 76q-31 46 -31 108q1 74 40 131q26 36 100 93q56 44 73 81q11 26 20 76h133q-20 -108 -60 -160q-32 -42 -107 -95q-60 -46 -62 -104q0 -50 45 -68q16 -6 34 -6q78 0 107 98q1 1 1 2h133zM424 426h-133l23 128 h133z" glyph-name="questiondown" unicode="¿"/>
<glyph d="M703 0h-151l-44 191h-263l-117 -191h-151l445 739h108zM478 323l-38 223l-120 -223h158zM592 866l-73 -88l-200 116l84 99z" glyph-name="Agrave" horiz-adv-x="740" unicode="À"/>
<glyph d="M703 0h-151l-44 191h-263l-117 -191h-151l445 739h108zM478 323l-38 223l-120 -223h158zM690 894l-243 -116l-40 88l236 127z" glyph-name="Aacute" horiz-adv-x="740" unicode="Á"/>
<glyph d="M703 0h-151l-44 191h-263l-117 -191h-151l445 739h108zM478 323l-38 223l-120 -223h158zM688 806h-145l-41 64l-66 -64h-147l173 138h107z" glyph-name="Acircumflex" horiz-adv-x="740" unicode="Â"/>
<glyph d="M703 0h-151l-44 191h-263l-117 -191h-151l445 739h108zM478 323l-38 223l-120 -223h158zM659 862q-45 -56 -108 -56q-2 0 -92 25q-23 6 -29 6q-21 -1 -55 -30l-38 85q41 42 88 47q5 1 9 1q9 0 79 -23q23 -8 31 -8q27 0 52 16q11 6 29 19z" glyph-name="Atilde" horiz-adv-x="740" unicode="Ã"/>
<glyph d="M703 0h-151l-44 191h-263l-117 -191h-151l445 739h108zM478 323l-38 223l-120 -223h158zM469 941l-25 -132h-133l25 132h133zM679 941l-25 -132h-133l25 132h133z" glyph-name="Adieresis" horiz-adv-x="740" unicode="Ä"/>
<glyph d="M703 0h-151l-44 191h-263l-117 -191h-151l445 739h108zM478 323l-38 223l-120 -223h158zM619 910q0 -64 -54 -106q-39 -29 -84 -29q-58 0 -82 46q-11 21 -11 45q0 64 55 106q38 29 82 29q55 0 82 -45q12 -21 12 -46zM544 895q0 21 -21 30q-6 3 -12 3q-29 0 -43 -28 q-5 -11 -5 -21q0 -21 21 -29q7 -2 13 -2q27 0 41 26q6 11 6 21z" glyph-name="Aring" horiz-adv-x="740" unicode="Å"/>
<glyph d="M926 607h-218l-33 -172h207l-24 -132h-207l-32 -171h218l-24 -132h-355l35 191h-194l-148 -191h-164l624 739h339zM518 323l35 190l-150 -190h115z" glyph-name="AE" horiz-adv-x="900" unicode="Æ"/>
<glyph d="M828 527h-154q-46 80 -137 91q-19 2 -39 2q-110 0 -198 -81q-92 -84 -98 -199v-13q0 -107 77 -166q55 -42 128 -42q83 0 159 55q20 14 41 32h161q-76 -126 -214 -184q-71 -30 -145 -34l-30 -46q20 7 30 7q47 0 66 -44q8 -17 8 -37q0 -7 -2 -20q-12 -65 -69 -89 q-22 -9 -45 -9q-60 0 -78 50q-6 16 -6 34h61q9 -28 32 -29q26 0 42 28q7 13 7 25q0 28 -23 35q-5 1 -9 1q-20 -1 -43 -27l-47 26l56 95q-145 10 -229 114q-68 85 -68 201q0 150 109 278q103 122 249 159q50 12 98 12q164 0 252 -109q40 -50 58 -116z" glyph-name="Ccedilla" horiz-adv-x="780" unicode="Ç"/>
<glyph d="M548 607h-260l-33 -172h249l-24 -132h-249l-32 -171h260l-24 -132h-397l137 739h397zM490 866l-73 -88l-200 116l84 99z" glyph-name="Egrave" horiz-adv-x="520" unicode="È"/>
<glyph d="M548 607h-260l-33 -172h249l-24 -132h-249l-32 -171h260l-24 -132h-397l137 739h397zM588 894l-243 -116l-40 88l236 127z" glyph-name="Eacute" horiz-adv-x="520" unicode="É"/>
<glyph d="M548 607h-260l-33 -172h249l-24 -132h-249l-32 -171h260l-24 -132h-397l137 739h397zM586 806h-145l-41 64l-66 -64h-147l173 138h107z" glyph-name="Ecircumflex" horiz-adv-x="520" unicode="Ê"/>
<glyph d="M548 607h-260l-33 -172h249l-24 -132h-249l-32 -171h260l-24 -132h-397l137 739h397zM367 941l-25 -132h-133l25 132h133zM577 941l-25 -132h-133l25 132h133z" glyph-name="Edieresis" horiz-adv-x="520" unicode="Ë"/>
<glyph d="M312 739l-137 -739h-137l137 739h137zM392 866l-73 -88l-200 116l84 99z" glyph-name="Igrave" horiz-adv-x="280" unicode="Ì"/>
<glyph d="M312 739l-137 -739h-137l137 739h137zM426 894l-243 -116l-40 88l236 127z" glyph-name="Iacute" horiz-adv-x="280" unicode="Í"/>
<glyph d="M312 739l-137 -739h-137l137 739h137zM456 806h-145l-41 64l-66 -64h-147l173 138h107z" glyph-name="Icircumflex" horiz-adv-x="280" unicode="Î"/>
<glyph d="M312 739l-137 -739h-137l137 739h137zM237 941l-25 -132h-133l25 132h133zM447 941l-25 -132h-133l25 132h133z" glyph-name="Idieresis" horiz-adv-x="280" unicode="Ï"/>
<glyph d="M746 456q0 -171 -101 -298q-40 -50 -90 -84q-93 -63 -237 -72q-32 -2 -68 -2h-172l59 321h-94l20 107h94l58 311h169q286 0 345 -170q17 -49 17 -113zM606 424q0 119 -91 159q-59 25 -161 25h-27l-33 -180h149l-20 -107h-149l-35 -190h30q157 0 232 63q11 9 20 18 q68 70 82 174q3 20 3 38z" glyph-name="Eth" horiz-adv-x="742" unicode="Ð"/>
<glyph d="M637 0h-153l-209 537l-100 -537h-137l137 739h156l206 -538l100 538h137zM658 862q-45 -56 -108 -56q-2 0 -92 25q-23 6 -29 6q-21 -1 -55 -30l-38 85q41 42 88 47q5 1 9 1q9 0 79 -23q23 -8 31 -8q27 0 52 16q11 6 29 19z" glyph-name="Ntilde" horiz-adv-x="740" unicode="Ñ"/>
<glyph d="M845 439q0 -156 -111 -285q-105 -123 -257 -157q-46 -10 -91 -10q-151 0 -243 98q-82 88 -82 215q0 158 116 287q107 120 258 154q48 11 94 11q147 0 237 -99q79 -87 79 -214zM705 419q0 103 -76 161q-54 40 -127 40q-112 0 -202 -84t-98 -195q-1 -9 -1 -18 q0 -105 79 -163q55 -41 130 -41q113 0 201 85q89 86 94 205v10zM643 866l-73 -88l-200 116l84 99z" glyph-name="Ograve" horiz-adv-x="840" unicode="Ò"/>
<glyph d="M845 439q0 -156 -111 -285q-105 -123 -257 -157q-46 -10 -91 -10q-151 0 -243 98q-82 88 -82 215q0 158 116 287q107 120 258 154q48 11 94 11q147 0 237 -99q79 -87 79 -214zM705 419q0 103 -76 161q-54 40 -127 40q-112 0 -202 -84t-98 -195q-1 -9 -1 -18 q0 -105 79 -163q55 -41 130 -41q113 0 201 85q89 86 94 205v10zM741 894l-243 -116l-40 88l236 127z" glyph-name="Oacute" horiz-adv-x="840" unicode="Ó"/>
<glyph d="M845 439q0 -156 -111 -285q-105 -123 -257 -157q-46 -10 -91 -10q-151 0 -243 98q-82 88 -82 215q0 158 116 287q107 120 258 154q48 11 94 11q147 0 237 -99q79 -87 79 -214zM705 419q0 103 -76 161q-54 40 -127 40q-112 0 -202 -84t-98 -195q-1 -9 -1 -18 q0 -105 79 -163q55 -41 130 -41q113 0 201 85q89 86 94 205v10zM739 806h-145l-41 64l-66 -64h-147l173 138h107z" glyph-name="Ocircumflex" horiz-adv-x="840" unicode="Ô"/>
<glyph d="M845 439q0 -156 -111 -285q-105 -123 -257 -157q-46 -10 -91 -10q-151 0 -243 98q-82 88 -82 215q0 158 116 287q107 120 258 154q48 11 94 11q147 0 237 -99q79 -87 79 -214zM705 419q0 103 -76 161q-54 40 -127 40q-112 0 -202 -84t-98 -195q-1 -9 -1 -18 q0 -105 79 -163q55 -41 130 -41q113 0 201 85q89 86 94 205v10zM710 862q-45 -56 -108 -56q-2 0 -92 25q-23 6 -29 6q-21 -1 -55 -30l-38 85q41 42 88 47q5 1 9 1q9 0 79 -23q23 -8 31 -8q27 0 52 16q11 6 29 19z" glyph-name="Otilde" horiz-adv-x="840" unicode="Õ"/>
<glyph d="M845 439q0 -156 -111 -285q-105 -123 -257 -157q-46 -10 -91 -10q-151 0 -243 98q-82 88 -82 215q0 158 116 287q107 120 258 154q48 11 94 11q147 0 237 -99q79 -87 79 -214zM705 419q0 103 -76 161q-54 40 -127 40q-112 0 -202 -84t-98 -195q-1 -9 -1 -18 q0 -105 79 -163q55 -41 130 -41q113 0 201 85q89 86 94 205v10zM520 941l-25 -132h-133l25 132h133zM730 941l-25 -132h-133l25 132h133z" glyph-name="Odieresis" horiz-adv-x="840" unicode="Ö"/>
<glyph d="M546 125l-98 -98l-125 125l-125 -125l-98 98l125 125l-125 125l98 98l125 -125l125 125l98 -98l-125 -125z" glyph-name="multiply" horiz-adv-x="600" unicode="×"/>
<glyph d="M851 438q0 -144 -104 -272q-102 -127 -250 -165q-52 -14 -104 -14q-83 0 -164 36l-88 -103l-80 69l83 98q-78 92 -78 210q0 155 110 285q105 123 253 158q49 12 97 12q81 0 158 -33l92 107l81 -69l-88 -102q82 -80 82 -217zM587 606q-41 14 -83 14q-114 0 -203 -86 q-88 -85 -95 -197v-15q1 -57 36 -121zM711 415q-1 78 -38 127l-348 -406q43 -17 89 -17q116 0 205 86q89 94 92 210z" glyph-name="Oslash" horiz-adv-x="840" unicode="Ø"/>
<glyph d="M588 271q-32 -174 -156 -246q-67 -38 -147 -38q-106 0 -165 72q-41 51 -41 117q0 44 10 95l86 468h137l-86 -468q-9 -48 -9 -70q0 -45 43 -69q23 -13 49 -13q108 0 139 137q2 8 3 15l86 468h137zM541 866l-73 -88l-200 116l84 99z" glyph-name="Ugrave" horiz-adv-x="640" unicode="Ù"/>
<glyph d="M588 271q-32 -174 -156 -246q-67 -38 -147 -38q-106 0 -165 72q-41 51 -41 117q0 44 10 95l86 468h137l-86 -468q-9 -48 -9 -70q0 -45 43 -69q23 -13 49 -13q108 0 139 137q2 8 3 15l86 468h137zM639 894l-243 -116l-40 88l236 127z" glyph-name="Uacute" horiz-adv-x="640" unicode="Ú"/>
<glyph d="M588 271q-32 -174 -156 -246q-67 -38 -147 -38q-106 0 -165 72q-41 51 -41 117q0 44 10 95l86 468h137l-86 -468q-9 -48 -9 -70q0 -45 43 -69q23 -13 49 -13q108 0 139 137q2 8 3 15l86 468h137zM637 806h-145l-41 64l-66 -64h-147l173 138h107z" glyph-name="Ucircumflex" horiz-adv-x="640" unicode="Û"/>
<glyph d="M588 271q-32 -174 -156 -246q-67 -38 -147 -38q-106 0 -165 72q-41 51 -41 117q0 44 10 95l86 468h137l-86 -468q-9 -48 -9 -70q0 -45 43 -69q23 -13 49 -13q108 0 139 137q2 8 3 15l86 468h137zM418 941l-25 -132h-133l25 132h133zM628 941l-25 -132h-133l25 132h133z " glyph-name="Udieresis" horiz-adv-x="640" unicode="Ü"/>
<glyph d="M733 739l-329 -466l-51 -273h-137l51 273l-157 466h148l100 -340l227 340h148zM636 894l-243 -116l-40 88l236 127z" glyph-name="Yacute" horiz-adv-x="620" unicode="Ý"/>
<glyph d="M583 422q0 -97 -60 -179q-14 -17 -28 -31q-53 -50 -117 -62q-46 -9 -133 -9h-44l-26 -141h-137l137 739h137l-26 -140h46q131 0 178 -32q3 -1 4 -2q68 -50 69 -143zM443 389q0 49 -32 64q-30 14 -103 14h-46l-37 -195h40q160 0 176 93q2 12 2 24z" glyph-name="Thorn" unicode="Þ"/>
<glyph d="M598 260q0 -114 -87 -196q-83 -77 -192 -77q-125 1 -161 92l-15 -79h-122l90 487q29 158 135 226q61 39 136 39q102 0 152 -70q31 -42 31 -97q-1 -122 -104 -176q136 -38 137 -149zM461 226q0 54 -43 73q-39 16 -124 16h-11l22 118h11q56 0 90 54q22 35 22 76 q0 49 -44 63q-12 4 -26 4q-87 -2 -111 -127l-58 -314h82q12 -79 80 -80q55 0 89 50q21 31 21 67z" glyph-name="germandbls" horiz-adv-x="600" unicode="ß"/>
<glyph d="M586 0h-122l13 72q-95 -82 -200 -85q-128 0 -191 89q-41 57 -41 137q0 139 96 243q94 101 227 110q11 1 22 1q116 -1 163 -87l13 74h122zM514 313q0 87 -69 119q-29 13 -65 13q-86 0 -146 -70q-52 -60 -52 -135q0 -84 68 -117q30 -14 67 -14q95 0 153 73q44 56 44 131z M506 691l-73 -88l-200 116l84 99z" glyph-name="agrave" horiz-adv-x="660" unicode="à"/>
<glyph d="M586 0h-122l13 72q-95 -82 -200 -85q-128 0 -191 89q-41 57 -41 137q0 139 96 243q94 101 227 110q11 1 22 1q116 -1 163 -87l13 74h122zM514 313q0 87 -69 119q-29 13 -65 13q-86 0 -146 -70q-52 -60 -52 -135q0 -84 68 -117q30 -14 67 -14q95 0 153 73q44 56 44 131z M603 719l-243 -116l-40 88l236 127z" glyph-name="aacute" horiz-adv-x="660" unicode="á"/>
<glyph d="M586 0h-122l13 72q-95 -82 -200 -85q-128 0 -191 89q-41 57 -41 137q0 139 96 243q94 101 227 110q11 1 22 1q116 -1 163 -87l13 74h122zM514 313q0 87 -69 119q-29 13 -65 13q-86 0 -146 -70q-52 -60 -52 -135q0 -84 68 -117q30 -14 67 -14q95 0 153 73q44 56 44 131z M601 631h-145l-41 64l-66 -64h-147l173 138h107z" glyph-name="acircumflex" horiz-adv-x="660" unicode="â"/>
<glyph d="M586 0h-122l13 72q-95 -82 -200 -85q-128 0 -191 89q-41 57 -41 137q0 139 96 243q94 101 227 110q11 1 22 1q116 -1 163 -87l13 74h122zM514 313q0 87 -69 119q-29 13 -65 13q-86 0 -146 -70q-52 -60 -52 -135q0 -84 68 -117q30 -14 67 -14q95 0 153 73q44 56 44 131z M573 687q-45 -56 -108 -56q-2 0 -92 25q-23 6 -29 6q-21 -1 -55 -30l-38 85q41 42 88 47q5 1 9 1q9 0 79 -23q23 -8 31 -8q27 0 52 16q11 6 29 19z" glyph-name="atilde" horiz-adv-x="660" unicode="ã"/>
<glyph d="M586 0h-122l13 72q-95 -82 -200 -85q-128 0 -191 89q-41 57 -41 137q0 139 96 243q94 101 227 110q11 1 22 1q116 -1 163 -87l13 74h122zM514 313q0 87 -69 119q-29 13 -65 13q-86 0 -146 -70q-52 -60 -52 -135q0 -84 68 -117q30 -14 67 -14q95 0 153 73q44 56 44 131z M383 766l-25 -132h-133l25 132h133zM593 766l-25 -132h-133l25 132h133z" glyph-name="adieresis" horiz-adv-x="660" unicode="ä"/>
<glyph d="M586 0h-122l13 72q-95 -82 -200 -85q-128 0 -191 89q-41 57 -41 137q0 139 96 243q94 101 227 110q11 1 22 1q116 -1 163 -87l13 74h122zM514 313q0 87 -69 119q-29 13 -65 13q-86 0 -146 -70q-52 -60 -52 -135q0 -84 68 -117q30 -14 67 -14q95 0 153 73q44 56 44 131z M532 732q0 -64 -55 -106q-38 -29 -82 -29q-57 0 -83 46q-11 21 -11 45q0 64 54 106q39 29 84 29q54 0 80 -44q13 -22 13 -47zM457 717q0 21 -21 30q-6 3 -12 3q-29 0 -43 -28q-5 -11 -5 -21q0 -21 21 -29q7 -2 13 -2q27 0 41 26q6 11 6 21z" glyph-name="aring" horiz-adv-x="660" unicode="å"/>
<glyph d="M1078 342q0 -59 -27 -123h-428q9 -72 75 -99q28 -11 60 -11q75 1 128 55h145q-56 -103 -165 -150q-61 -27 -123 -27q-93 0 -138 50q-10 11 -18 23l-12 -60h-122l12 60q-64 -60 -130 -70q-21 -3 -47 -3q-128 0 -195 86q-47 60 -47 143q0 133 94 236q92 101 219 113 q16 2 31 2q95 0 146 -56l10 -12l10 55h122l-10 -55q73 65 173 68h11q109 0 175 -79q51 -62 51 -146zM504 312q0 79 -63 116q-31 17 -66 17q-87 0 -145 -71q-47 -59 -47 -134q0 -82 64 -116q30 -15 66 -15q84 0 143 70q48 59 48 133zM942 337q-15 85 -76 102q-23 6 -54 6 q-118 -1 -174 -108h304z" glyph-name="ae" horiz-adv-x="1080" unicode="æ"/>
<glyph d="M640 369h-150q-25 75 -113 76q-87 0 -145 -69q-48 -58 -48 -131q0 -85 64 -120q30 -16 67 -16q80 0 134 65q3 5 6 8h150q-87 -155 -240 -188q-23 -4 -45 -6l-31 -46q20 7 30 7q47 0 66 -44q8 -17 8 -37q0 -7 -2 -20q-12 -65 -69 -89q-22 -9 -45 -9q-60 0 -78 50 q-6 16 -6 34h61q9 -28 32 -29q26 0 42 28q7 13 7 25q0 28 -23 35q-5 1 -9 1q-20 -1 -43 -27l-47 26l56 95q-114 10 -177 95q-45 61 -45 140q0 127 95 229q93 99 220 113q18 2 35 2q137 0 203 -96q30 -44 40 -102z" glyph-name="ccedilla" horiz-adv-x="640" unicode="ç"/>
<glyph d="M615 218h-429q0 -63 59 -93q32 -16 71 -16q80 1 135 55h145q-63 -115 -186 -158q-55 -19 -113 -19q-129 0 -199 85q-52 63 -52 151q0 127 95 228q92 99 219 114q20 2 38 2q122 0 189 -83q48 -60 48 -142q0 -76 -20 -124zM511 336q-8 108 -134 109q-86 0 -142 -60 q-20 -23 -31 -49h307zM514 691l-73 -88l-200 116l84 99z" glyph-name="egrave" horiz-adv-x="640" unicode="è"/>
<glyph d="M615 218h-429q0 -63 59 -93q32 -16 71 -16q80 1 135 55h145q-63 -115 -186 -158q-55 -19 -113 -19q-129 0 -199 85q-52 63 -52 151q0 127 95 228q92 99 219 114q20 2 38 2q122 0 189 -83q48 -60 48 -142q0 -76 -20 -124zM511 336q-8 108 -134 109q-86 0 -142 -60 q-20 -23 -31 -49h307zM611 719l-243 -116l-40 88l236 127z" glyph-name="eacute" horiz-adv-x="640" unicode="é"/>
<glyph d="M615 218h-429q0 -63 59 -93q32 -16 71 -16q80 1 135 55h145q-63 -115 -186 -158q-55 -19 -113 -19q-129 0 -199 85q-52 63 -52 151q0 127 95 228q92 99 219 114q20 2 38 2q122 0 189 -83q48 -60 48 -142q0 -76 -20 -124zM511 336q-8 108 -134 109q-86 0 -142 -60 q-20 -23 -31 -49h307zM609 631h-145l-41 64l-66 -64h-147l173 138h107z" glyph-name="ecircumflex" horiz-adv-x="640" unicode="ê"/>
<glyph d="M615 218h-429q0 -63 59 -93q32 -16 71 -16q80 1 135 55h145q-63 -115 -186 -158q-55 -19 -113 -19q-129 0 -199 85q-52 63 -52 151q0 127 95 228q92 99 219 114q20 2 38 2q122 0 189 -83q48 -60 48 -142q0 -76 -20 -124zM511 336q-8 108 -134 109q-86 0 -142 -60 q-20 -23 -31 -49h307zM391 766l-25 -132h-133l25 132h133zM601 766l-25 -132h-133l25 132h133z" glyph-name="edieresis" horiz-adv-x="640" unicode="ë"/>
<glyph d="M260 554l-103 -554h-133l103 554h133zM342 691l-73 -88l-200 116l84 99z" glyph-name="igrave" horiz-adv-x="240" unicode="ì"/>
<glyph d="M260 554l-103 -554h-133l103 554h133zM378 719l-243 -116l-40 88l236 127z" glyph-name="iacute" horiz-adv-x="240" unicode="í"/>
<glyph d="M260 554l-103 -554h-133l103 554h133zM407 631h-145l-41 64l-66 -64h-147l173 138h107z" glyph-name="icircumflex" horiz-adv-x="240" unicode="î"/>
<glyph d="M260 554l-103 -554h-133l103 554h133zM189 766l-25 -132h-133l25 132h133zM399 766l-25 -132h-133l25 132h133z" glyph-name="idieresis" horiz-adv-x="240" unicode="ï"/>
<glyph d="M650 343q0 -132 -96 -236q-93 -102 -221 -118q-20 -2 -39 -2q-124 0 -194 86q-54 65 -54 156q0 119 91 216q89 96 210 109q17 2 33 2q28 -1 70 -16q-42 49 -75 78l-85 -33l-34 48l75 30l-16 15q-3 2 -40 31l93 48q43 -32 66 -54l1 -1l92 37l42 -44l-87 -36 q146 -126 165 -276q3 -21 3 -40zM513 309q0 76 -58 114q-33 22 -74 22q-83 0 -144 -68q-54 -60 -54 -134t59 -112q34 -22 76 -22q80 0 141 67q54 60 54 133z" glyph-name="eth" horiz-adv-x="640" unicode="ð"/>
<glyph d="M516 0h-133l50 271q9 50 9 92q-2 81 -84 82q-76 0 -113 -62q-26 -44 -40 -122l-48 -261h-133l103 554h123l-10 -53q73 58 138 65q14 1 27 1q138 0 170 -104q8 -28 8 -60q0 -41 -12 -106zM558 687q-45 -56 -108 -56q-2 0 -92 25q-23 6 -29 6q-21 -1 -55 -30l-38 85 q41 42 88 47q5 1 9 1q9 0 79 -23q23 -8 31 -8q27 0 52 16q11 6 29 19z" glyph-name="ntilde" horiz-adv-x="600" unicode="ñ"/>
<glyph d="M645 327q0 -125 -96 -225q-94 -98 -223 -113q-20 -2 -38 -2q-114 0 -185 80q-57 65 -57 154q0 129 96 230q94 100 224 114q18 2 35 2q120 0 190 -84q54 -66 54 -156zM508 309q0 76 -57 114q-33 22 -73 22q-81 0 -142 -67q-53 -61 -53 -134q0 -75 58 -113q33 -22 74 -22 q79 0 139 67q54 60 54 133zM517 691l-73 -88l-200 116l84 99z" glyph-name="ograve" horiz-adv-x="640" unicode="ò"/>
<glyph d="M645 327q0 -125 -96 -225q-94 -98 -223 -113q-20 -2 -38 -2q-114 0 -185 80q-57 65 -57 154q0 129 96 230q94 100 224 114q18 2 35 2q120 0 190 -84q54 -66 54 -156zM508 309q0 76 -57 114q-33 22 -73 22q-81 0 -142 -67q-53 -61 -53 -134q0 -75 58 -113q33 -22 74 -22 q79 0 139 67q54 60 54 133zM614 719l-243 -116l-40 88l236 127z" glyph-name="oacute" horiz-adv-x="640" unicode="ó"/>
<glyph d="M645 327q0 -125 -96 -225q-94 -98 -223 -113q-20 -2 -38 -2q-114 0 -185 80q-57 65 -57 154q0 129 96 230q94 100 224 114q18 2 35 2q120 0 190 -84q54 -66 54 -156zM508 309q0 76 -57 114q-33 22 -73 22q-81 0 -142 -67q-53 -61 -53 -134q0 -75 58 -113q33 -22 74 -22 q79 0 139 67q54 60 54 133zM612 631h-145l-41 64l-66 -64h-147l173 138h107z" glyph-name="ocircumflex" horiz-adv-x="640" unicode="ô"/>
<glyph d="M645 327q0 -125 -96 -225q-94 -98 -223 -113q-20 -2 -38 -2q-114 0 -185 80q-57 65 -57 154q0 129 96 230q94 100 224 114q18 2 35 2q120 0 190 -84q54 -66 54 -156zM508 309q0 76 -57 114q-33 22 -73 22q-81 0 -142 -67q-53 -61 -53 -134q0 -75 58 -113q33 -22 74 -22 q79 0 139 67q54 60 54 133zM584 687q-45 -56 -108 -56q-2 0 -92 25q-23 6 -29 6q-21 -1 -55 -30l-38 85q41 42 88 47q5 1 9 1q9 0 79 -23q23 -8 31 -8q27 0 52 16q11 6 29 19z" glyph-name="otilde" horiz-adv-x="640" unicode="õ"/>
<glyph d="M645 327q0 -125 -96 -225q-94 -98 -223 -113q-20 -2 -38 -2q-114 0 -185 80q-57 65 -57 154q0 129 96 230q94 100 224 114q18 2 35 2q120 0 190 -84q54 -66 54 -156zM508 309q0 76 -57 114q-33 22 -73 22q-81 0 -142 -67q-53 -61 -53 -134q0 -75 58 -113q33 -22 74 -22 q79 0 139 67q54 60 54 133zM394 766l-25 -132h-133l25 132h133zM604 766l-25 -132h-133l25 132h133z" glyph-name="odieresis" horiz-adv-x="640" unicode="ö"/>
<glyph d="M569 181h-492v138h492v-138zM387 435q0 -39 -35 -57q-14 -7 -29 -7q-39 0 -57 35q-7 14 -7 29q0 39 35 57q14 7 29 7q39 0 57 -35q7 -14 7 -29zM387 65q0 -39 -35 -57q-14 -7 -29 -7q-39 0 -57 35q-7 14 -7 29q0 39 35 57q14 7 29 7q39 0 57 -35q7 -14 7 -29z" glyph-name="divide" horiz-adv-x="600" unicode="÷"/>
<glyph d="M648 328q0 -121 -94 -222q-91 -99 -215 -116q-22 -3 -43 -3q-58 0 -114 24l-63 -75l-73 62l60 70q-57 72 -57 153q0 129 96 231q94 99 223 113q18 2 35 2q59 0 109 -23l65 76l73 -62l-60 -71q58 -69 58 -159zM511 308q-1 47 -16 69l-222 -261q20 -7 41 -7q81 0 143 67 q54 59 54 132zM423 438q-28 7 -45 7q-78 0 -138 -68q-54 -61 -54 -134q1 -33 14 -65z" glyph-name="oslash" horiz-adv-x="660" unicode="ø"/>
<glyph d="M620 554l-103 -554h-123l10 53q-74 -61 -157 -66h-17q-107 0 -151 79q-21 38 -21 86q0 41 12 105l55 297h133l-50 -271q-11 -57 -10 -96q0 -62 56 -75q13 -3 26 -3q76 0 111 48q31 44 48 136l48 261h133zM491 691l-73 -88l-200 116l84 99z" glyph-name="ugrave" horiz-adv-x="600" unicode="ù"/>
<glyph d="M620 554l-103 -554h-123l10 53q-74 -61 -157 -66h-17q-107 0 -151 79q-21 38 -21 86q0 41 12 105l55 297h133l-50 -271q-11 -57 -10 -96q0 -62 56 -75q13 -3 26 -3q76 0 111 48q31 44 48 136l48 261h133zM588 719l-243 -116l-40 88l236 127z" glyph-name="uacute" horiz-adv-x="600" unicode="ú"/>
<glyph d="M620 554l-103 -554h-123l10 53q-74 -61 -157 -66h-17q-107 0 -151 79q-21 38 -21 86q0 41 12 105l55 297h133l-50 -271q-11 -57 -10 -96q0 -62 56 -75q13 -3 26 -3q76 0 111 48q31 44 48 136l48 261h133zM586 631h-145l-41 64l-66 -64h-147l173 138h107z" glyph-name="ucircumflex" horiz-adv-x="600" unicode="û"/>
<glyph d="M620 554l-103 -554h-123l10 53q-74 -61 -157 -66h-17q-107 0 -151 79q-21 38 -21 86q0 41 12 105l55 297h133l-50 -271q-11 -57 -10 -96q0 -62 56 -75q13 -3 26 -3q76 0 111 48q31 44 48 136l48 261h133zM368 766l-25 -132h-133l25 132h133zM578 766l-25 -132h-133 l25 132h133z" glyph-name="udieresis" horiz-adv-x="600" unicode="ü"/>
<glyph d="M641 554l-455 -739h-143l146 237l-110 502h152l56 -359l201 359h153zM575 719l-243 -116l-40 88l236 127z" glyph-name="yacute" horiz-adv-x="580" unicode="ý"/>
<glyph d="M661 344q0 -144 -95 -248q-93 -102 -225 -109h-16q-99 1 -158 65l-44 -237h-133l171 924h122l-46 -250q65 67 169 77q13 1 26 1q122 0 185 -83q44 -58 44 -140zM524 309q0 77 -57 115q-32 21 -74 21q-85 0 -145 -69q-51 -60 -51 -135q0 -74 60 -111q34 -21 76 -21 q78 0 138 67q53 61 53 133z" glyph-name="thorn" horiz-adv-x="660" unicode="þ"/>
</font>
</defs>
</svg>
